<svg viewBox="0 0 1012 370" xmlns="http://www.w3.org/2000/svg" xmlns:xlink="http://www.w3.org/1999/xlink"><g fill="none" fill-rule="evenodd" opacity=".05"><path d="m616.5 285.8v-78h-53.4v-251.4h-130.8l-163.8 256.8v72.6h181.8v76.2h112.8v-76.2h53.4m-166.2-78h-86.4l86.4-139.8v139.8m543-48.6c0-136.2-69-210.6-174-210.6-104.4 0-174.6 74.4-174.6 210.6 0 136.2 70.2 210.6 174.6 210.6 105 0 174-74.4 174-210.6m-118.2 0c0 78-15.6 122.4-55.8 122.4-39.6 0-56.4-44.4-56.4-122.4 0-78 16.8-122.4 56.4-122.4 40.2 0 55.8 44.4 55.8 122.4m497.4 126.6v-78h-53.4v-251.4h-130.8l-163.8 256.8v72.6h181.8v76.2h112.8v-76.2h53.4m-166.2-78h-86.4l86.4-139.8v139.8" transform="translate(-268)" fill="#000"/></g></svg>