<?xml version="1.0" encoding="UTF-8"?>
<!DOCTYPE svg PUBLIC "-//W3C//DTD SVG 1.1//EN" "http://www.w3.org/Graphics/SVG/1.1/DTD/svg11.dtd">
<!-- Creator: CorelDRAW 2019 (64-Bit) -->
<svg xmlns="http://www.w3.org/2000/svg" xml:space="preserve" width="5.67214in" height="4.42674in" version="1.1" style="shape-rendering:geometricPrecision; text-rendering:geometricPrecision; image-rendering:optimizeQuality; fill-rule:evenodd; clip-rule:evenodd"
viewBox="0 0 5672.14 4426.74"
 xmlns:xlink="http://www.w3.org/1999/xlink"
 xmlns:xodm="http://www.corel.com/coreldraw/odm/2003">
 <defs>
  <style type="text/css">
   <![CDATA[
    .fil0 {fill:white;fill-rule:nonzero;fill-opacity:0.101961}
    .fil1 {fill:url(#id0)}
   ]]>
  </style>
  <linearGradient id="id0" gradientUnits="userSpaceOnUse" x1="5315.22" y1="1138.47" x2="356.9" y2="3288.28">
   <stop offset="0" style="stop-opacity:1; stop-color:#FAF4C2"/>
   <stop offset="0.419608" style="stop-opacity:1; stop-color:#F2B440"/>
   <stop offset="0.760784" style="stop-opacity:1; stop-color:#FAF4C2"/>
   <stop offset="1" style="stop-opacity:1; stop-color:#D28E22"/>
  </linearGradient>
 </defs>
 <g id="Слой_x0020_1">
  <metadata id="CorelCorpID_0Corel-Layer"/>
  <path class="fil0" d="M200.72 1946.32c0,291.61 165.67,435.87 374.3,537.17 -156.47,64.46 -441.79,217.94 -441.79,564.8 0,349.93 227.03,577.07 813.02,577.07 585.98,0 816.09,-254.77 816.09,-620.05 0,-322.3 -202.49,-463.5 -444.86,-558.65 144.19,-64.46 377.36,-205.66 377.36,-521.82 0,-368.35 -257.71,-570.93 -748.59,-570.93 -463.26,0 -745.52,214.87 -745.52,592.42zm1205.72 3.07c0,288.54 -263.85,374.48 -358.95,408.25l-98.17 -24.56c-245.44,-64.46 -451,-135.06 -451,-383.69 0,-221.01 162.6,-337.65 447.93,-337.65 294.52,0 460.2,116.64 460.2,337.65zm46.02 1062.06c0,217.94 -128.85,356.06 -506.22,356.06 -374.3,0 -512.35,-131.99 -512.35,-346.85 0,-316.16 309.86,-408.25 404.97,-435.87 328.27,82.88 613.59,125.85 613.59,426.67zm2599.48 -1065.13c0,291.61 165.67,435.87 374.3,537.17 -156.47,64.46 -441.79,217.94 -441.79,564.8 0,349.93 227.03,577.07 813.02,577.07 585.98,0 816.08,-254.77 816.08,-620.05 0,-322.3 -202.49,-463.5 -444.86,-558.65 144.19,-64.46 377.36,-205.66 377.36,-521.82 0,-368.35 -257.71,-570.93 -748.59,-570.93 -463.27,0 -745.52,214.87 -745.52,592.42zm1205.72 3.07c0,288.54 -263.85,374.48 -358.95,408.25l-98.18 -24.56c-245.44,-64.46 -451,-135.06 -451,-383.69 0,-221.01 162.6,-337.65 447.93,-337.65 294.52,0 460.2,116.64 460.2,337.65zm46.02 1062.06c0,217.94 -128.86,356.06 -506.22,356.06 -374.3,0 -512.35,-131.99 -512.35,-346.85 0,-316.16 309.87,-408.25 404.97,-435.87 328.27,82.88 613.6,125.85 613.6,426.67zm-3371.9 -1570.92c0,381.93 216.98,570.88 490.22,703.55 -204.93,84.43 -578.63,285.44 -578.63,739.73 0,458.31 297.35,755.81 1064.83,755.81 767.48,0 1068.85,-333.68 1068.85,-812.09 0,-422.13 -265.2,-607.06 -582.65,-731.69 188.86,-84.43 494.24,-269.36 494.24,-683.44 0,-482.43 -337.53,-747.77 -980.44,-747.77 -606.76,0 -976.43,281.42 -976.43,775.91zm1579.17 4.02c0,377.91 -345.57,490.47 -470.13,534.7l-128.58 -32.17c-321.46,-84.43 -590.68,-176.89 -590.68,-502.53 0,-289.46 212.97,-442.23 586.67,-442.23 385.75,0 602.73,152.77 602.73,442.23zm60.28 1391.01c0,285.44 -168.77,466.35 -663.01,466.35 -490.22,0 -671.05,-172.87 -671.05,-454.29 0,-414.09 405.84,-534.69 530.41,-570.88 429.95,108.55 803.65,164.83 803.65,558.82z"/>
  <path class="fil1" d="M2836.07 0l-62.44 45.71c0,0 -1.24,11.18 4.96,16.14 -241.35,231.76 -979.07,565.67 -1001.2,902.49l-1171.86 0c-132.59,1.13 -242.33,79.98 -238.35,211.04l0 186.21 -171.33 0c-88.14,0 -188.68,47.17 -193.65,186.21 -4.96,139.04 0,680.28 0,680.28 -1.24,34.76 40.96,121.65 129.09,121.65 88.14,0 186.21,0 186.21,0 0,0 132.83,-24.83 132.83,-132.83 0,-108 0,-758.48 0,-758.48l1356.83 0c0,0 -11.15,-412.56 137.75,-624.76 18.8,-26.78 28.93,-39.83 60.5,-51.75 24.5,-9.25 48.6,-9.92 72.37,-3.76 0,0 -40.97,96.22 -32.28,186.22 9.52,98.58 98.19,164.13 178.86,156.2 161.33,-15.87 168.69,-300.79 4.87,-239.37 95.98,70.84 -7.8,162.77 -76.79,109.28 -49.93,-38.69 -29.18,-146.23 10.11,-186.92 70.38,-72.89 216.78,-27.49 271.52,85.09 138.72,-77.83 310.17,28.39 401.99,131.2 91.82,-102.81 263.27,-209.03 401.99,-131.2 54.74,-112.58 201.14,-157.98 271.52,-85.09 39.29,40.69 60.04,148.23 10.11,186.92 -68.99,53.49 -172.78,-38.44 -76.79,-109.28 -163.82,-61.42 -156.46,223.51 4.87,239.37 80.68,7.93 169.34,-57.62 178.86,-156.2 8.69,-90 -32.28,-186.22 -32.28,-186.22 23.78,-6.16 47.87,-5.48 72.37,3.76 31.57,11.92 41.71,24.97 60.5,51.75 148.89,212.2 137.75,624.76 137.75,624.76l1356.83 0c0,0 0,650.48 0,758.48 0,108 132.83,132.83 132.83,132.83 0,0 98.07,0 186.21,0 88.13,0 130.34,-86.89 129.09,-121.65 0,0 4.96,-541.24 0,-680.28 -4.97,-139.04 -105.51,-186.21 -193.65,-186.21l-171.33 0 0 -186.21c3.98,-131.06 -105.76,-209.91 -238.35,-211.04l-1171.86 0c-22.12,-336.82 -759.84,-670.72 -1001.2,-902.49 6.2,-4.96 4.96,-16.14 4.96,-16.14l-62.44 -45.71zm-640.11 3900.97l-1590.43 0c-132.59,-1.14 -242.33,-79.98 -238.35,-211.04l0 -186.21 -171.33 0c-88.14,0 -188.68,-47.17 -193.65,-186.21 -4.96,-139.04 0,-680.28 0,-680.28 -1.24,-34.76 40.96,-121.65 129.09,-121.65 88.14,0 186.21,0 186.21,0 0,0 132.83,24.83 132.83,132.83l0 465.7c23.3,-30.81 63.79,-72.55 117.19,-81.7 110.35,-18.92 184.86,52.75 176.78,161.35 -1.86,25.04 -9.91,46.39 -22.85,60.85 -46.12,51.61 -87.04,17.81 -62.69,-3.72 16.14,-14.28 63.31,-69.52 6.21,-128.48 -42.15,-43.52 -110.67,-20.43 -138.43,30.33 -19.48,35.64 -20.2,90.92 -0.57,137.66 65.98,157.11 238.16,97.35 301,-37.67l478.73 154.15 1150.7 0c15.58,192.81 6.63,496.55 -260.45,494.09zm1280.22 0l1590.43 0c132.59,-1.14 242.33,-79.98 238.35,-211.04l0 -186.21 171.33 0c88.14,0 188.68,-47.17 193.65,-186.21 4.96,-139.04 0,-680.28 0,-680.28 1.24,-34.76 -40.96,-121.65 -129.09,-121.65 -88.14,0 -186.21,0 -186.21,0 0,0 -132.83,24.83 -132.83,132.83l0 465.7c-23.3,-30.81 -63.79,-72.55 -117.19,-81.7 -110.35,-18.92 -184.86,52.75 -176.78,161.35 1.86,25.04 9.91,46.39 22.85,60.85 46.12,51.61 87.04,17.81 62.69,-3.72 -16.14,-14.28 -63.31,-69.52 -6.21,-128.48 42.15,-43.52 110.67,-20.43 138.43,30.33 19.48,35.64 20.2,90.92 0.57,137.66 -65.98,157.11 -238.16,97.35 -301,-37.67l-478.73 154.15 -1150.7 0c-15.58,192.81 -6.63,496.55 260.45,494.09zm-679.89 -257.23c0,0 8.69,9.94 3.73,23.59 -4.97,13.65 -115.46,122.89 -115.46,122.89 0,0 -6.81,10.55 -2.78,20.17 4.03,9.62 99.63,80.69 107.07,120.41 7.44,39.72 16.14,115.46 -48.41,160.14 -64.56,44.69 -134.07,7.45 -146.49,-38.48 -12.42,-45.93 28.56,-79.44 65.79,-63.31l21.11 22.35c0,0 64.56,-47.17 11.17,-106.76 -63.68,-71.08 -246.85,-17.18 -235.93,141.62 11.94,173.34 257.4,171.58 326.54,104.19 -48.05,118.11 -20.91,224.4 65.78,275.58l1.11 0.62 1.28 -0.62c86.7,-51.18 113.83,-157.47 65.78,-275.58 69.14,67.4 314.6,69.16 326.54,-104.19 10.92,-158.8 -172.25,-212.7 -235.93,-141.62 -53.38,59.59 11.17,106.76 11.17,106.76l21.1 -22.35c37.24,-16.13 78.21,17.38 65.8,63.31 -12.42,45.93 -81.93,83.17 -146.49,38.48 -64.56,-44.68 -55.86,-120.41 -48.41,-160.14 7.44,-39.72 103.04,-110.78 107.07,-120.41 4.03,-9.62 -2.79,-20.17 -2.79,-20.17 0,0 -110.48,-109.24 -115.45,-122.89 -4.97,-13.65 3.72,-23.59 3.72,-23.59 118.56,-48.98 95.11,-248.26 -49.52,-248.26 -152.96,-5.2 -176.7,198.85 -57.11,248.26zm324.59 -2021.03c11.19,1.6 21.46,3.67 30.86,6.14 78.24,20.54 96.3,68.67 84.66,101.94 -13.04,37.27 -229.19,635.39 -229.19,635.39 -30.98,104.75 149.86,120.01 143.92,63.44 -1.16,-11.02 4.46,-13.26 13.46,-13.08 54,17.27 86.33,146.75 -98.78,151.38 0.76,90.41 -27.04,165.19 -69.89,218.57 -36.97,46.07 -87.26,81.71 -145.64,101.84 -73.31,25.26 -169.4,25.26 -242.7,0 -58.38,-20.13 -108.67,-55.77 -145.64,-101.84 -37.02,-46.12 -60.71,-102.69 -65.84,-164.57 -3.43,-41.35 1.41,-85.06 16.09,-129.59 -247.11,-118.39 -72.89,-564.86 -158.84,-776.31 -9.6,-23.64 -23.96,-46.99 -45.27,-66.5 -27.52,-25.22 -60.94,-49.66 -110.58,-59.89 0,0 -5.59,-33.54 22.36,-40.99 176.14,23.7 217.38,160.63 219.87,300 1.86,104.34 14.91,281.36 14.91,281.36 5.73,136.57 71.15,177.51 142.19,179.24 125.76,3.07 165.91,-117.28 167.51,-194.61l0 -557.59c0,-74.39 -27.48,-108.75 -31.68,-128.57 -9.31,-44.05 191.92,-44.05 182.6,0 -4.19,19.81 -31.67,54.18 -31.67,128.57l0 101.83c15.36,-15.32 24.75,-24.13 51.85,-32.51 80.98,-25.06 200.14,-15.8 285.43,-3.63zm-886.52 1048.94c9.78,0 17.7,7.93 17.7,17.7 0,9.78 -7.93,17.7 -17.7,17.7 -9.78,0 -17.7,-7.92 -17.7,-17.7 0,-9.78 7.92,-17.7 17.7,-17.7zm-1359.46 -340.06l0 -213.63c0,-11.02 -4.12,-19.47 -12.24,-25.15 -5.67,-3.68 -8.46,-8.13 -8.46,-13.35l0 -14.35c0,-5 2.78,-7.46 8.46,-7.46l73.21 0c4.79,0 7.13,2.23 7.13,6.79l0 15.02c0,5.01 -2.67,9.46 -8.13,13.35 -8.35,5.89 -12.57,14.24 -12.57,25.03l0 438.06c0,7.01 -3.12,10.46 -9.46,10.46l-14.35 0c-6.46,0 -11.02,-3.33 -13.69,-10.12l-134.74 -355.17 0 302.65c0,11.35 4.11,19.81 12.46,25.48 5.45,3.68 8.24,8.02 8.24,13.02l0 14.69c0,5 -2.78,7.46 -8.35,7.46l-72.66 0c-4.78,0 -7.12,-2.34 -7.12,-6.9l0 -15.24c0,-4.78 2.78,-9.13 8.46,-13.02 8.13,-5.89 12.24,-14.35 12.24,-25.48l0 -385.76c0,-11.13 -4.11,-19.47 -12.24,-25.15 -5.67,-3.68 -8.46,-8.13 -8.46,-13.35l0 -14.35c0,-5 2.78,-7.46 8.46,-7.46l68.65 0c5.01,0 8.35,0.56 10.02,1.78 1.78,1.22 3.44,4.11 5.23,8.67l99.92 263.48zm180.92 -209.85l-3.11 -22.14c-1.11,-7.12 -1.56,-11.13 -1.56,-12.02 0,-2.23 1.56,-4.01 4.89,-5.57l54.97 -25.7c0.89,-0.44 1.78,-0.67 2.89,-0.67 3,0 5,2 5.9,5.9l89.24 441.85c1.45,8.12 3.34,13.8 5.67,17.35 2.23,3.45 6.68,7.12 13.24,11.02 5.01,3 7.46,6.56 7.46,10.46l0 14.35c0,5.23 -2,7.79 -6.12,7.79l-108.6 0c-5.9,0 -8.79,-2.56 -8.79,-7.79l0 -14.35c0,-5 3.45,-9.24 10.35,-12.8 8.35,-4.56 12.57,-10.68 12.57,-18.47 0,-2.23 -0.22,-4.78 -0.67,-7.57l-13.8 -67.88 -85.23 0 -13.46 65.31c-0.67,2.89 -1,4.89 -1,6.23 0,6.45 5.01,13.69 14.91,21.48 6.34,5.23 9.57,9.79 9.57,13.69l0 14.35c0,5.23 -3.11,7.79 -9.46,7.79l-68.54 0c-7.68,0 -11.46,-2.56 -11.46,-7.79l0 -17.02c0,-4.57 2.44,-8.24 7.23,-11.02 8.91,-5.45 14.69,-14.69 17.58,-27.71l75.33 -379.09zm22.37 104.7l-34.39 167.02 68.1 0 -33.71 -167.02zm212.63 337.93l-16.36 0c-5.45,0 -8.12,-2.9 -8.12,-8.79l0 -123.06c0,-8.24 2.89,-12.35 8.78,-12.35l14.02 0c3.78,0 6.24,1.22 7.34,3.78 1.22,2.45 2.89,11.13 5.12,26.04 8.9,57.08 29.26,85.68 61.08,85.68 16.47,0 29.49,-7.24 38.94,-21.59 9.46,-14.35 14.24,-31.71 14.24,-52.19 0,-21.14 -5.01,-40.72 -15.13,-58.75 -10.13,-18.13 -29.59,-42.5 -58.53,-73.11 -22.36,-23.59 -38.28,-41.72 -47.74,-54.74 -9.46,-12.91 -17.13,-27.48 -22.81,-43.84 -5.79,-16.35 -8.68,-34.27 -8.68,-53.85 0,-36.05 9.13,-65.76 27.26,-89.02 18.14,-23.25 40.28,-34.94 66.32,-34.94 11.91,0 24.81,3.45 38.5,10.46 6.12,3.12 10.24,4.67 12.35,4.67 2.23,0 4.57,-0.89 7.24,-2.78 2.56,-1.56 5.78,-2.34 9.79,-2.34l12.02 0c6.34,0 9.46,2.9 9.46,8.79l0 107.93c0,5.45 -2.33,8.13 -7.12,8.13l-15.02 0c-3.9,0 -6.46,-1 -7.57,-3.11 -1.23,-2 -3.34,-9.91 -6.34,-23.59 -10.24,-47.18 -26.82,-70.76 -49.85,-70.76 -12.35,0 -22.25,5.23 -29.7,15.69 -7.46,10.34 -11.24,22.47 -11.24,36.05 0,15.91 4.34,32.15 13.02,48.73 8.67,16.58 26.26,38.39 52.52,65.43 33.72,34.6 56.97,64.98 69.99,91.13 12.91,26.26 19.36,54.63 19.36,85.34 0,41.28 -10.79,74.88 -32.49,100.81 -21.7,25.93 -47.4,38.83 -77.22,38.83 -13.24,0 -28.82,-3.56 -46.62,-10.68 -5.67,-2.45 -9.68,-3.68 -12.13,-3.68 -2.12,0 -5.01,1.11 -8.46,3.34 -2.67,1.56 -4.67,2.34 -6.23,2.34zm452.86 -446.41l0 385.76c0,11.35 4.11,19.81 12.46,25.48 5.45,3.68 8.24,8.02 8.24,13.02l0 14.69c0,5 -2.78,7.46 -8.46,7.46l-101.26 0c-4.78,0 -7.12,-2.23 -7.12,-6.8l0 -15.35c0,-4.78 2.67,-9.13 8.12,-13.02 8.35,-5.89 12.57,-14.35 12.57,-25.37l0 -186.49 -75.44 0 0 186.49c0,11.24 4.11,19.69 12.24,25.37 5.67,3.68 8.46,8.02 8.46,13.02l0 14.69c0,5 -2.79,7.46 -8.46,7.46l-101.25 0c-4.79,0 -7.12,-2.34 -7.12,-6.9l0 -15.24c0,-4.78 2.78,-9.13 8.45,-13.02 8.13,-5.89 12.24,-14.35 12.24,-25.48l0 -385.76c0,-11.13 -4.12,-19.47 -12.24,-25.15 -5.67,-3.68 -8.45,-8.13 -8.45,-13.35l0 -14.35c0,-5 2.78,-7.46 8.45,-7.46l101.26 0c4.78,0 7.12,2.34 7.12,6.9l0 15.02c0,5.01 -2.79,9.46 -8.46,13.35 -8.12,5.9 -12.24,14.24 -12.24,25.15l0 153.88 75.44 0 0 -153.88c0,-11.13 -4.12,-19.47 -12.46,-25.15 -5.45,-3.68 -8.23,-8.13 -8.23,-13.35l0 -14.46c0,-5 2.78,-7.46 8.45,-7.46l101.26 0c4.78,0 7.12,2.23 7.12,6.79l0 15.02c0,5.01 -2.67,9.46 -8.12,13.35 -8.35,5.89 -12.57,14.24 -12.57,25.15zm137.64 3.78l-3.12 -22.14c-1.11,-7.12 -1.55,-11.13 -1.55,-12.02 0,-2.23 1.55,-4.01 4.89,-5.57l54.96 -25.7c0.89,-0.44 1.78,-0.67 2.89,-0.67 3,0 5.01,2 5.9,5.9l89.24 441.85c1.44,8.12 3.33,13.8 5.67,17.35 2.22,3.45 6.68,7.12 13.24,11.02 5.01,3 7.45,6.56 7.45,10.46l0 14.35c0,5.23 -2,7.79 -6.12,7.79l-108.59 0c-5.9,0 -8.79,-2.56 -8.79,-7.79l0 -14.35c0,-5 3.45,-9.24 10.35,-12.8 8.34,-4.56 12.57,-10.68 12.57,-18.47 0,-2.23 -0.22,-4.78 -0.67,-7.57l-13.8 -67.88 -85.23 0 -13.46 65.31c-0.67,2.89 -1,4.89 -1,6.23 0,6.45 5.01,13.69 14.91,21.48 6.34,5.23 9.56,9.79 9.56,13.69l0 14.35c0,5.23 -3.11,7.79 -9.45,7.79l-68.54 0c-7.68,0 -11.46,-2.56 -11.46,-7.79l0 -17.02c0,-4.57 2.45,-8.24 7.23,-11.02 8.91,-5.45 14.69,-14.69 17.58,-27.71l75.33 -379.09zm22.36 104.7l-34.38 167.02 68.09 0 -33.72 -167.02zm122.42 540.48c-29.86,-4.51 -20.39,-40.67 -40.13,-59.53 21.31,-4.69 38.54,4.93 52.05,27.56 6.51,-43.58 30.08,-38.13 50.17,-48.7 -5.07,22.13 6.22,43.52 -34.23,60.97 25.33,7.26 39.03,21.45 39.96,43.25 -23.28,-14.26 -55.81,4.15 -67.82,-23.56zm99.09 -128.74c-19.29,-13.21 -43.27,-6.8 -54.41,15.56 -3.18,-10.91 -12.65,-19.24 -23.39,-23.07l85.85 0c0.2,6.2 0.51,12.38 0.91,18.54 -2.15,-4 -5.14,-7.73 -8.96,-11.02zm-102.54 -7.51c-9.99,4.3 -17.3,14.87 -16.54,33.76 -30.58,-23.9 -58.99,-0.07 -60.46,26.77 -0.96,17.58 13.93,33.54 27.72,47.39 15.49,15.56 30.61,30.72 25.33,47.99 -50.53,39.45 -139.02,35.3 -127.13,-58.21 -19.63,8.15 -28.8,24.37 -27.52,48.63 -18.04,-12.21 -28.1,-27.16 -31.34,-44.48 -4.34,-23.16 1.43,-55.06 25.77,-65.04 18.92,-7.74 43.26,1.19 56.31,33.52 -24.31,23.09 19.22,46.8 11.68,88.39 6.38,-3.09 9.52,-8.95 9.69,-15.93 0.69,5.24 3.72,10.31 9.88,15.15 4.54,-8.9 5.26,-15.95 3.38,-21.74 10.59,7.25 17.74,4.35 22.54,-5.49 -29.71,-5.91 3.01,-55.14 -42.94,-64.3 0.79,-6.46 1.07,-13.02 -1.15,-20.06 9.73,-4.15 15.67,-11.49 17.02,-22.67 -18.02,9.8 -36.65,1.32 -55.47,-4.32 1.72,-0.91 3.28,-2.2 4.55,-3.85 3.55,-4.62 3.8,-10.74 1.11,-15.51l147.57 0zm-172.11 0c-2.8,4.96 -2.3,11.11 1.13,15.54 -33.2,-3.13 -61.83,37.94 -62.82,67.74 -2.84,86.05 129.96,140.94 201.28,99.72 -21.59,79.49 65.46,193.82 147.92,169.05 28.55,-8.57 60.93,-46.78 49.4,-78.06 5.76,2.44 12.65,0.8 16.64,-4.39 0.69,-0.89 1.24,-1.83 1.69,-2.82 27.71,50.87 62.54,97.3 103.17,137.93 108.77,108.76 259.03,176.04 425,176.04 165.97,0 316.22,-67.27 425,-176.04 79.52,-79.52 136.84,-181.22 161.93,-295.02 4.03,9.87 13.91,18.72 31.89,23.34 -10.97,6.42 -17.43,14.04 -18.83,23.02 -1.27,8.15 1.45,16.8 6.46,24.02 19.56,28.16 47.58,13.53 71.13,-0.09 12.32,-7.13 24.44,-14.15 35.63,-15.61 6.06,-0.79 11.85,0.05 17.24,3.4 3.15,7.37 5.49,15.13 7.01,23.01 10.59,55.17 -19.38,115.98 -95.81,84.99 2.85,21.07 16.18,34.08 39.96,39.05 -16.41,14.31 -33.45,20.21 -51.02,18.92 -23.5,-1.73 -52.86,-15.48 -56.28,-41.56 -2.65,-20.27 12.22,-41.52 46.81,-45.87 16.1,29.41 50.16,-6.6 88.44,11.33 -1.36,-6.95 -6.22,-11.49 -12.92,-13.44 5.24,0.68 10.91,-0.96 17.18,-5.68 -7.44,-6.66 -14.08,-9.17 -20.16,-8.83 9.72,-8.39 8.75,-16.04 0.46,-23.19 -13.32,27.2 -52.53,-17.02 -73.14,25.06 -6.04,-2.42 -12.31,-4.36 -19.69,-4.02 -1.52,-10.47 -7.09,-18.09 -17.56,-22.26 4.86,19.93 -8.1,35.78 -18.37,52.52 -0.44,-1.91 -1.29,-3.74 -2.56,-5.39 -4.74,-6.16 -13.59,-7.31 -19.76,-2.57 -6.16,4.74 -7.31,13.59 -2.57,19.75 3.99,5.19 10.88,6.82 16.64,4.39 -11.52,31.29 20.85,69.49 49.41,78.06 82.46,24.77 169.51,-89.56 147.91,-169.05 71.32,41.22 204.12,-13.67 201.28,-99.72 -0.99,-29.8 -29.62,-70.87 -62.82,-67.74 3.43,-4.43 3.93,-10.57 1.13,-15.54l1380.89 0 0 -16.77 -1673.91 0 -12.39 0 -8.74 0c-0.94,158.74 -65.66,302.36 -169.83,406.53 -104.94,104.94 -249.92,169.85 -410.06,169.85 -160.13,0 -305.11,-64.91 -410.06,-169.85 -104.17,-104.17 -168.88,-247.79 -169.83,-406.53l-17.88 0 -3.25 0 -1457.2 0 0 16.77 1174.81 0zm345.02 247.17c-5.05,-0.96 -10.45,0.89 -13.8,5.24 -1.26,1.65 -2.11,3.48 -2.56,5.39 -10.27,-16.74 -23.23,-32.59 -18.37,-52.52 -10.46,4.17 -16.04,11.78 -17.56,22.26 -7.38,-0.34 -13.65,1.6 -19.69,4.02 -20.61,-42.08 -59.83,2.15 -73.15,-25.06 -8.29,7.15 -9.26,14.81 0.46,23.19 -6.08,-0.33 -12.72,2.17 -20.16,8.83 6.26,4.72 11.94,6.36 17.17,5.68 -6.7,1.94 -11.57,6.48 -12.93,13.44 38.28,-17.93 72.34,18.08 88.44,-11.33 34.59,4.35 49.46,25.6 46.81,45.87 -3.41,26.08 -32.78,39.82 -56.28,41.56 -17.57,1.29 -34.6,-4.61 -51.02,-18.92 23.78,-4.96 37.11,-17.98 39.96,-39.05 -76.43,30.99 -106.4,-29.81 -95.81,-84.99 1.51,-7.88 3.85,-15.65 7,-23.01 5.39,-3.35 11.18,-4.19 17.24,-3.4 11.18,1.46 23.3,8.48 35.63,15.61 23.55,13.62 51.58,28.25 71.13,0.09 5.01,-7.22 7.73,-15.87 6.46,-24.02 -1.4,-8.98 -7.86,-16.61 -18.83,-23.02 10.65,-2.74 18.45,-6.96 23.89,-12 10.64,44.15 26.15,86.4 45.93,126.14zm-56.39 -180.44c-4.6,-2.09 -9.72,-3.1 -15.09,-2.63 6.14,-5.4 10.28,-11.69 12.45,-18.24 0.77,6.99 1.64,13.95 2.64,20.87zm1313.22 69.53c29.86,-4.51 20.39,-40.67 40.13,-59.53 -21.31,-4.69 -38.54,4.93 -52.04,27.56 -6.51,-43.58 -30.08,-38.13 -50.18,-48.7 5.08,22.13 -6.22,43.52 34.24,60.97 -25.33,7.26 -39.04,21.45 -39.96,43.25 23.28,-14.26 55.81,4.15 67.82,-23.56zm-99.09 -128.74c19.29,-13.21 43.27,-6.8 54.41,15.56 3.18,-10.91 12.65,-19.24 23.39,-23.07l-96.48 0c-0.86,25.74 -3.33,51.07 -7.33,75.89 6.6,-7.74 16.37,-12.73 27.13,-11.8 -18.77,-16.5 -18.83,-41.31 -1.12,-56.58zm102.54 -7.51c9.99,4.3 17.3,14.87 16.54,33.76 30.58,-23.9 58.99,-0.07 60.46,26.77 0.96,17.58 -13.93,33.54 -27.72,47.39 -15.49,15.56 -30.61,30.72 -25.33,47.99 50.53,39.45 139.02,35.3 127.13,-58.21 19.63,8.15 28.81,24.37 27.52,48.63 18.04,-12.21 28.1,-27.16 31.35,-44.48 4.34,-23.16 -1.43,-55.06 -25.77,-65.04 -18.91,-7.74 -43.26,1.19 -56.31,33.52 24.31,23.09 -19.22,46.8 -11.68,88.39 -6.38,-3.09 -9.52,-8.95 -9.69,-15.93 -0.68,5.24 -3.72,10.31 -9.88,15.15 -4.54,-8.9 -5.26,-15.95 -3.38,-21.74 -10.6,7.25 -17.75,4.35 -22.54,-5.49 29.71,-5.91 -3.01,-55.14 42.94,-64.3 -0.79,-6.46 -1.07,-13.02 1.15,-20.06 -9.73,-4.15 -15.67,-11.49 -17.02,-22.67 18.02,9.8 36.65,1.32 55.46,-4.32 -1.72,-0.91 -3.28,-2.2 -4.55,-3.85 -3.56,-4.62 -3.8,-10.74 -1.11,-15.51l-147.57 0zm-225.54 40.98c9.78,0 17.7,7.93 17.7,17.7 0,9.78 -7.92,17.7 -17.7,17.7 -9.78,0 -17.7,-7.92 -17.7,-17.7 0,-9.78 7.93,-17.7 17.7,-17.7zm-987.69 128.22c-0.78,-1.97 -1.44,-4.2 -1.98,-6.69 -0.54,-2.49 -0.89,-5.02 -1.06,-7.56l-21.74 8.71c-0.95,0.38 -1.87,0.39 -2.77,0.03 -0.91,-0.35 -1.58,-1.08 -2.02,-2.17 -0.5,-1.24 -0.53,-2.28 -0.11,-3.13 0.43,-0.85 1.11,-1.45 2.06,-1.84l60.86 -24.38c1.89,-0.76 3.42,-1.52 4.6,-2.29 1.17,-0.77 2.14,-1.77 2.91,-3.01 0.33,-0.64 0.87,-1.11 1.6,-1.4 0.95,-0.38 1.85,-0.36 2.69,0.06 0.85,0.42 1.43,1.04 1.76,1.83 0.29,0.72 0.29,1.57 0,2.54 -0.29,0.96 -0.76,1.91 -1.4,2.85 2.57,2.18 4.92,4.47 7.06,6.87 2.15,2.4 3.76,4.98 4.87,7.74 1.14,2.85 1.64,5.51 1.51,8.02 -0.14,2.5 -0.83,4.83 -2.09,6.98 -1.25,2.15 -2.98,4.07 -5.18,5.75 -2.2,1.69 -4.83,3.14 -7.88,4.37l-14.64 5.87c-3.21,1.28 -6.28,2.17 -9.2,2.67 -2.93,0.5 -5.64,0.44 -8.12,-0.17 -2.48,-0.61 -4.72,-1.85 -6.69,-3.72 -1.98,-1.87 -3.65,-4.52 -5.02,-7.94zm3.19 -16.75c-0.09,2.31 0.12,4.73 0.61,7.24 0.5,2.51 1.05,4.52 1.67,6.05 1.75,4.37 4.26,6.94 7.52,7.71 3.26,0.76 7.66,0.03 13.2,-2.19l14.64 -5.87c4.66,-1.87 7.83,-4.24 9.52,-7.11 1.68,-2.87 1.72,-6.31 0.11,-10.31 -0.78,-1.97 -2.04,-3.94 -3.76,-5.91 -1.73,-1.98 -3.66,-3.76 -5.82,-5.35 -0.74,0.47 -1.52,0.93 -2.31,1.37 -0.8,0.44 -1.63,0.84 -2.5,1.19l-32.89 13.18zm26.62 65.27c1.28,2.42 2.66,4.31 4.13,5.67 1.47,1.35 3.11,2.74 4.94,4.18 0.14,0.1 0.3,0.24 0.48,0.41 0.18,0.17 0.32,0.36 0.43,0.57 0.44,0.83 0.51,1.68 0.21,2.55 -0.3,0.86 -0.83,1.5 -1.59,1.9 -1.18,0.63 -2.49,0.55 -3.93,-0.25 -1.44,-0.79 -2.83,-1.91 -4.19,-3.38 -1.35,-1.46 -2.63,-3.09 -3.85,-4.89 -1.22,-1.8 -2.19,-3.39 -2.93,-4.78 -1.54,-2.91 -2.48,-5.75 -2.82,-8.49 -0.35,-2.74 -0.17,-5.31 0.54,-7.67 0.7,-2.37 1.86,-4.49 3.48,-6.37 1.62,-1.88 3.65,-3.46 6.07,-4.74l19.98 -10.56c2.5,-1.32 5.02,-2.13 7.58,-2.41 2.56,-0.29 5.04,-0.05 7.44,0.72 2.4,0.77 4.66,2.1 6.78,4.01 2.11,1.89 3.98,4.37 5.59,7.42 3.01,5.69 3.74,10.72 2.19,15.09 -1.55,4.37 -4.86,7.89 -9.93,10.57 -4.72,2.5 -9.13,3.1 -13.23,1.81 -4.1,-1.3 -7.76,-5 -10.99,-11.1 -0.91,-1.73 -1.83,-3.67 -2.74,-5.81 -0.91,-2.13 -1.68,-4.32 -2.33,-6.56l-7.39 3.91c-3.19,1.69 -5.2,4.1 -6.02,7.24 -0.82,3.14 -0.13,6.79 2.07,10.96zm37.11 -7.11c3.82,-2.02 6.07,-4.39 6.77,-7.1 0.69,-2.72 0.15,-5.74 -1.61,-9.08 -1.98,-3.74 -4.48,-6.15 -7.48,-7.23 -3,-1.07 -6.14,-0.74 -9.4,0.98l-8.85 4.68c0.45,1.19 0.94,2.41 1.48,3.68 0.54,1.28 1.07,2.48 1.58,3.63 0.52,1.15 1,2.18 1.44,3.1 0.44,0.92 0.81,1.66 1.1,2.21 1.13,2.15 2.34,3.76 3.61,4.81 1.28,1.06 2.54,1.73 3.79,1.99 1.25,0.28 2.52,0.22 3.79,-0.14 1.28,-0.36 2.53,-0.87 3.78,-1.53zm6.43 17.02c2.46,-1.7 5,-2.95 7.63,-3.76 2.63,-0.82 5.22,-1.07 7.76,-0.78 2.54,0.3 5.01,1.22 7.41,2.76 2.4,1.54 4.64,3.82 6.73,6.86 0.76,1.09 1.57,2.44 2.43,4.04 0.87,1.59 1.56,3.22 2.07,4.86 0.52,1.65 0.77,3.19 0.76,4.62 -0.01,1.44 -0.53,2.51 -1.56,3.22 -0.71,0.5 -1.5,0.66 -2.38,0.5 -0.87,-0.16 -1.56,-0.59 -2.04,-1.3 -0.22,-0.32 -0.39,-0.59 -0.49,-0.81 -0.1,-0.22 -0.2,-0.47 -0.32,-0.78l0.07 0.09c-0.2,-1.67 -0.49,-3.3 -0.88,-4.89 -0.39,-1.59 -1.2,-3.3 -2.44,-5.11 -2.94,-4.26 -6.11,-6.53 -9.5,-6.81 -3.39,-0.28 -7.02,0.91 -10.9,3.59l-15.11 10.43c-3.87,2.67 -6.27,5.63 -7.17,8.87 -0.91,3.25 0.11,7.01 3.06,11.26 1.29,1.88 2.61,3.28 3.96,4.2 1.35,0.93 2.72,1.77 4.11,2.53l-0.07 -0.09c0.64,0.51 1.07,0.93 1.29,1.25 0.49,0.71 0.64,1.52 0.44,2.41 -0.19,0.9 -0.65,1.59 -1.35,2.08 -1.04,0.71 -2.22,0.82 -3.57,0.32 -1.35,-0.5 -2.69,-1.29 -4,-2.39 -1.32,-1.09 -2.58,-2.31 -3.77,-3.7 -1.19,-1.37 -2.16,-2.61 -2.91,-3.7 -2.1,-3.04 -3.44,-5.95 -4.03,-8.74 -0.59,-2.79 -0.57,-5.43 0.05,-7.9 0.63,-2.48 1.77,-4.8 3.43,-6.94 1.67,-2.15 3.72,-4.07 6.18,-5.77l15.11 -10.43zm14.59 80.76c-0.85,0.7 -1.77,1.01 -2.76,0.91 -1,-0.09 -1.84,-0.56 -2.55,-1.41 -0.69,-0.85 -1.01,-1.78 -0.94,-2.81 0.07,-1.02 0.53,-1.89 1.37,-2.58l38.09 -31.51 -8.55 -10.34c-0.65,-0.78 -0.91,-1.66 -0.8,-2.62 0.13,-0.96 0.55,-1.75 1.27,-2.35 0.85,-0.7 1.74,-1 2.68,-0.91 0.94,0.08 1.73,0.52 2.39,1.31l22.06 26.67c0.65,0.78 0.91,1.63 0.8,2.54 -0.12,0.91 -0.6,1.71 -1.44,2.41 -0.72,0.6 -1.56,0.88 -2.5,0.85 -0.94,-0.03 -1.74,-0.44 -2.39,-1.22l-8.63 -10.43 -38.09 31.5zm31.76 40.37c-2.54,-2.46 -4.41,-5.01 -5.61,-7.66 -1.2,-2.65 -1.83,-5.27 -1.87,-7.88 -0.04,-2.61 0.48,-5.15 1.55,-7.6 1.07,-2.45 2.62,-4.72 4.65,-6.81l14.1 -14.54c2.02,-2.08 4.24,-3.69 6.67,-4.84 2.43,-1.15 4.95,-1.75 7.59,-1.83 2.64,-0.07 5.3,0.47 7.98,1.59 2.68,1.13 5.29,2.92 7.82,5.38 2.53,2.46 4.41,5.02 5.65,7.7 1.23,2.67 1.84,5.31 1.82,7.92 -0.02,2.61 -0.56,5.14 -1.63,7.6 -1.07,2.46 -2.61,4.72 -4.64,6.81l-14.1 14.53c-2.02,2.08 -4.24,3.7 -6.67,4.84 -2.43,1.15 -4.93,1.76 -7.51,1.82 -2.57,0.07 -5.22,-0.48 -7.93,-1.63 -2.71,-1.15 -5.33,-2.96 -7.87,-5.42zm4.84 -4.98c3.38,3.28 6.76,4.86 10.14,4.76 3.39,-0.11 6.56,-1.68 9.51,-4.72l14.18 -14.61c2.95,-3.04 4.44,-6.27 4.47,-9.68 0.04,-3.41 -1.64,-6.76 -5.02,-10.04 -3.38,-3.28 -6.77,-4.85 -10.19,-4.72 -3.41,0.13 -6.59,1.72 -9.54,4.76l-14.18 14.61c-2.95,3.04 -4.43,6.25 -4.43,9.64 -0,3.38 1.69,6.72 5.06,10zm42.8 46.89c-1.69,-1.28 -3.39,-2.85 -5.13,-4.72 -1.74,-1.87 -3.33,-3.85 -4.79,-5.94l-14.19 18.63c-0.62,0.81 -1.41,1.3 -2.37,1.45 -0.96,0.16 -1.91,-0.12 -2.85,-0.83 -1.06,-0.81 -1.63,-1.69 -1.7,-2.63 -0.07,-0.94 0.2,-1.81 0.82,-2.63l39.73 -52.15c1.24,-1.62 2.17,-3.06 2.78,-4.32 0.61,-1.26 0.93,-2.62 0.96,-4.08 -0.04,-0.72 0.18,-1.39 0.65,-2.02 0.62,-0.81 1.4,-1.25 2.34,-1.32 0.94,-0.07 1.76,0.15 2.44,0.68 0.62,0.48 1.06,1.2 1.3,2.18 0.24,0.98 0.33,2.03 0.26,3.15 3.32,0.56 6.52,1.32 9.58,2.28 3.07,0.96 5.79,2.34 8.16,4.15 2.44,1.85 4.23,3.89 5.4,6.11 1.17,2.22 1.77,4.58 1.8,7.07 0.03,2.48 -0.47,5.02 -1.49,7.59 -1.02,2.57 -2.54,5.17 -4.53,7.79l-9.56 12.55c-2.09,2.74 -4.26,5.08 -6.52,7.01 -2.26,1.93 -4.61,3.27 -7.06,4.01 -2.44,0.76 -5,0.83 -7.65,0.24 -2.65,-0.59 -5.45,-2 -8.39,-4.24zm-5.85 -16c1.11,2.03 2.53,4 4.24,5.89 1.71,1.9 3.22,3.35 4.54,4.34 3.74,2.86 7.21,3.77 10.41,2.76 3.19,-1.02 6.6,-3.9 10.21,-8.65l9.56 -12.55c3.04,-3.99 4.55,-7.65 4.52,-10.98 -0.03,-3.32 -1.76,-6.3 -5.19,-8.91 -1.69,-1.28 -3.78,-2.33 -6.26,-3.14 -2.49,-0.81 -5.07,-1.35 -7.73,-1.6 -0.4,0.78 -0.83,1.57 -1.28,2.35 -0.45,0.79 -0.96,1.56 -1.54,2.31l-21.47 28.18zm84.4 19.87c4.98,-7.9 3.59,-14.3 -4.18,-19.19 -1.86,-1.17 -3.5,-1.95 -4.93,-2.34 -1.43,-0.39 -2.93,-0.58 -4.52,-0.56 -0.46,-0.01 -0.92,-0.05 -1.39,-0.11 -0.48,-0.07 -0.98,-0.26 -1.5,-0.6 -0.73,-0.46 -1.09,-1.07 -1.06,-1.85 0.02,-0.77 0.19,-1.48 0.5,-2.12 0.54,-1.14 1.43,-1.83 2.69,-2.06 1.26,-0.22 2.69,-0.16 4.31,0.22 1.62,0.37 3.33,0.97 5.14,1.78 1.8,0.81 3.54,1.75 5.2,2.79 6.1,3.85 9.41,8.33 9.91,13.41 0.5,5.09 -1.3,10.89 -5.4,17.4l-14.19 22.5c-1.63,2.59 -1.55,4.45 0.24,5.58 0.2,0.12 0.36,0.2 0.48,0.23 0.12,0.03 0.24,0.09 0.38,0.17 0.73,0.46 1.1,1.09 1.11,1.88 0,0.8 -0.2,1.52 -0.62,2.19 -0.62,1 -1.46,1.44 -2.51,1.33 -1.05,-0.1 -2.04,-0.44 -2.97,-1.04 -1.52,-0.96 -2.61,-2.37 -3.26,-4.21 -0.65,-1.84 -0.89,-3.93 -0.73,-6.24 -6.69,1.35 -12.7,0.35 -18,-3 -5.04,-3.19 -7.95,-6.89 -8.71,-11.13 -0.76,-4.23 0.24,-8.54 3,-12.92l0.25 -0.4c6.11,-9.69 14.94,-10.9 26.49,-3.61 1.72,1.09 3.41,2.39 5.06,3.89 1.65,1.5 3.26,3.13 4.85,4.87l4.33 -6.87zm-17.68 3.33c-2.33,-1.47 -4.34,-2.4 -6.05,-2.78 -1.71,-0.38 -3.23,-0.39 -4.57,-0.03 -1.34,0.36 -2.5,1.02 -3.47,1.98 -0.98,0.96 -1.87,2.08 -2.66,3.33l-0.25 0.4c-1.63,2.59 -2.28,5.17 -1.95,7.74 0.32,2.57 2.37,5.05 6.16,7.43 2.33,1.46 4.7,2.41 7.13,2.82 2.43,0.42 5.13,0.4 8.09,-0.04l7.54 -11.95c-1.57,-1.92 -3.24,-3.65 -5.01,-5.18 -1.77,-1.54 -3.42,-2.78 -4.94,-3.74zm31.6 46.28c-0.45,1 -1.15,1.68 -2.09,2.02 -0.94,0.35 -1.91,0.3 -2.9,-0.16 -1,-0.46 -1.69,-1.16 -2.07,-2.11 -0.39,-0.95 -0.35,-1.93 0.11,-2.93l22.2 -48.6c0.46,-1 1.18,-1.68 2.17,-2.05 0.99,-0.37 1.98,-0.33 2.98,0.13 1,0.45 1.67,1.17 2,2.14 0.33,0.98 0.27,1.96 -0.19,2.96l-9.29 20.34 25.05 11.45 9.29 -20.34c0.45,-1 1.18,-1.69 2.17,-2.06 0.99,-0.37 1.98,-0.32 2.98,0.13 1,0.46 1.67,1.17 1.99,2.14 0.33,0.98 0.28,1.96 -0.18,2.96l-22.21 48.6c-0.46,1 -1.15,1.67 -2.09,2.02 -0.94,0.35 -1.91,0.3 -2.91,-0.16 -1,-0.45 -1.69,-1.16 -2.07,-2.11 -0.39,-0.95 -0.35,-1.93 0.1,-2.93l10.33 -22.58 -25.05 -11.45 -10.33 22.58zm108.85 35.14c-2.23,3.93 -4.45,7.56 -6.67,10.89 -2.22,3.32 -4.57,6.14 -7.04,8.45 -2.48,2.31 -5.16,3.97 -8.03,4.98 -2.87,1.02 -6.08,1.14 -9.6,0.36 -1.15,-0.25 -2.02,-0.78 -2.6,-1.6 -0.59,-0.81 -0.76,-1.75 -0.52,-2.82 0.18,-0.85 0.67,-1.56 1.44,-2.15 0.77,-0.59 1.71,-0.81 2.8,-0.65 2.09,0.38 3.94,0.44 5.56,0.2 1.62,-0.24 3.14,-0.85 4.56,-1.83 1.42,-0.97 2.82,-2.31 4.2,-4.02 1.38,-1.7 2.84,-3.87 4.38,-6.51l-6.81 -58.87c-0.12,-0.19 -0.17,-0.42 -0.15,-0.7 0.02,-0.27 0.05,-0.49 0.09,-0.64 0.23,-1.07 0.78,-1.84 1.65,-2.29 0.87,-0.45 1.83,-0.56 2.9,-0.33 0.69,0.15 1.29,0.53 1.8,1.12 0.52,0.59 0.85,1.28 1,2.03l5.14 51.14c1.81,-3.46 3.74,-7.06 5.82,-10.82 2.07,-3.76 4.18,-7.58 6.31,-11.45 2.13,-3.87 4.22,-7.71 6.27,-11.52 2.04,-3.8 4,-7.43 5.89,-10.87 0.52,-0.52 1.14,-0.97 1.87,-1.34 0.72,-0.36 1.43,-0.46 2.11,-0.31 0.92,0.2 1.69,0.73 2.3,1.59 0.62,0.86 0.8,1.86 0.54,3.01 -0.07,0.31 -0.14,0.53 -0.21,0.67 -0.07,0.15 -0.12,0.3 -0.15,0.45l-24.83 43.83zm67.68 -25.69c-0.5,3.58 -1.73,6.44 -3.69,8.58 -1.97,2.15 -4.97,3.29 -9.04,3.44l-0.02 0.12c4.17,1.37 7.03,3.43 8.59,6.18 1.56,2.76 2.06,6.11 1.51,10.07 -0.69,4.98 -2.86,8.72 -6.5,11.22 -3.63,2.51 -8.76,3.3 -15.36,2.38 -1.55,-0.22 -3.33,-0.54 -5.33,-0.97 -2,-0.44 -3.88,-1.02 -5.64,-1.74 -1.76,-0.72 -3.23,-1.56 -4.41,-2.52 -1.17,-0.95 -1.67,-2.06 -1.5,-3.3 0.11,-0.78 0.5,-1.49 1.19,-2.15 0.69,-0.66 1.77,-0.89 3.24,-0.68 0.24,0.04 0.39,0.09 0.45,0.19 1.47,0.83 3.3,1.74 5.51,2.72 2.2,0.98 4.78,1.67 7.73,2.08 3.81,0.53 6.85,0.14 9.13,-1.17 2.28,-1.31 3.69,-3.86 4.22,-7.67 0.13,-0.93 0.16,-1.98 0.08,-3.13 -0.08,-1.17 -0.55,-2.34 -1.41,-3.52 -0.87,-1.19 -2.24,-2.32 -4.11,-3.37 -1.87,-1.05 -4.54,-1.94 -8.01,-2.66 -1.15,-0.24 -2.25,-0.59 -3.3,-1.05 -1.05,-0.46 -1.46,-1.43 -1.26,-2.91 0.19,-1.32 0.8,-2.05 1.85,-2.18 1.05,-0.13 2.17,-0.2 3.35,-0.19 3.15,0.12 5.72,-0.12 7.7,-0.71 1.99,-0.6 3.54,-1.37 4.66,-2.32 1.13,-0.95 1.91,-2.01 2.35,-3.18 0.44,-1.17 0.72,-2.22 0.85,-3.15 0.42,-3.03 -0.19,-5.47 -1.83,-7.32 -1.65,-1.85 -4.57,-3.07 -8.76,-3.66 -1.48,-0.2 -2.82,-0.23 -4.03,-0.08 -1.21,0.15 -2.33,0.33 -3.35,0.54 -1.02,0.22 -1.95,0.4 -2.81,0.56 -0.85,0.16 -1.67,0.19 -2.44,0.07 -1.01,-0.14 -1.78,-0.58 -2.31,-1.32 -0.53,-0.75 -0.73,-1.56 -0.62,-2.41 0.16,-1.17 0.84,-2.04 2.04,-2.63 1.19,-0.59 2.61,-1 4.27,-1.25 1.66,-0.24 3.44,-0.33 5.33,-0.27 1.89,0.07 3.61,0.2 5.17,0.43 6.3,0.87 10.79,3.02 13.48,6.44 2.7,3.43 3.7,7.59 3.02,12.48zm11.07 -10.24c0.04,-7.54 1.91,-13.43 5.58,-17.68 3.67,-4.25 9.63,-6.79 17.87,-7.6 0.39,-0.08 0.78,-0.13 1.17,-0.17 0.4,-0.04 0.71,-0.05 0.94,-0.05 0.72,0 1.36,-0.03 1.95,-0.11 0.58,-0.08 1.25,-0.21 2,-0.4 0.74,-0.19 1.65,-0.48 2.71,-0.87 1.06,-0.39 2.42,-0.96 4.07,-1.74 0.16,-0.08 0.35,-0.15 0.59,-0.23 0.24,-0.08 0.47,-0.12 0.7,-0.11 0.95,0 1.73,0.36 2.35,1.07 0.63,0.71 0.94,1.54 0.93,2.48 -0.01,1.41 -0.66,2.53 -1.96,3.35 -1.3,0.81 -2.85,1.47 -4.66,1.97 -1.8,0.5 -3.71,0.87 -5.71,1.08 -2,0.23 -3.75,0.37 -5.24,0.44 -1.41,0.15 -3,0.39 -4.77,0.73 -1.77,0.34 -3.46,1.1 -5.07,2.26 -1.62,1.17 -2.98,2.93 -4.09,5.27 -1.11,2.35 -1.68,5.56 -1.7,9.64l-0.05 9.07c2.13,-2.73 4.52,-4.83 7.15,-6.31 2.64,-1.47 5.61,-2.2 8.9,-2.18 3.14,0.02 5.92,0.56 8.35,1.64 2.43,1.07 4.5,2.56 6.21,4.45 1.72,1.89 3.02,4.1 3.91,6.61 0.89,2.52 1.32,5.23 1.3,8.13l-0.1 16.72c-0.02,2.9 -0.5,5.61 -1.46,8.11 -0.95,2.5 -2.35,4.68 -4.16,6.51 -1.81,1.83 -4.1,3.28 -6.85,4.31 -2.76,1.04 -5.9,1.56 -9.43,1.54 -3.53,-0.02 -6.65,-0.57 -9.35,-1.65 -2.7,-1.08 -4.97,-2.54 -6.8,-4.39 -1.83,-1.86 -3.21,-4.04 -4.14,-6.56 -0.93,-2.51 -1.38,-5.22 -1.37,-8.13l0.22 -37.19zm21.47 50.98c4.71,0.03 8.25,-1.17 10.61,-3.59 2.37,-2.42 3.57,-5.75 3.59,-9.98l0.11 -16.83c0.02,-4.24 -1.01,-7.6 -3.12,-10.08 -2.11,-2.48 -5.51,-3.74 -10.22,-3.77 -4.63,-0.03 -8.22,1.13 -10.79,3.46 -2.56,2.34 -3.94,5.55 -4.12,9.62l-0.1 17.42c-0.03,4.24 1.13,7.58 3.46,10.03 2.35,2.44 5.87,3.68 10.57,3.71zm59.18 0.1c2.74,-0.1 5.05,-0.52 6.9,-1.25 1.86,-0.74 3.83,-1.62 5.91,-2.64 0.15,-0.08 0.34,-0.17 0.58,-0.26 0.23,-0.09 0.46,-0.13 0.7,-0.14 0.94,-0.04 1.74,0.27 2.39,0.91 0.65,0.65 0.99,1.39 1.02,2.25 0.05,1.34 -0.59,2.48 -1.93,3.43 -1.34,0.95 -2.96,1.72 -4.86,2.3 -1.91,0.58 -3.93,1.03 -6.07,1.35 -2.15,0.31 -4,0.5 -5.57,0.56 -3.29,0.12 -6.25,-0.26 -8.88,-1.14 -2.62,-0.89 -4.85,-2.15 -6.67,-3.81 -1.83,-1.66 -3.24,-3.63 -4.23,-5.91 -0.99,-2.28 -1.53,-4.79 -1.64,-7.54l-0.85 -22.58c-0.1,-2.82 0.27,-5.44 1.13,-7.87 0.85,-2.43 2.14,-4.56 3.88,-6.39 1.74,-1.83 3.92,-3.29 6.55,-4.37 2.63,-1.08 5.67,-1.69 9.12,-1.81 6.43,-0.24 11.28,1.28 14.54,4.57 3.27,3.29 5.01,7.8 5.22,13.53 0.2,5.33 -1.17,9.57 -4.11,12.69 -2.94,3.14 -7.87,4.83 -14.77,5.09 -1.96,0.07 -4.1,0.06 -6.43,-0.05 -2.31,-0.11 -4.62,-0.36 -6.91,-0.74l0.31 8.35c0.13,3.61 1.44,6.46 3.91,8.57 2.47,2.11 6.06,3.07 10.77,2.89zm9.7 -36.52c-0.16,-4.31 -1.31,-7.37 -3.46,-9.17 -2.15,-1.8 -5.1,-2.64 -8.87,-2.49 -4.23,0.15 -7.48,1.36 -9.75,3.6 -2.27,2.24 -3.34,5.21 -3.2,8.9l0.38 9.99c1.26,0.11 2.57,0.2 3.95,0.26 1.37,0.07 2.69,0.12 3.95,0.15 1.26,0.03 2.39,0.04 3.41,0.04 1.02,0 1.85,-0 2.47,-0.03 2.43,-0.09 4.4,-0.48 5.9,-1.16 1.51,-0.69 2.66,-1.54 3.44,-2.55 0.79,-1.01 1.29,-2.17 1.52,-3.47 0.23,-1.3 0.31,-2.66 0.26,-4.07zm34.39 33.91c0.19,1.08 -0.03,2.04 -0.64,2.86 -0.62,0.82 -1.43,1.32 -2.43,1.49 -1.09,0.19 -2.06,-0.01 -2.91,-0.57 -0.86,-0.57 -1.38,-1.4 -1.57,-2.48l-9.09 -52.65c-0.19,-1.09 0.02,-2.06 0.63,-2.92 0.61,-0.86 1.45,-1.39 2.53,-1.57 1.01,-0.17 1.94,0.04 2.8,0.65 0.86,0.61 1.38,1.45 1.57,2.54l3.81 22.04 8.7 -1.51 11.65 -26.62c0.56,-1.37 1.49,-2.17 2.81,-2.39 1,-0.18 1.88,-0.05 2.63,0.38 0.75,0.43 1.22,1.15 1.39,2.15 0.15,0.85 0.08,1.62 -0.2,2.31l-12.42 27.7 20.97 21.82c0.2,0.21 0.41,0.52 0.65,0.96 0.23,0.43 0.38,0.81 0.43,1.12 0.23,0.92 0.03,1.71 -0.61,2.37 -0.64,0.67 -1.46,1.09 -2.47,1.26 -1.4,0.24 -2.54,-0.16 -3.43,-1.2l-22.09 -23.42 -6.95 1.2 4.22 24.47zm33.76 -43.24c-0.73,-2.9 -1.02,-5.72 -0.87,-8.46 0.16,-2.75 0.81,-5.27 1.98,-7.54 1.16,-2.28 2.88,-4.28 5.16,-5.99 2.28,-1.71 5.2,-3.02 8.78,-3.93 1.28,-0.33 2.83,-0.62 4.63,-0.87 1.8,-0.25 3.56,-0.33 5.28,-0.24 1.73,0.09 3.26,0.39 4.6,0.9 1.34,0.51 2.17,1.37 2.48,2.58 0.21,0.84 0.09,1.64 -0.36,2.41 -0.46,0.76 -1.1,1.25 -1.94,1.46 -0.38,0.1 -0.69,0.16 -0.93,0.17 -0.24,0.02 -0.52,0.03 -0.84,0.03l0.11 -0.03c-1.64,-0.39 -3.27,-0.69 -4.9,-0.89 -1.63,-0.19 -3.5,-0.02 -5.63,0.52 -5.02,1.28 -8.25,3.45 -9.7,6.53 -1.45,3.08 -1.59,6.9 -0.43,11.46l4.51 17.8c1.15,4.56 3.09,7.84 5.82,9.81 2.73,1.98 6.61,2.33 11.63,1.06 2.2,-0.56 3.98,-1.31 5.31,-2.26 1.34,-0.94 2.61,-1.94 3.8,-2.97l-0.11 0.03c0.7,-0.42 1.24,-0.68 1.62,-0.77 0.84,-0.21 1.64,-0.07 2.42,0.42 0.77,0.49 1.26,1.16 1.47,1.99 0.31,1.22 -0,2.37 -0.94,3.46 -0.94,1.09 -2.15,2.07 -3.63,2.93 -1.48,0.86 -3.07,1.61 -4.77,2.24 -1.7,0.63 -3.2,1.12 -4.49,1.44 -3.58,0.91 -6.78,1.15 -9.59,0.73 -2.82,-0.42 -5.28,-1.35 -7.39,-2.8 -2.1,-1.45 -3.87,-3.33 -5.31,-5.63 -1.44,-2.31 -2.52,-4.91 -3.25,-7.8l-4.52 -17.8zm67.64 18.08c0.41,1.02 0.39,2 -0.04,2.93 -0.44,0.93 -1.13,1.58 -2.08,1.96 -1.02,0.41 -2.01,0.41 -2.96,0.03 -0.95,-0.38 -1.63,-1.09 -2.04,-2.11l-19.57 -49.71c-0.41,-1.03 -0.4,-2.02 0.02,-2.99 0.43,-0.96 1.15,-1.65 2.17,-2.05 0.95,-0.37 1.9,-0.36 2.87,0.07 0.97,0.42 1.65,1.14 2.06,2.17l8.19 20.81 8.22 -3.24 6.01 -28.43c0.27,-1.45 1.02,-2.43 2.27,-2.92 0.94,-0.37 1.84,-0.43 2.66,-0.16 0.82,0.27 1.42,0.87 1.79,1.83 0.32,0.8 0.41,1.57 0.27,2.3l-6.54 29.65 24.96 17.11c0.24,0.16 0.51,0.44 0.83,0.82 0.32,0.38 0.54,0.71 0.65,1.01 0.42,0.85 0.38,1.66 -0.12,2.44 -0.49,0.78 -1.21,1.37 -2.15,1.74 -1.32,0.52 -2.52,0.36 -3.61,-0.48l-26.37 -18.46 -6.57 2.59 9.1 23.11zm61.23 -23.13c-3.15,1.6 -6.17,2.54 -9.06,2.83 -2.9,0.28 -5.58,0.02 -8.06,-0.78 -2.48,-0.81 -4.71,-2.11 -6.69,-3.93 -1.98,-1.81 -3.63,-4.01 -4.94,-6.59l-9.19 -18.04c-1.32,-2.59 -2.12,-5.21 -2.43,-7.88 -0.3,-2.66 -0.06,-5.26 0.74,-7.77 0.78,-2.52 2.15,-4.86 4.07,-7.03 1.93,-2.17 4.47,-4.06 7.62,-5.67 3.15,-1.6 6.18,-2.56 9.11,-2.86 2.93,-0.3 5.62,-0.02 8.08,0.84 2.47,0.85 4.69,2.19 6.67,4 1.98,1.81 3.63,4.01 4.94,6.59l9.19 18.04c1.31,2.59 2.13,5.21 2.43,7.88 0.3,2.66 0.06,5.23 -0.71,7.69 -0.78,2.46 -2.14,4.79 -4.1,6.98 -1.97,2.19 -4.53,4.09 -7.67,5.69zm-3.15 -6.19c4.19,-2.14 6.79,-4.83 7.78,-8.06 1,-3.24 0.53,-6.74 -1.39,-10.52l-9.24 -18.15c-1.92,-3.78 -4.5,-6.22 -7.71,-7.36 -3.22,-1.14 -6.93,-0.63 -11.12,1.5 -4.2,2.14 -6.79,4.84 -7.76,8.12 -0.97,3.27 -0.5,6.79 1.43,10.56l9.24 18.15c1.92,3.78 4.49,6.21 7.68,7.31 3.2,1.1 6.91,0.58 11.1,-1.56zm42.61 -16.29c-1.1,0.75 -2.23,1 -3.37,0.79 -1.14,-0.23 -2.07,-0.86 -2.77,-1.9l-29.6 -43.92c-0.61,-0.91 -0.85,-1.9 -0.73,-2.98 0.12,-1.07 0.64,-1.92 1.56,-2.54 0.91,-0.61 1.9,-0.78 2.98,-0.52 1.08,0.27 1.93,0.86 2.55,1.76l24.6 36.5 -1.81 -53.85c-0.07,-1.94 0.67,-3.44 2.23,-4.49 0.97,-0.66 2.02,-0.87 3.13,-0.62 1.11,0.24 2.04,0.92 2.78,2.02l29.6 43.92c0.62,0.91 0.83,1.9 0.66,2.97 -0.19,1.07 -0.7,1.89 -1.54,2.46 -0.91,0.62 -1.9,0.81 -2.96,0.57 -1.06,-0.24 -1.89,-0.81 -2.51,-1.72l-24.54 -36.41 2.01 53.72c-0.04,0.78 -0.25,1.56 -0.63,2.34 -0.38,0.77 -0.93,1.4 -1.64,1.89zm-27.43 -72.5c1.17,-0.79 2.13,-1.93 2.87,-3.43 0.74,-1.5 1.14,-3.4 1.19,-5.7 0.04,-1.35 0.54,-2.35 1.52,-3.01 0.65,-0.44 1.35,-0.6 2.08,-0.48 0.74,0.11 1.3,0.81 1.68,2.06 0.5,1.46 0.67,2.93 0.5,4.42 -0.18,1.49 -0.59,2.91 -1.25,4.25 -0.66,1.34 -1.48,2.58 -2.47,3.72 -0.98,1.14 -1.99,2.06 -3.04,2.76 -1.04,0.7 -2.29,1.3 -3.74,1.81 -1.46,0.51 -2.96,0.84 -4.52,0.99 -1.56,0.15 -3.06,0.02 -4.51,-0.37 -1.45,-0.39 -2.72,-1.12 -3.81,-2.18 -0.81,-0.78 -1.12,-1.59 -0.93,-2.43 0.19,-0.83 0.54,-1.43 1.06,-1.78 1.04,-0.7 2.13,-0.77 3.26,-0.21 2.22,0.77 4.14,1.11 5.74,1.03 1.59,-0.08 3.05,-0.57 4.35,-1.44zm108.26 5.19c0.79,0.76 1.18,1.66 1.17,2.69 -0.01,1.03 -0.37,1.91 -1.07,2.64 -0.76,0.79 -1.66,1.21 -2.69,1.25 -1.02,0.05 -1.93,-0.31 -2.72,-1.07l-38.43 -37.13c-0.79,-0.76 -1.19,-1.67 -1.22,-2.72 -0.02,-1.06 0.36,-1.98 1.12,-2.77 0.71,-0.74 1.59,-1.11 2.64,-1.13 1.06,-0.02 1.98,0.35 2.77,1.12l16.08 15.54 6.13 -6.35 -6.31 -28.36c-0.36,-1.44 -0.07,-2.63 0.85,-3.6 0.71,-0.73 1.49,-1.15 2.35,-1.24 0.86,-0.1 1.65,0.2 2.39,0.91 0.62,0.6 1.02,1.26 1.2,1.98l6.33 29.69 29.81 5.23c0.28,0.05 0.65,0.19 1.09,0.4 0.44,0.21 0.79,0.43 1.02,0.65 0.73,0.6 1.04,1.36 0.91,2.28 -0.13,0.91 -0.54,1.74 -1.25,2.47 -0.98,1.02 -2.14,1.37 -3.48,1.06l-31.64 -5.87 -4.91 5.08 17.85 17.26zm44.66 -54.81c2.5,3.76 4.73,7.38 6.7,10.86 1.97,3.49 3.42,6.85 4.36,10.1 0.94,3.25 1.22,6.39 0.83,9.41 -0.39,3.02 -1.73,5.94 -4.02,8.73 -0.74,0.91 -1.61,1.44 -2.59,1.6 -0.99,0.15 -1.91,-0.11 -2.76,-0.81 -0.67,-0.55 -1.09,-1.3 -1.28,-2.26 -0.18,-0.96 0.04,-1.89 0.68,-2.78 1.28,-1.69 2.18,-3.32 2.69,-4.88 0.51,-1.56 0.66,-3.19 0.43,-4.9 -0.24,-1.7 -0.8,-3.56 -1.69,-5.56 -0.9,-2 -2.18,-4.28 -3.83,-6.85l-55.61 -20.48c-0.22,0.02 -0.45,-0.04 -0.69,-0.18 -0.23,-0.14 -0.42,-0.27 -0.54,-0.37 -0.85,-0.7 -1.29,-1.53 -1.3,-2.5 -0.01,-0.98 0.33,-1.89 1.02,-2.74 0.45,-0.55 1.05,-0.92 1.81,-1.1 0.76,-0.19 1.52,-0.18 2.26,0.02l47.96 18.49c-2.27,-3.18 -4.62,-6.53 -7.04,-10.08 -2.42,-3.56 -4.88,-7.15 -7.37,-10.8 -2.49,-3.65 -4.97,-7.25 -7.45,-10.79 -2.48,-3.54 -4.83,-6.93 -7.05,-10.16 -0.24,-0.7 -0.35,-1.45 -0.35,-2.27 0,-0.81 0.23,-1.48 0.67,-2.03 0.59,-0.73 1.41,-1.17 2.46,-1.33 1.04,-0.16 2.02,0.13 2.93,0.87 0.24,0.2 0.41,0.37 0.51,0.5 0.09,0.13 0.2,0.24 0.33,0.34l27.91 41.93zm-24.49 -43.95c-0.5,0.07 -1.09,-0.1 -1.76,-0.5 -0.94,-0.56 -1.5,-1.36 -1.67,-2.37 -0.17,-1.01 -0.04,-1.89 0.41,-2.63 0.48,-0.81 1.06,-1.31 1.73,-1.51 0.67,-0.2 1.51,-0.31 2.53,-0.33l24.93 -0.85 -11.02 -22.37c-0.46,-0.91 -0.76,-1.72 -0.9,-2.39 -0.15,-0.68 0.03,-1.42 0.51,-2.23 0.44,-0.74 1.15,-1.28 2.13,-1.61 0.98,-0.33 1.93,-0.21 2.87,0.35 0.67,0.41 1.1,0.84 1.28,1.31l12.56 26.45 31.06 -1.7c0.46,0 0.96,0.16 1.5,0.48 0.94,0.57 1.56,1.37 1.85,2.42 0.29,1.04 0.15,2.03 -0.41,2.97 -0.48,0.81 -1.04,1.32 -1.67,1.54 -0.64,0.22 -1.52,0.35 -2.65,0.41l-26.52 0.99 12.05 24.78c0.67,1.32 0.69,2.52 0.04,3.6 -0.56,0.94 -1.35,1.56 -2.36,1.87 -1.01,0.31 -1.98,0.19 -2.93,-0.38 -0.41,-0.24 -0.76,-0.64 -1.07,-1.19l-13.24 -28.51 -29.24 1.42zm79.2 -30.1c0.98,0.48 1.64,1.2 1.96,2.15 0.32,0.94 0.24,1.91 -0.24,2.9 -0.48,0.99 -1.21,1.65 -2.17,2.01 -0.96,0.36 -1.94,0.3 -2.92,-0.19l-47.95 -23.57c-0.99,-0.48 -1.65,-1.23 -1.99,-2.23 -0.35,-1 -0.27,-1.98 0.22,-2.97 0.48,-0.98 1.21,-1.63 2.19,-1.94 0.98,-0.3 1.96,-0.22 2.95,0.27l20.07 9.86 12.15 -24.72 -20.07 -9.86c-0.99,-0.48 -1.65,-1.22 -1.99,-2.23 -0.34,-1 -0.27,-1.98 0.22,-2.97 0.48,-0.98 1.21,-1.63 2.19,-1.94 0.99,-0.31 1.97,-0.21 2.95,0.27l47.95 23.57c0.98,0.48 1.64,1.2 1.96,2.15 0.32,0.94 0.24,1.91 -0.24,2.89 -0.48,0.98 -1.21,1.66 -2.17,2.02 -0.96,0.36 -1.94,0.3 -2.92,-0.19l-22.28 -10.96 -12.15 24.72 22.28 10.96zm29.81 -54.43c-0.46,1.25 -1.22,2.12 -2.28,2.61 -1.06,0.49 -2.18,0.52 -3.36,0.09l-49.72 -18.25c-1.03,-0.38 -1.81,-1.04 -2.34,-1.99 -0.53,-0.94 -0.61,-1.93 -0.23,-2.97 0.38,-1.03 1.08,-1.75 2.11,-2.17 1.04,-0.42 2.06,-0.44 3.09,-0.06l41.33 15.16 -33.02 -42.58c-1.2,-1.52 -1.47,-3.17 -0.82,-4.94 0.4,-1.1 1.13,-1.88 2.17,-2.33 1.05,-0.46 2.2,-0.45 3.45,0.01l49.72 18.24c1.03,0.38 1.79,1.05 2.26,2.02 0.48,0.97 0.55,1.93 0.2,2.89 -0.38,1.04 -1.06,1.76 -2.06,2.19 -1,0.43 -2,0.45 -3.04,0.07l-41.21 -15.12 33.11 42.35c0.43,0.66 0.71,1.42 0.86,2.26 0.15,0.85 0.07,1.68 -0.22,2.49zm298.3 -496.01c65.65,20.92 98.48,62.65 98.48,125.29 0,27.15 -6.46,51.41 -19.36,72.66 -13.02,21.36 -31.16,36.83 -54.63,46.62 -23.48,9.79 -46.96,14.69 -70.43,14.69l-100.03 0c-3.89,0 -5.9,-2.12 -5.9,-6.23l0 -15.91c0,-4.56 2.79,-8.9 8.24,-13.02 8.35,-5.89 12.46,-14.35 12.46,-25.48l0 -385.76c0,-11.57 -4.11,-20.03 -12.46,-25.48 -5.45,-3.45 -8.24,-7.79 -8.24,-13.02l0 -15.02c0,-4.56 2.67,-6.79 8.13,-6.79l104.04 0c38.72,0 69.87,11.46 93.46,34.39 23.59,22.92 35.38,52.52 35.38,88.68 0,25.7 -6.68,49.74 -20.03,72.21 -13.35,22.48 -36.38,39.83 -69.1,52.19zm-55.75 -207.4l0 188.93c46.74,0 70.11,-31.49 70.11,-94.47 0,-23.48 -3.23,-42.72 -9.57,-57.86 -6.34,-15.02 -14.13,-24.92 -23.36,-29.59 -9.24,-4.67 -21.59,-7.01 -37.17,-7.01zm0 226.31l0 201.62c18.26,-0.67 32.83,-3.89 43.62,-9.79 10.79,-5.9 19.03,-15.91 24.7,-30.16 5.67,-14.13 8.46,-33.37 8.46,-57.41 0,-34.82 -5.89,-60.75 -17.81,-78 -11.9,-17.35 -31.49,-26.04 -58.97,-26.26zm411.37 240.35l-223.76 0c-5.23,0 -7.9,-2.56 -7.9,-7.79l0 -14.35c0,-4.56 3.67,-9.57 11.02,-15.02 6.45,-5 9.68,-12.8 9.68,-23.48l0 -385.76c0,-11.35 -4.12,-19.81 -12.35,-25.48 -5.56,-3.68 -8.35,-8.01 -8.35,-13.02l0 -15.58c0,-4.11 2.67,-6.23 7.9,-6.23l167.9 0c3.11,0 8.91,-0.33 17.36,-1 7.56,-0.67 12.35,-1 14.35,-1 7.23,0 10.8,2 10.8,5.9l0 95.8c0,5.01 -0.45,8.02 -1.44,9.01 -1,1 -3.79,1.45 -8.35,1.45l-12.13 0c-5.23,0 -8.12,-3 -8.79,-9.12 -2.34,-16.92 -6.68,-31.49 -12.91,-43.51 -6.23,-12.13 -18.69,-18.13 -37.39,-18.13l-41.17 0 0 184.26 15.02 0c9.35,0 15.69,-1.78 19.14,-5.34 3.45,-3.56 7.9,-14.8 13.02,-33.72 1.78,-6.01 3,-9.35 3.67,-10.02 0.56,-0.67 2.56,-1 5.79,-1l14.35 0c5.68,0 8.46,2.67 8.46,8.12l0 122.29c0,5.23 -2.56,7.78 -7.79,7.78l-15.02 0c-3.23,0 -5.56,-0.78 -6.8,-2.44 -1.33,-1.56 -3.11,-6.56 -5.23,-14.91 -3.89,-15.13 -8.12,-24.37 -12.68,-27.71 -4.56,-3.33 -10.91,-5 -18.92,-5l-13.02 0 0 206.29 44.06 0c16.35,0 27.7,-3.89 33.93,-11.57 6.34,-7.78 14.24,-28.93 23.59,-63.42 2.11,-7.9 6.12,-11.79 11.68,-11.79l14.13 0c5.45,0 8.13,2.67 8.13,8.12l0 117.39zm258.7 -124.3c-2.23,40.5 -12.13,72.44 -29.82,95.92 -17.8,23.37 -40.72,35.05 -69.1,35.05 -40.39,0 -72.88,-22.03 -97.36,-65.98 -24.48,-44.06 -36.72,-108.49 -36.72,-193.28 0,-83.67 11.91,-148.21 35.72,-193.5 23.81,-45.28 54.52,-67.98 91.91,-67.98 15.47,0 32.49,5.23 51.3,15.8 2.56,1.33 4.57,2 5.9,2 1.44,0 3.67,-1.33 6.45,-4.11 1.56,-2.23 3.45,-3.44 5.56,-3.67l18.59 0c4.11,0 6.23,3.11 6.23,9.46l0 106.93c0,6.12 -2.11,9.12 -6.23,9.12l-14.35 0c-4.57,0 -7.57,-1.22 -9.24,-3.56 -1.67,-2.45 -3.89,-8.91 -6.67,-19.47 -13.24,-50.07 -30.82,-75.11 -52.52,-75.11 -12.8,0 -22.7,6.57 -29.71,19.59 -6.9,13.02 -12.24,37.72 -15.91,73.99 -3.67,36.39 -5.56,73.11 -5.56,110.27 0,81.34 4.56,140.98 13.69,179.03 9.24,38.06 25.15,57.08 48.07,57.08 27.48,0 45.39,-30.48 53.96,-91.46l35.83 3.89zm266.82 -322.11l0 385.76c0,11.35 4.11,19.81 12.46,25.48 5.45,3.68 8.24,8.02 8.24,13.02l0 14.69c0,5 -2.78,7.46 -8.46,7.46l-101.25 0c-4.78,0 -7.12,-2.23 -7.12,-6.8l0 -15.35c0,-4.78 2.67,-9.13 8.12,-13.02 8.35,-5.89 12.57,-14.35 12.57,-25.37l0 -186.49 -75.44 0 0 186.49c0,11.24 4.12,19.69 12.24,25.37 5.67,3.68 8.46,8.02 8.46,13.02l0 14.69c0,5 -2.78,7.46 -8.46,7.46l-101.25 0c-4.78,0 -7.12,-2.34 -7.12,-6.9l0 -15.24c0,-4.78 2.79,-9.13 8.45,-13.02 8.13,-5.89 12.24,-14.35 12.24,-25.48l0 -385.76c0,-11.13 -4.12,-19.47 -12.24,-25.15 -5.67,-3.68 -8.45,-8.13 -8.45,-13.35l0 -14.35c0,-5 2.79,-7.46 8.45,-7.46l101.26 0c4.78,0 7.12,2.34 7.12,6.9l0 15.02c0,5.01 -2.78,9.46 -8.46,13.35 -8.12,5.9 -12.24,14.24 -12.24,25.15l0 153.88 75.44 0 0 -153.88c0,-11.13 -4.12,-19.47 -12.46,-25.15 -5.46,-3.68 -8.24,-8.13 -8.24,-13.35l0 -14.46c0,-5 2.78,-7.46 8.45,-7.46l101.26 0c4.78,0 7.12,2.23 7.12,6.79l0 15.02c0,5.01 -2.67,9.46 -8.12,13.35 -8.35,5.89 -12.57,14.24 -12.57,25.15zm138.31 138.74l67.32 -138.74c2.56,-5.23 3.89,-10.24 3.89,-15.02 0,-3.22 -2.78,-6.79 -8.13,-10.79 -5.56,-3.89 -8.34,-8.13 -8.34,-12.69l0 -13.02c0,-5.89 2.78,-8.79 8.45,-8.79l96.25 0c6.79,0 10.12,2.9 10.12,8.79l0 13.02c0,4.11 -0.78,7.01 -2.45,8.68 -1.67,1.56 -5.45,3.9 -11.57,7.01 -22.69,10.57 -39.39,26.82 -50.07,48.52l-51.07 103.03 81.56 237.56c6.12,18.02 16.69,32.49 31.82,43.28 7.46,5.45 11.13,11.02 11.13,16.69l0 10.68c0,6.34 -3.33,9.46 -10.13,9.46l-108.26 0c-7.01,0 -10.46,-3.23 -10.46,-9.8l0 -10.12c0,-5.56 2.22,-10.24 6.79,-14.02 8.23,-6.23 12.35,-11.68 12.35,-16.24 0,-3 -0.67,-6.46 -1.89,-10.13l-67.32 -194.16 0 193.83c0,11.13 4.11,19.59 12.24,25.48 5.67,3.89 8.46,8.24 8.46,13.02l0 14.69c0,5 -2.78,7.46 -8.46,7.46l-101.25 0c-4.79,0 -7.12,-2.34 -7.12,-6.9l0 -15.24c0,-5 2.78,-9.34 8.45,-13.02 8.12,-5.67 12.24,-14.13 12.24,-25.48l0 -385.76c0,-11.13 -4.12,-19.47 -12.24,-25.15 -5.67,-3.9 -8.45,-8.35 -8.45,-13.35l0 -14.35c0,-5 2.78,-7.46 8.45,-7.46l101.26 0c4.78,0 7.12,2.23 7.12,6.79l0 15.02c0,5.01 -2.78,9.46 -8.46,13.35 -8.13,5.67 -12.24,14.02 -12.24,25.15l0 138.74zm288.19 -134.96l-3.12 -22.14c-1.11,-7.12 -1.56,-11.13 -1.56,-12.02 0,-2.23 1.56,-4.01 4.9,-5.57l54.96 -25.7c0.89,-0.44 1.78,-0.67 2.9,-0.67 3,0 5,2 5.9,5.9l89.24 441.85c1.44,8.12 3.33,13.8 5.67,17.35 2.22,3.45 6.68,7.12 13.24,11.02 5.01,3 7.45,6.56 7.45,10.46l0 14.35c0,5.23 -2,7.79 -6.12,7.79l-108.59 0c-5.9,0 -8.79,-2.56 -8.79,-7.79l0 -14.35c0,-5 3.45,-9.24 10.34,-12.8 8.35,-4.56 12.58,-10.68 12.58,-18.47 0,-2.23 -0.22,-4.78 -0.67,-7.57l-13.8 -67.88 -85.23 0 -13.46 65.31c-0.67,2.89 -1,4.89 -1,6.23 0,6.45 5.01,13.69 14.91,21.48 6.34,5.23 9.57,9.79 9.57,13.69l0 14.35c0,5.23 -3.11,7.79 -9.45,7.79l-68.54 0c-7.68,0 -11.46,-2.56 -11.46,-7.79l0 -17.02c0,-4.57 2.45,-8.24 7.23,-11.02 8.9,-5.45 14.69,-14.69 17.58,-27.71l75.33 -379.09zm22.36 104.7l-34.38 167.02 68.09 0 -33.72 -167.02zm-2120.55 582.81c26.41,14.64 40.96,-19.8 68.11,-22.7 -14.04,-16.71 -33.55,-19.6 -58.06,-9.91 21.41,-38.5 -0.58,-48.56 -10.06,-69.19 -9.48,20.63 -31.48,30.69 -10.06,69.19 -24.5,-9.69 -44.02,-6.8 -58.06,9.91 27.15,2.89 41.7,37.33 68.12,22.7zm0 -365.89c23.35,1.3 38.44,21 33.62,45.52 25.61,-18.72 77.8,8.37 44.74,47.93 38.81,-0.29 46.79,35.93 31.58,58.09 -9.96,14.52 -31.49,18.08 -50.88,20.65 -21.76,2.88 -42.99,5.67 -49.34,22.57 15.97,62.08 88.62,112.77 136.25,31.42 10.58,18.44 7.96,36.88 -7.86,55.32 21.73,1.33 38.83,-4.39 51.96,-16.13 17.57,-15.71 32.46,-44.51 19.25,-67.25 -10.26,-17.68 -35,-25.45 -65.06,-7.8 5.18,33.12 -43.78,25.37 -63.17,62.92 -3.17,-6.33 -2.08,-12.9 2.04,-18.52 -3.74,3.73 -9.24,5.9 -17.07,5.97 1.83,-9.81 5.56,-15.85 10.59,-19.29 -12.82,-0.71 -16.72,-7.37 -14.52,-18.1 27.15,13.43 31.25,-45.53 73.25,-24.76 3.31,-5.6 7.09,-10.96 13.15,-15.2 -5.18,-9.22 -5.41,-18.66 0.35,-28.34 8.3,18.76 28.24,23.41 46.59,30.41 -0.81,-1.78 -1.26,-3.74 -1.26,-5.82 0,-7.78 6.31,-14.09 14.09,-14.09 7.78,0 14.08,6.31 14.08,14.09 0,6.54 -4.46,12.04 -10.52,13.63 28.22,17.76 25.86,67.78 8.47,91.99 -50.24,69.93 -188.95,32.42 -220.33,-43.74 -31.38,76.16 -170.1,113.67 -220.33,43.74 -17.39,-24.21 -19.75,-74.23 8.47,-91.99 -6.05,-1.58 -10.52,-7.08 -10.52,-13.63 0,-7.78 6.31,-14.09 14.08,-14.09 7.78,0 14.09,6.31 14.09,14.09 0,2.08 -0.44,4.05 -1.25,5.82 18.35,-7 38.29,-11.66 46.58,-30.41 5.75,9.69 5.52,19.12 0.35,28.34 6.05,4.23 9.83,9.59 13.15,15.2 42,-20.77 46.1,38.19 73.25,24.76 2.2,10.72 -1.69,17.39 -14.52,18.1 5.02,3.44 8.76,9.48 10.59,19.29 -7.83,-0.07 -13.33,-2.24 -17.07,-5.97 4.13,5.62 5.22,12.19 2.04,18.52 -19.39,-37.55 -68.35,-29.8 -63.17,-62.92 -30.06,-17.65 -54.8,-9.89 -65.06,7.8 -13.21,22.74 1.68,51.54 19.25,67.25 13.13,11.74 30.23,17.46 51.96,16.13 -15.82,-18.44 -18.44,-36.88 -7.85,-55.32 41.67,71.18 102.5,41.27 127.76,-8.91 3.61,-7.17 6.49,-14.76 8.48,-22.52 -2.23,-5.94 -6.3,-10.13 -11.59,-13.21 -9.75,-5.66 -23.64,-7.49 -37.75,-9.36 -26.97,-3.57 -58.11,-9.07 -56.43,-43.31 0.43,-8.78 3.56,-17.29 9.53,-22.98 6.59,-6.26 16.36,-8.36 28.97,-6.75 -36.26,-46.39 17.98,-76.89 43.37,-53.62 -4.82,-24.52 10.27,-44.22 33.63,-45.52zm0 162.47c26.41,14.64 40.96,-19.8 68.11,-22.7 -14.04,-16.71 -33.55,-19.6 -58.06,-9.91 21.41,-38.5 -0.58,-48.55 -10.06,-69.19 -9.48,20.64 -31.48,30.69 -10.06,69.19 -24.5,-9.69 -44.02,-6.8 -58.06,9.91 27.15,2.9 41.7,37.33 68.12,22.7zm180.17 -261.7l198.11 -525.07 13.62 -36.11c15.43,-40.9 -13.22,-62.13 -56.13,-72.61 -48.81,-11.92 -212.32,-31.57 -233.61,35.34 -14.21,44.7 28.61,42.56 46.98,46 28.57,5.34 37.82,64.03 -13.87,73.65 -34.8,4.09 -64.81,-9.59 -86.23,-32.45l0 273.35c9.32,134.79 31.28,136.67 131.13,237.9zm-65.13 1109.35c38.05,0 68.89,30.85 68.89,68.9 0,38.05 -30.85,68.89 -68.89,68.89 -38.05,0 -68.9,-30.85 -68.9,-68.89 0,-38.05 30.85,-68.9 68.9,-68.9zm-64.13 339.34l60.57 -60.58c3.86,-3.86 10.18,-3.86 14.04,0l60.57 60.58c3.86,3.86 3.86,10.18 0,14.04l-60.57 60.57c-3.87,3.86 -10.19,3.86 -14.04,0l-60.57 -60.57c-3.87,-3.87 -3.87,-10.18 0,-14.04zm1991.54 -458.8c-35.3,0 -63.93,28.63 -63.93,63.93 0,35.31 28.63,63.93 63.93,63.93 35.31,0 63.93,-28.62 63.93,-63.93 0,-35.31 -28.63,-63.93 -63.93,-63.93zm-1316.39 395.61c32.32,-18.87 46.53,-59.97 17.68,-94.75 -24.47,-29.51 6.8,-37.81 29.26,-27.24 84.44,39.79 46.7,158.94 -8.37,192.43 530.07,-6.39 1063.27,-0.46 1593.72,-0.46 117.94,0 120.42,-103.04 120.42,-103.04l0 -197.38 -1656.02 0c-145.24,-4.66 -221.09,45.68 -208.56,165.1 6.94,66.14 56.39,92.02 111.87,65.33zm1848.92 -323.71l173.8 0c60.82,0 99.36,-43.69 99.36,-98.31 0,-114.31 1.2,-540.8 1.2,-632.79 0,-53.15 -32.87,-73.19 -57.1,-73.31l-129.11 0c-34.76,0 -86.89,0 -90.62,79.44 -3.72,79.44 2.48,724.97 2.48,724.97zm-4414.44 -71.9c35.3,0 63.93,28.63 63.93,63.93 0,35.31 -28.63,63.93 -63.93,63.93 -35.31,0 -63.93,-28.62 -63.93,-63.93 0,-35.31 28.63,-63.93 63.93,-63.93zm1316.39 395.61c-32.32,-18.87 -46.53,-59.97 -17.68,-94.75 24.47,-29.51 -6.8,-37.81 -29.26,-27.24 -84.44,39.79 -46.7,158.94 8.37,192.43 -530.07,-6.39 -1063.27,-0.46 -1593.72,-0.46 -117.94,0 -120.42,-103.04 -120.42,-103.04l0 -197.38 1656.02 0c145.24,-4.66 221.09,45.68 208.56,165.1 -6.94,66.14 -56.39,92.02 -111.87,65.33zm-1848.92 -323.71l-173.8 0c-60.82,0 -99.36,-43.69 -99.36,-98.31 0,-114.31 -1.2,-540.8 -1.2,-632.79 0,-53.15 32.87,-73.19 57.1,-73.31l129.11 0c34.76,0 86.89,0 90.62,79.44 3.72,79.44 -2.48,724.97 -2.48,724.97zm4946.98 -1953.63l173.8 0c60.82,0 99.36,43.68 99.36,98.31 0,114.31 1.2,540.8 1.2,632.79 0,53.15 -32.87,73.19 -57.1,73.31l-129.11 0c-34.76,0 -86.89,0 -90.62,-79.44 -3.72,-79.45 2.48,-724.97 2.48,-724.97zm-4946.98 5.63l-173.8 0c-60.82,0 -99.36,43.69 -99.36,98.31 0,114.31 -1.2,540.8 -1.2,632.79 0,53.15 32.87,73.19 57.1,73.32l129.11 0c34.76,0 86.89,0 90.62,-79.45 3.72,-79.44 -2.48,-724.97 -2.48,-724.97zm2473.49 -538.8c-29.6,-35.96 -63.42,-69.16 -104.29,-95.43l104.29 -133.25 104.29 133.25c-40.87,26.28 -74.69,59.48 -104.29,95.43zm0 -470.68c-16.82,-18.62 -61.03,-57.38 -130.1,-46.43 -93.65,14.86 -124.61,89.77 -111.97,147.33 17.97,81.8 116.79,84.61 126.24,45.09 0,0 -63.31,-26.69 -60.2,-74.48 5.08,-78.37 138.87,-82.15 140.29,54.7 0.77,75.9 -77.56,164 -129.11,213.43 -43.61,-8.64 -76.79,-10.8 -103.04,-8.69 0,0 11.17,-201.1 -150.2,-324 0,0 374,-234.6 418.09,-297.7 44.1,63.1 418.09,297.7 418.09,297.7 -161.37,122.9 -150.2,324 -150.2,324 -26.25,-2.11 -59.43,0.05 -103.04,8.69 -51.56,-49.43 -129.89,-137.53 -129.11,-213.43 1.42,-136.85 135.21,-133.07 140.29,-54.7 3.1,47.8 -60.2,74.48 -60.2,74.48 9.46,39.52 108.28,36.71 126.24,-45.09 12.64,-57.56 -18.33,-132.47 -111.97,-147.33 -69.07,-10.96 -113.28,27.8 -130.1,46.43zm674.31 171.84l-187.67 -131.18c-7.76,2.8 -61.23,56.38 -61.85,65.38 -2.77,40.21 118.63,123.57 150.2,120.11 39.72,-4.34 99.31,-54.31 99.31,-54.31zm1702.95 548.42c0,0 -2.48,-103.04 -120.42,-103.04 -117.93,0 -919.88,0 -919.88,0 0,0 -174.36,-1.05 -188.69,135.32 -7.64,72.69 31.7,136.72 79.94,139.56 21.29,1.25 50.54,-6.61 72.04,-33.69 23.27,-29.31 21.59,-72.77 -17.91,-94.71 -33.5,-18.62 -7.44,-36 17.39,-36 102.44,0 95.44,130.95 57.1,189.93l1020.43 0 0 -197.38zm-1895.39 -461.83l-91.19 -83.71c-50.16,35.87 -57.46,128.07 -47.84,155.09 13.66,3.1 35.98,6.8 49.04,13.02 21.11,-26.07 46.98,-54.73 89.99,-84.41zm-1156.19 -86.59l187.67 -131.18c7.76,2.8 61.23,56.38 61.85,65.38 2.77,40.21 -118.63,123.57 -150.2,120.11 -39.72,-4.34 -99.31,-54.31 -99.31,-54.31zm-1702.95 548.42c0,0 2.48,-103.04 120.42,-103.04 117.93,0 919.88,0 919.88,0 0,0 174.36,-1.05 188.69,135.32 7.64,72.69 -31.7,136.72 -79.94,139.56 -21.29,1.25 -50.54,-6.61 -72.04,-33.69 -23.27,-29.31 -21.59,-72.77 17.91,-94.71 33.5,-18.62 7.44,-36 -17.39,-36 -102.44,0 -95.44,130.95 -57.1,189.93l-1020.43 0 0 -197.38zm1895.39 -461.83l91.19 -83.71c50.16,35.87 57.46,128.07 47.84,155.09 -13.66,3.1 -35.98,6.8 -49.04,13.02 -21.11,-26.07 -46.98,-54.73 -89.99,-84.41z"/>
 </g>
</svg>
