<svg xmlns="http://www.w3.org/2000/svg" xmlns:xlink="http://www.w3.org/1999/xlink" viewBox="0 0 312.24 130.75"><defs><style>.cls-1{fill-rule:evenodd;fill:url(#GradientFill_1);}</style><linearGradient id="GradientFill_1" x1="257.69" y1="24.41" x2="47.58" y2="115.51" gradientUnits="userSpaceOnUse"><stop offset="0" stop-color="#fbf5c2"/><stop offset="0.42" stop-color="#f3b337"/><stop offset="0.76" stop-color="#fbf5c2"/><stop offset="1" stop-color="#d18c0a"/></linearGradient></defs><title>Asset 1</title><g id="Layer_2" data-name="Layer 2"><g id="_1" data-name="???? 1"><path class="cls-1" d="M176.05,16.37a17.79,17.79,0,0,1,2.22.44c5.64,1.48,6.94,4.94,6.1,7.34-.94,2.68-16.5,45.74-16.5,45.74-2.23,7.55,10.79,8.65,10.36,4.57-.08-.79.32-.95,1-.94,3.89,1.24,6.22,10.57-7.11,10.9a24.6,24.6,0,0,1-5,15.74,23.18,23.18,0,0,1-10.49,7.33,28.63,28.63,0,0,1-17.47,0,23.08,23.08,0,0,1-10.49-7.33,21.73,21.73,0,0,1-4.74-11.85A23.37,23.37,0,0,1,125,79c-17.8-8.53-5.25-40.67-11.44-55.9a13.2,13.2,0,0,0-3.26-4.79,16.32,16.32,0,0,0-8-4.31s-.4-2.41,1.61-3c12.68,1.71,15.65,11.57,15.83,21.6.13,7.51,1.07,20.26,1.07,20.26.42,9.83,5.13,12.78,10.24,12.9,9.06.23,11.95-8.44,12.06-14V11.64c0-5.36-2-7.83-2.28-9.26-.67-3.17,13.82-3.17,13.15,0-.3,1.43-2.28,3.9-2.28,9.26V19a7.44,7.44,0,0,1,3.73-2.34c5.83-1.81,14.41-1.14,20.55-.26ZM112.22,91.89a1.28,1.28,0,1,0,1.28,1.27,1.27,1.27,0,0,0-1.28-1.27ZM14.34,67.41V52a2.09,2.09,0,0,0-.88-1.81,1.12,1.12,0,0,1-.61-1v-1c0-.36.2-.54.61-.54h5.27c.35,0,.51.16.51.49v1.08a1.18,1.18,0,0,1-.58,1A2.1,2.1,0,0,0,17.75,52V83.56c0,.5-.22.75-.68.75H16a1,1,0,0,1-1-.73L5.35,58V79.8a2,2,0,0,0,.9,1.83,1.15,1.15,0,0,1,.59.94v1.06q0,.54-.6.54H1a.45.45,0,0,1-.51-.5v-1.1a1.17,1.17,0,0,1,.61-.94A2.13,2.13,0,0,0,2,79.8V52a2.08,2.08,0,0,0-.88-1.81,1.12,1.12,0,0,1-.61-1v-1c0-.36.2-.54.61-.54H6.05a1.32,1.32,0,0,1,.72.13,1.43,1.43,0,0,1,.38.62l7.19,19Zm13-15.11-.23-1.6c-.08-.51-.11-.8-.11-.86s.11-.29.35-.4l4-1.85a.36.36,0,0,1,.21-.05q.33,0,.42.42L38.4,79.78A3.28,3.28,0,0,0,38.81,81a2.87,2.87,0,0,0,.95.8.91.91,0,0,1,.54.75v1c0,.38-.15.57-.44.57H32c-.43,0-.64-.19-.64-.57v-1c0-.36.25-.66.75-.92a1.5,1.5,0,0,0,.91-1.33,3.74,3.74,0,0,0-.05-.54l-1-4.89H25.88l-1,4.7a2.06,2.06,0,0,0-.07.45c0,.46.36,1,1.07,1.55.46.37.69.7.69,1v1c0,.38-.23.57-.68.57H21c-.55,0-.82-.19-.82-.57V82.38a.88.88,0,0,1,.52-.79,2.93,2.93,0,0,0,1.26-2L27.37,52.3ZM29,59.83l2.42,12H26.5l2.48-12ZM44.29,84.17H43.11c-.39,0-.59-.21-.59-.64V74.67c0-.59.21-.89.64-.89h1a.52.52,0,0,1,.53.27,12.1,12.1,0,0,1,.36,1.88q1,6.16,4.4,6.17a3.19,3.19,0,0,0,2.81-1.56,6.65,6.65,0,0,0,1-3.75,8.44,8.44,0,0,0-1.09-4.23A30,30,0,0,0,48,67.29a44.16,44.16,0,0,1-3.44-3.94,12.06,12.06,0,0,1-1.64-3.15,11.48,11.48,0,0,1-.63-3.88,10.08,10.08,0,0,1,2-6.41A5.86,5.86,0,0,1,49,47.39a6,6,0,0,1,2.77.76,2.66,2.66,0,0,0,.89.33.88.88,0,0,0,.52-.2,1.38,1.38,0,0,1,.71-.17h.86c.46,0,.68.21.68.64v7.77c0,.39-.16.58-.51.58H53.86c-.28,0-.46-.07-.54-.22a9.61,9.61,0,0,1-.46-1.7c-.74-3.4-1.93-5.09-3.59-5.09a2.51,2.51,0,0,0-2.14,1.12,4.34,4.34,0,0,0-.81,2.6,7.46,7.46,0,0,0,.94,3.51A23,23,0,0,0,51,62a27.87,27.87,0,0,1,5,6.56,13.7,13.7,0,0,1,1.39,6.15A10.86,10.86,0,0,1,55.13,82a7,7,0,0,1-5.56,2.8A9.3,9.3,0,0,1,46.22,84a2.51,2.51,0,0,0-.88-.26,1.2,1.2,0,0,0-.6.24,1.06,1.06,0,0,1-.45.17ZM76.89,52V79.8a2,2,0,0,0,.9,1.83,1.15,1.15,0,0,1,.59.94v1.06c0,.36-.2.54-.61.54H70.48a.44.44,0,0,1-.51-.49V82.57a1.17,1.17,0,0,1,.59-.94,2.09,2.09,0,0,0,.9-1.82V66.38H66V79.81a2.07,2.07,0,0,0,.88,1.82,1.13,1.13,0,0,1,.61.94v1.06c0,.36-.2.54-.61.54H59.62a.45.45,0,0,1-.51-.5v-1.1a1.17,1.17,0,0,1,.61-.94,2.13,2.13,0,0,0,.88-1.83V52a2.08,2.08,0,0,0-.88-1.81,1.12,1.12,0,0,1-.61-1v-1c0-.36.2-.54.61-.54H67a.45.45,0,0,1,.51.5v1.08a1.17,1.17,0,0,1-.61,1A2.13,2.13,0,0,0,66,52V63.11h5.43V52a2,2,0,0,0-.9-1.81,1.14,1.14,0,0,1-.59-1v-1c0-.36.2-.54.61-.54h7.29c.34,0,.51.16.51.49v1.08a1.18,1.18,0,0,1-.58,1A2.1,2.1,0,0,0,76.89,52Zm9.91.28-.22-1.6c-.08-.51-.11-.8-.11-.86s.11-.29.35-.4l4-1.85a.33.33,0,0,1,.2-.05c.22,0,.37.14.43.42l6.42,31.82A3.47,3.47,0,0,0,98.24,81a2.83,2.83,0,0,0,1,.8.89.89,0,0,1,.53.75v1c0,.38-.14.57-.44.57H91.47q-.63,0-.63-.57v-1c0-.36.25-.66.75-.92a1.49,1.49,0,0,0,.9-1.33,2.71,2.71,0,0,0,0-.54l-1-4.89H85.31l-1,4.7a3,3,0,0,0-.07.45c0,.46.36,1,1.08,1.55.45.37.68.7.68,1v1c0,.38-.22.57-.68.57H80.42c-.55,0-.83-.19-.83-.57V82.38a.9.9,0,0,1,.52-.79,3,3,0,0,0,1.27-2L86.8,52.3Zm1.61,7.53,2.43,12h-4.9l2.47-12Zm8.82,38.92c.86,2,3.2.67,4.88,1.7-.07-1.57-1-2.6-2.88-3.12,2.92-1.26,2.1-2.8,2.47-4.39-1.45.76-3.15.37-3.61,3.51-1-1.63-2.22-2.32-3.75-2,1.42,1.36.74,4,2.89,4.29Zm7.13-9.27a3,3,0,0,1,.65.79c0-.44-.05-.88-.07-1.33H98.76a2.6,2.6,0,0,1,1.68,1.66,2.6,2.6,0,0,1,3.92-1.12ZM97,88.94H86.35a1,1,0,0,1-.08,1.12,1,1,0,0,1-.32.27c1.35.41,2.69,1,4,.31a1.91,1.91,0,0,1-1.23,1.64,3.38,3.38,0,0,1,.09,1.44c3.31.66,1,4.2,3.09,4.63-.35.71-.86.92-1.62.39a2.05,2.05,0,0,1-.25,1.57,1.69,1.69,0,0,1-.71-1.09,1.25,1.25,0,0,1-.7,1.15c.55-3-2.59-4.71-.84-6.37-.94-2.33-2.69-3-4-2.41-1.75.72-2.17,3-1.86,4.68a4.9,4.9,0,0,0,2.26,3.2,3.23,3.23,0,0,1,2-3.5c-.85,6.74,5.52,7,9.16,4.19.37-1.24-.71-2.33-1.83-3.45s-2.06-2.15-2-3.41a2.59,2.59,0,0,1,4.36-1.93A2.27,2.27,0,0,1,97,88.94Zm-12.39,0a1,1,0,0,0,.08,1.12c-2.39-.23-4.45,2.73-4.53,4.87-.2,6.2,9.36,10.15,14.5,7.18-1.56,5.73,4.71,14,10.65,12.18,2-.62,4.38-3.37,3.55-5.62a1,1,0,0,0,1.2-.32.82.82,0,0,0,.12-.2,43.89,43.89,0,0,0,7.43,9.93,43.29,43.29,0,0,0,72.86-21.24,3.12,3.12,0,0,0,2.3,1.68,2.45,2.45,0,0,0-1.36,1.65,2.4,2.4,0,0,0,.47,1.73c1.4,2,3.42,1,5.12,0a7.65,7.65,0,0,1,2.56-1.13,1.87,1.87,0,0,1,1.24.25,8.07,8.07,0,0,1,.51,1.65c.76,4-1.4,8.36-6.9,6.12a3.21,3.21,0,0,0,2.88,2.82,4.93,4.93,0,0,1-3.68,1.36c-1.69-.13-3.8-1.12-4.05-3-.19-1.46.88-3,3.37-3.31,1.16,2.12,3.61-.47,6.37.82a1.25,1.25,0,0,0-.93-1,1.69,1.69,0,0,0,1.24-.41,2,2,0,0,0-1.46-.63c.7-.61.63-1.16,0-1.67-1,2-3.78-1.23-5.27,1.8a3.43,3.43,0,0,0-1.42-.29,1.92,1.92,0,0,0-1.26-1.6c.35,1.43-.58,2.57-1.32,3.78a1.18,1.18,0,0,0-.19-.39,1,1,0,1,0-.41,1.56c-.83,2.25,1.5,5,3.56,5.62,5.94,1.78,12.21-6.45,10.65-12.18,5.14,3,14.7-1,14.49-7.18-.07-2.14-2.13-5.1-4.52-4.87a1,1,0,0,0,.08-1.12H312V87.73h-122a41.75,41.75,0,0,1-83.5,0H0v1.21Zm24.84,17.8a43.09,43.09,0,0,1-3.31-9.09,3.85,3.85,0,0,1-1.72.87,2.14,2.14,0,0,1,.89,3.38c-1.41,2-3.42,1-5.12,0a7.74,7.74,0,0,0-2.56-1.13,1.9,1.9,0,0,0-1.25.25,8.71,8.71,0,0,0-.5,1.65c-.76,4,1.39,8.36,6.9,6.12a3.23,3.23,0,0,1-2.88,2.82,4.92,4.92,0,0,0,3.67,1.36c1.7-.13,3.81-1.12,4.06-3,.19-1.46-.88-3-3.37-3.31-1.16,2.12-3.62-.47-6.37.82a1.25,1.25,0,0,1,.93-1,1.68,1.68,0,0,1-1.24-.41,2,2,0,0,1,1.45-.63c-.7-.61-.63-1.16,0-1.67,1,2,3.78-1.23,5.27,1.8a3.38,3.38,0,0,1,1.41-.29,1.91,1.91,0,0,1,1.27-1.6c-.35,1.43.58,2.57,1.32,3.78a1,1,0,0,1,.18-.39,1,1,0,0,1,1-.37Zm-4.06-13c-.07-.5-.14-1-.19-1.5a3.1,3.1,0,0,1-.9,1.31,2.21,2.21,0,0,1,1.09.19Zm94.55,5c-.86,2-3.21.67-4.88,1.7.06-1.57,1.05-2.6,2.87-3.12-2.91-1.26-2.09-2.8-2.46-4.39,1.45.76,3.14.37,3.61,3.51,1-1.63,2.21-2.32,3.75-2-1.42,1.36-.74,4-2.89,4.29Zm-7.13-9.27a2.59,2.59,0,0,0,.08,4.07,2.37,2.37,0,0,0-2,.85,42.6,42.6,0,0,0,.53-5.46h6.95a2.61,2.61,0,0,0-1.69,1.66,2.59,2.59,0,0,0-3.91-1.12Zm7.38-.54h10.62a1,1,0,0,0,.08,1.12,1.06,1.06,0,0,0,.33.27c-1.35.41-2.7,1-4,.31a1.9,1.9,0,0,0,1.22,1.64,3.22,3.22,0,0,0-.08,1.44c-3.31.66-.95,4.2-3.09,4.63.34.71.86.92,1.62.39a2.09,2.09,0,0,0,.24,1.57,1.67,1.67,0,0,0,.72-1.09,1.24,1.24,0,0,0,.69,1.15c-.54-3,2.59-4.71.84-6.37.94-2.33,2.7-3,4.06-2.41,1.75.72,2.17,3,1.85,4.68a4.85,4.85,0,0,1-2.25,3.2,3.23,3.23,0,0,0-2-3.5c.85,6.74-5.52,7-9.16,4.19-.38-1.24.71-2.33,1.83-3.45s2.06-2.15,2-3.41a2.58,2.58,0,0,0-4.35-1.93,2.28,2.28,0,0,0-1.19-2.43Zm-16.24,3a1.28,1.28,0,1,1-1.27,1.27,1.27,1.27,0,0,1,1.27-1.27Zm-71.11,9.23a1.43,1.43,0,0,0,.36.57,1,1,0,0,0,.48.27,1.25,1.25,0,0,0,.58,0,3.1,3.1,0,0,0,.67-.19l1-.42a2.23,2.23,0,0,0,.57-.32,1.3,1.3,0,0,0,.37-.41,1.08,1.08,0,0,0,.15-.5,1.27,1.27,0,0,0-.11-.58,1.87,1.87,0,0,0-.35-.56,4.78,4.78,0,0,0-.51-.49.67.67,0,0,0,.1-.21.28.28,0,0,0,0-.18.22.22,0,0,0-.12-.13.27.27,0,0,0-.2,0,.27.27,0,0,0-.11.1.74.74,0,0,1-.21.22,2,2,0,0,1-.33.17l-4.38,1.75a.28.28,0,0,0-.15.13.27.27,0,0,0,0,.23.28.28,0,0,0,.14.16.28.28,0,0,0,.2,0l1.57-.62a5,5,0,0,0,.07.54,2.72,2.72,0,0,0,.15.48Zm.23-1.2a1.88,1.88,0,0,0,0,.52,3.49,3.49,0,0,0,.12.43.84.84,0,0,0,.54.56,1.71,1.71,0,0,0,1-.16l1.06-.42a1.4,1.4,0,0,0,.68-.51.85.85,0,0,0,0-.75,1.65,1.65,0,0,0-.27-.42,3.13,3.13,0,0,0-.42-.39,1,1,0,0,1-.17.1l-.18.09-2.36,1Zm1.91,4.7a1.1,1.1,0,0,1-.15-.79.85.85,0,0,1,.44-.53l.53-.28a4.59,4.59,0,0,0,.17.48c.06.15.13.29.19.41a1.5,1.5,0,0,0,.8.8,1.18,1.18,0,0,0,1-.13,1.38,1.38,0,0,0,.71-.76,1.34,1.34,0,0,0-.16-1.09,2,2,0,0,0-.4-.53,1.3,1.3,0,0,0-.49-.29,1.35,1.35,0,0,0-.53,0,1.59,1.59,0,0,0-.55.17l-1.44.76a1.5,1.5,0,0,0-.43.35,1.11,1.11,0,0,0-.25.45,1.16,1.16,0,0,0,0,.56,1.74,1.74,0,0,0,.2.61,2.9,2.9,0,0,0,.21.34,2.53,2.53,0,0,0,.28.35,1.33,1.33,0,0,0,.3.25.31.31,0,0,0,.28,0,.24.24,0,0,0,.12-.14.25.25,0,0,0,0-.19l0,0,0,0a3.81,3.81,0,0,1-.36-.3,1.31,1.31,0,0,1-.3-.4Zm2.67-.52a.83.83,0,0,0,.49-.51.93.93,0,0,0-.11-.65,1.08,1.08,0,0,0-.54-.52.79.79,0,0,0-.68.07l-.64.34c0,.08.07.17.11.26l.11.26.11.22c0,.07.06.12.08.16a1.14,1.14,0,0,0,.26.35.59.59,0,0,0,.27.14.5.5,0,0,0,.27,0,1,1,0,0,0,.27-.11Zm.47,1.23-1.09.75a2,2,0,0,0-.45.41,1.35,1.35,0,0,0-.24.5,1.22,1.22,0,0,0,0,.57,2,2,0,0,0,.29.63l.21.27a2.17,2.17,0,0,0,.27.26,1.35,1.35,0,0,0,.29.18.29.29,0,0,0,.26,0,.24.24,0,0,0,.1-.15.21.21,0,0,0,0-.17.36.36,0,0,0-.09-.09h0l-.3-.18A1.07,1.07,0,0,1,117,108a.93.93,0,0,1-.22-.81,1.19,1.19,0,0,1,.51-.64l1.09-.75a1.23,1.23,0,0,1,.78-.26,1,1,0,0,1,.69.49,1,1,0,0,1,.17.37c0,.12,0,.23.07.35h0l0,0a.09.09,0,0,0,0,.06.31.31,0,0,0,.15.1.21.21,0,0,0,.17,0,.27.27,0,0,0,.11-.23,1.4,1.4,0,0,0,0-.34,3.35,3.35,0,0,0-.15-.35,2.45,2.45,0,0,0-.18-.29,1.73,1.73,0,0,0-.48-.49,1.23,1.23,0,0,0-.54-.2,1.31,1.31,0,0,0-.55.06,2,2,0,0,0-.55.27Zm1.05,5.81,2.74-2.27.62.76a.25.25,0,0,0,.17.08.2.2,0,0,0,.18-.06.3.3,0,0,0,.11-.17.2.2,0,0,0-.06-.18l-1.59-1.92a.25.25,0,0,0-.17-.1.28.28,0,0,0-.19.07.2.2,0,0,0-.09.17.26.26,0,0,0,0,.19l.62.74-2.74,2.27a.24.24,0,0,0-.1.18.27.27,0,0,0,.07.21.27.27,0,0,0,.18.1.26.26,0,0,0,.2-.07Zm2.28,2.91a1.93,1.93,0,0,0,.57.39,1.54,1.54,0,0,0,.57.12,1.43,1.43,0,0,0,.54-.13,1.65,1.65,0,0,0,.48-.35l1-1a1.76,1.76,0,0,0,.33-.49,1.33,1.33,0,0,0,.12-.55,1.35,1.35,0,0,0-.13-.57,2,2,0,0,0-.41-.55,1.78,1.78,0,0,0-.56-.39,1.36,1.36,0,0,0-.58-.11,1.26,1.26,0,0,0-.54.13,1.48,1.48,0,0,0-.48.35l-1,1a1.69,1.69,0,0,0-.33.49,1.18,1.18,0,0,0-.11.55,1.31,1.31,0,0,0,.13.57,2,2,0,0,0,.4.55Zm.35-.36a1,1,0,0,0,.73.34,1,1,0,0,0,.69-.34l1-1a1,1,0,0,0,.32-.7,1,1,0,0,0-1.78-.72l-1,1.06a1,1,0,0,0-.32.69,1,1,0,0,0,.36.72Zm3.08,3.38a1.57,1.57,0,0,0,.61.3,1,1,0,0,0,.55,0,1.89,1.89,0,0,0,.51-.29,3.34,3.34,0,0,0,.47-.51l.68-.9a2.21,2.21,0,0,0,.33-.56,1.58,1.58,0,0,0,.11-.55A1.14,1.14,0,0,0,128,114a1.44,1.44,0,0,0-.39-.44,1.93,1.93,0,0,0-.59-.3,5,5,0,0,0-.69-.16.58.58,0,0,0,0-.23.24.24,0,0,0-.27-.2.19.19,0,0,0-.16.09.23.23,0,0,0-.05.15.73.73,0,0,1-.07.29,1.45,1.45,0,0,1-.2.31l-2.86,3.76a.22.22,0,0,0-.06.19.29.29,0,0,0,.12.19.24.24,0,0,0,.21,0,.25.25,0,0,0,.17-.1l1-1.34a4.58,4.58,0,0,0,.34.43c.13.13.25.24.37.34Zm-.42-1.16a2,2,0,0,0,.31.43,2.22,2.22,0,0,0,.32.31.81.81,0,0,0,.75.2,1.65,1.65,0,0,0,.74-.62l.69-.91a1.3,1.3,0,0,0,.32-.79.8.8,0,0,0-.37-.64,1.35,1.35,0,0,0-.45-.22,2.66,2.66,0,0,0-.56-.12l-.09.17a1.63,1.63,0,0,1-.11.17l-1.55,2Zm6.08,1.44-.31.49c-.12-.13-.23-.24-.35-.35a2.4,2.4,0,0,0-.37-.28c-.83-.53-1.46-.44-1.9.26l0,0a1.29,1.29,0,0,0-.22.93,1.28,1.28,0,0,0,.63.8,1.73,1.73,0,0,0,1.29.22,1,1,0,0,0,.06.44.53.53,0,0,0,.23.31.44.44,0,0,0,.22.07.18.18,0,0,0,.18-.09.29.29,0,0,0,0-.16.17.17,0,0,0-.08-.14h0l0,0c-.13-.08-.14-.21,0-.4l1-1.62a2,2,0,0,0,.39-1.25,1.31,1.31,0,0,0-.71-1l-.38-.2a2,2,0,0,0-.37-.12.67.67,0,0,0-.31,0,.26.26,0,0,0-.19.15.66.66,0,0,0,0,.15.14.14,0,0,0,.08.13.27.27,0,0,0,.11,0h.1a.85.85,0,0,1,.32,0,1.21,1.21,0,0,1,.36.16.89.89,0,0,1,.3,1.39Zm-1.27.24a1.26,1.26,0,0,0-.44-.2.74.74,0,0,0-.33,0,.58.58,0,0,0-.25.15,1.18,1.18,0,0,0-.19.24l0,0a.86.86,0,0,0-.14.56.81.81,0,0,0,.44.54,1.51,1.51,0,0,0,.52.2,1.88,1.88,0,0,0,.58,0l.54-.86a2.6,2.6,0,0,0-.36-.38,2.24,2.24,0,0,0-.35-.26Zm2.27,3.33a.23.23,0,0,1-.15.14.26.26,0,0,1-.21,0,.28.28,0,0,1-.15-.15.26.26,0,0,1,0-.21l1.6-3.5a.26.26,0,0,1,.16-.15.26.26,0,0,1,.21,0,.25.25,0,0,1,.14.16.26.26,0,0,1,0,.21l-.67,1.46,1.8.83.67-1.47a.33.33,0,0,1,.16-.15.3.3,0,0,1,.21,0,.29.29,0,0,1,.15.16.26.26,0,0,1,0,.21l-1.59,3.5a.36.36,0,0,1-.15.15.26.26,0,0,1-.21,0,.22.22,0,0,1-.15-.15.26.26,0,0,1,0-.21l.75-1.62-1.81-.83-.74,1.63Zm7.84,2.53q-.24.42-.48.78a3.5,3.5,0,0,1-.51.61,1.56,1.56,0,0,1-.58.36,1.23,1.23,0,0,1-.69,0,.29.29,0,0,1-.19-.11.24.24,0,0,1,0-.2.21.21,0,0,1,.1-.16.28.28,0,0,1,.2,0,1.11,1.11,0,0,0,.4,0,.79.79,0,0,0,.33-.13,1.61,1.61,0,0,0,.3-.29,4.21,4.21,0,0,0,.32-.47l-.49-4.24a.07.07,0,0,1,0,0v-.05a.25.25,0,0,1,.12-.16.3.3,0,0,1,.21,0,.2.2,0,0,1,.13.08.27.27,0,0,1,.07.14l.37,3.68.42-.77.46-.83.45-.83.42-.78.13-.1a.31.31,0,0,1,.16,0,.27.27,0,0,1,.2.33.43.43,0,0,1,0,.05,0,0,0,0,0,0,0l-1.79,3.16Zm4.87-1.85a1.17,1.17,0,0,1-.26.62.93.93,0,0,1-.66.24h0a1,1,0,0,1,.62.45,1.25,1.25,0,0,1-.36,1.53,1.51,1.51,0,0,1-1.1.17l-.39-.07a2.34,2.34,0,0,1-.4-.12,1.35,1.35,0,0,1-.32-.19.25.25,0,0,1-.11-.23.29.29,0,0,1,.09-.16.3.3,0,0,1,.23,0l0,0,.4.19a2.07,2.07,0,0,0,.56.15,1,1,0,0,0,.65-.08.69.69,0,0,0,.31-.55.88.88,0,0,0,0-.23.44.44,0,0,0-.1-.25.79.79,0,0,0-.29-.24,2.27,2.27,0,0,0-.58-.2,1.09,1.09,0,0,1-.24-.07.2.2,0,0,1-.09-.21c0-.1.06-.15.13-.16h.25a1.77,1.77,0,0,0,.55,0,1.08,1.08,0,0,0,.34-.17.57.57,0,0,0,.16-.23.75.75,0,0,0,.07-.23.61.61,0,0,0-.14-.52,1,1,0,0,0-.63-.27h-.29l-.24,0-.2,0a.54.54,0,0,1-.18,0,.24.24,0,0,1-.16-.09.25.25,0,0,1,0-.18.25.25,0,0,1,.15-.19,1.26,1.26,0,0,1,.31-.09l.38,0,.37,0a1.37,1.37,0,0,1,1,.46,1.12,1.12,0,0,1,.22.9Zm.8-.74a1.89,1.89,0,0,1,.4-1.27,1.85,1.85,0,0,1,1.29-.55H147l.14,0,.2-.06.29-.13,0,0s0,0,0,0a.21.21,0,0,1,.17.07.24.24,0,0,1,.07.18.28.28,0,0,1-.14.24,1.05,1.05,0,0,1-.34.14,1.75,1.75,0,0,1-.41.08l-.37,0-.35.06a.83.83,0,0,0-.36.16.91.91,0,0,0-.3.38,1.64,1.64,0,0,0-.12.69v.66a1.7,1.7,0,0,1,.51-.46,1.24,1.24,0,0,1,.64-.16,1.56,1.56,0,0,1,.6.12,1.36,1.36,0,0,1,.45.32,1.44,1.44,0,0,1,.28.48,1.57,1.57,0,0,1,.09.58v1.21a1.58,1.58,0,0,1-.11.58,1.35,1.35,0,0,1-.3.47,1.29,1.29,0,0,1-.49.31,1.83,1.83,0,0,1-.68.11,1.74,1.74,0,0,1-.67-.12,1.42,1.42,0,0,1-.49-.31,1.5,1.5,0,0,1-.3-.48,1.57,1.57,0,0,1-.1-.58l0-2.68Zm1.54,3.67a1,1,0,0,1-.76-.27,1,1,0,0,1-.25-.72v-1.25a.93.93,0,0,1,.3-.7,1.13,1.13,0,0,1,.77-.25,1,1,0,0,1,.74.28,1,1,0,0,1,.22.72v1.21a.91.91,0,0,1-1,1Zm4.26,0a1.66,1.66,0,0,0,.5-.09l.43-.19,0,0h0a.25.25,0,0,1,.17.06.22.22,0,0,1,.07.17.26.26,0,0,1-.13.24,1.27,1.27,0,0,1-.35.17l-.44.1-.4,0a1.84,1.84,0,0,1-.64-.08,1.41,1.41,0,0,1-.48-.28,1.27,1.27,0,0,1-.31-.42,1.64,1.64,0,0,1-.12-.55l-.06-1.62a1.71,1.71,0,0,1,.08-.57,1.42,1.42,0,0,1,.28-.46,1.33,1.33,0,0,1,.48-.31,1.78,1.78,0,0,1,.65-.14,1.23,1.23,0,0,1,1.42,1.31,1.18,1.18,0,0,1-.29.91,1.48,1.48,0,0,1-1.06.37h-.47l-.5-.06,0,.6a.81.81,0,0,0,.28.62,1.12,1.12,0,0,0,.77.21Zm.7-2.63a.93.93,0,0,1,0,.29.44.44,0,0,1-.11.25.6.6,0,0,1-.24.19,1.5,1.5,0,0,1-.43.08H150l-.28,0,0-.72a.82.82,0,0,1,.23-.64,1,1,0,0,1,.7-.26.89.89,0,0,1,.64.18.84.84,0,0,1,.25.66Zm2.48,2.44a.26.26,0,0,1,0,.21.23.23,0,0,1-.17.1.25.25,0,0,1-.21,0,.25.25,0,0,1-.11-.18l-.66-3.79a.26.26,0,0,1,.05-.21.27.27,0,0,1,.49.12l.28,1.59.62-.11.84-1.92a.25.25,0,0,1,.21-.17.22.22,0,0,1,.18,0,.22.22,0,0,1,.11.15.32.32,0,0,1,0,.17l-.89,2,1.51,1.57a.43.43,0,0,1,0,.07.16.16,0,0,1,0,.08.15.15,0,0,1,0,.17.28.28,0,0,1-.18.09.24.24,0,0,1-.24-.08l-1.59-1.69-.51.09.31,1.76Zm2.43-3.11a2.14,2.14,0,0,1-.06-.61,1.44,1.44,0,0,1,.14-.55,1.35,1.35,0,0,1,.37-.43,1.93,1.93,0,0,1,.63-.28l.34-.06a1.62,1.62,0,0,1,.38,0,1.14,1.14,0,0,1,.33.07.27.27,0,0,1,.18.18.25.25,0,0,1,0,.17.22.22,0,0,1-.14.11h-.12a2.14,2.14,0,0,0-.35-.06,1,1,0,0,0-.41,0,1,1,0,0,0-.7.47,1.24,1.24,0,0,0,0,.82l.33,1.28a1.16,1.16,0,0,0,.42.71,1,1,0,0,0,.83.08,1.18,1.18,0,0,0,.39-.17l.27-.21h0a.28.28,0,0,1,.12-.05.17.17,0,0,1,.17,0,.19.19,0,0,1,.11.14.27.27,0,0,1-.07.25.92.92,0,0,1-.26.21l-.34.16a2,2,0,0,1-.33.1,1.68,1.68,0,0,1-.69.06,1.3,1.3,0,0,1-.53-.2,1.36,1.36,0,0,1-.38-.41,2.36,2.36,0,0,1-.24-.56l-.32-1.28Zm4.87,1.3a.26.26,0,0,1-.15.35.28.28,0,0,1-.22,0,.26.26,0,0,1-.14-.15l-1.41-3.58a.26.26,0,0,1,0-.21.26.26,0,0,1,.16-.15.23.23,0,0,1,.2,0,.29.29,0,0,1,.15.16l.59,1.5.59-.24.43-2a.28.28,0,0,1,.36-.22.21.21,0,0,1,.13.13.31.31,0,0,1,0,.16l-.47,2.14,1.79,1.23a.17.17,0,0,1,.06.06.23.23,0,0,1,0,.07.17.17,0,0,1,0,.18.3.3,0,0,1-.15.12.24.24,0,0,1-.26,0l-1.9-1.33-.48.19.66,1.66Zm4.41-1.67a1.82,1.82,0,0,1-.65.21,1.37,1.37,0,0,1-.58-.06,1.42,1.42,0,0,1-.49-.28,1.57,1.57,0,0,1-.35-.48L163,119a1.47,1.47,0,0,1-.18-.56,1.51,1.51,0,0,1,.05-.56,1.49,1.49,0,0,1,.3-.51,2,2,0,0,1,.55-.41,1.87,1.87,0,0,1,.65-.2,1.37,1.37,0,0,1,.58.06,1.32,1.32,0,0,1,.48.29,1.4,1.4,0,0,1,.36.47l.66,1.3a1.52,1.52,0,0,1,.18.57,1.45,1.45,0,0,1-.05.55,1.36,1.36,0,0,1-.3.5,1.8,1.8,0,0,1-.55.41Zm-.23-.44a1,1,0,0,1-.8.11,1,1,0,0,1-.55-.53l-.67-1.3a1.05,1.05,0,0,1-.1-.76,1.22,1.22,0,0,1,1.36-.7,1.06,1.06,0,0,1,.56.53l.66,1.31a1,1,0,0,1,.1.76,1,1,0,0,1-.56.58Zm3.07-1.18a.28.28,0,0,1-.24.06.29.29,0,0,1-.2-.14L166,116a.27.27,0,0,1,.06-.4.25.25,0,0,1,.21,0,.29.29,0,0,1,.18.12l1.77,2.63-.13-3.87a.38.38,0,0,1,.16-.33.31.31,0,0,1,.23,0,.28.28,0,0,1,.2.14l2.13,3.17a.26.26,0,0,1,0,.21.25.25,0,0,1-.11.18.32.32,0,0,1-.21,0,.31.31,0,0,1-.19-.13l-1.76-2.62.14,3.87a.53.53,0,0,1,0,.17.37.37,0,0,1-.12.13Zm-2-5.22a.5.5,0,0,0,.21-.24,1.18,1.18,0,0,0,.09-.41.25.25,0,0,1,.11-.22.19.19,0,0,1,.15,0c.05,0,.09.05.12.14a.71.71,0,0,1,0,.32.85.85,0,0,1-.09.31,1.11,1.11,0,0,1-.17.27,2,2,0,0,1-.22.2,1.69,1.69,0,0,1-.27.13,1.94,1.94,0,0,1-.33.07.85.85,0,0,1-.32,0,.61.61,0,0,1-.28-.16.17.17,0,0,1-.06-.17.2.2,0,0,1,.07-.13.23.23,0,0,1,.24,0,1.18,1.18,0,0,0,.41.08.55.55,0,0,0,.31-.11Zm7.8.38a.24.24,0,0,1,.08.19.25.25,0,0,1-.07.19.27.27,0,0,1-.2.09.21.21,0,0,1-.19-.08l-2.77-2.67a.25.25,0,0,1-.09-.19.28.28,0,0,1,.08-.2.28.28,0,0,1,.19-.09.25.25,0,0,1,.2.09l1.16,1.11.44-.45-.45-2.05a.23.23,0,0,1,.06-.25A.22.22,0,0,1,173,110a.19.19,0,0,1,.17.06.55.55,0,0,1,.09.14l.45,2.14,2.15.38.08,0,.07,0a.22.22,0,0,1,.07.17.38.38,0,0,1-.09.18.26.26,0,0,1-.26.07l-2.27-.42-.36.37,1.29,1.24Zm3.21-4-2-3,0,0,0,0a.26.26,0,0,0-.21-.06.23.23,0,0,0-.17.1.17.17,0,0,0,0,.14.88.88,0,0,0,0,.17l.51.73.54.77c.18.27.35.53.53.78s.34.5.5.73l-3.45-1.33a.29.29,0,0,0-.16,0,.24.24,0,0,0-.13.08.34.34,0,0,0-.08.2.27.27,0,0,0,.1.18l0,0h.05l4,1.48a3.71,3.71,0,0,1,.28.49,1.79,1.79,0,0,1,.12.4,1,1,0,0,1,0,.35,1.15,1.15,0,0,1-.2.35.3.3,0,0,0,0,.2.32.32,0,0,0,.1.17.26.26,0,0,0,.19,0,.29.29,0,0,0,.19-.11,1.21,1.21,0,0,0,.29-.63,1.6,1.6,0,0,0-.06-.68,4,4,0,0,0-.31-.73c-.14-.25-.31-.51-.49-.78Zm-1.76-3.16,2.11-.1.95,2a.15.15,0,0,0,.08.08.26.26,0,0,0,.21,0,.31.31,0,0,0,.17-.13.27.27,0,0,0,0-.26l-.86-1.79,1.91-.07a.5.5,0,0,0,.19,0,.24.24,0,0,0,.12-.11.26.26,0,0,0,0-.21.28.28,0,0,0-.14-.18.19.19,0,0,0-.1,0l-2.24.12-.9-1.9a.24.24,0,0,0-.1-.1.2.2,0,0,0-.2,0,.31.31,0,0,0-.16.11.25.25,0,0,0,0,.16.94.94,0,0,0,.06.18l.8,1.61-1.8.06-.18,0a.27.27,0,0,0-.13.11.27.27,0,0,0,.09.36.24.24,0,0,0,.13,0Zm5.7-2.17a.27.27,0,0,1,.14.16.24.24,0,0,1,0,.2.33.33,0,0,1-.16.15.3.3,0,0,1-.21,0l-3.45-1.7a.33.33,0,0,1-.15-.16.34.34,0,0,1,0-.22.31.31,0,0,1,.16-.14.31.31,0,0,1,.21,0l1.45.71.87-1.78-1.44-.71a.24.24,0,0,1-.15-.16.26.26,0,0,1,0-.21.25.25,0,0,1,.16-.14.26.26,0,0,1,.21,0l3.45,1.7a.23.23,0,0,1,.14.15.26.26,0,0,1,0,.21.27.27,0,0,1-.16.14.22.22,0,0,1-.21,0l-1.61-.79-.87,1.78,1.6.79Zm2.15-3.92a.34.34,0,0,1-.16.19.36.36,0,0,1-.25,0l-3.58-1.32a.28.28,0,0,1-.16-.14.23.23,0,0,1,0-.21.26.26,0,0,1,.15-.16.28.28,0,0,1,.22,0l3,1.09-2.38-3.07a.37.37,0,0,1-.06-.35.27.27,0,0,1,.16-.17.27.27,0,0,1,.25,0l3.58,1.31a.29.29,0,0,1,.16.15.26.26,0,0,1,0,.21.23.23,0,0,1-.14.15.28.28,0,0,1-.22,0l-3-1.09,2.38,3.05a.77.77,0,0,1,.07.16.37.37,0,0,1,0,.18ZM205.16,65.5q7.08,2.27,7.09,9a9.89,9.89,0,0,1-1.4,5.23,8.13,8.13,0,0,1-3.93,3.36,13.17,13.17,0,0,1-5.07,1.06h-7.2a.4.4,0,0,1-.43-.45V82.57a1.23,1.23,0,0,1,.59-.94,2.07,2.07,0,0,0,.9-1.83V52a2,2,0,0,0-.9-1.83,1.1,1.1,0,0,1-.59-.94V48.17c0-.33.19-.49.59-.49h7.49A9.25,9.25,0,0,1,209,50.16a8.53,8.53,0,0,1,2.54,6.38,10,10,0,0,1-1.44,5.2,9.32,9.32,0,0,1-5,3.76Zm-4-14.93a5.93,5.93,0,0,1,2.68.5,4,4,0,0,1,1.68,2.13,10.81,10.81,0,0,1,.69,4.17q0,6.79-5.05,6.8V50.57Zm0,16.29a4.83,4.83,0,0,1,4.25,1.89,9.92,9.92,0,0,1,1.28,5.62,11.35,11.35,0,0,1-.61,4.13,4,4,0,0,1-1.78,2.17,7,7,0,0,1-3.14.71V66.86Zm29.62,17.31H214.65a.5.5,0,0,1-.57-.57v-1c0-.33.27-.69.79-1.08a2,2,0,0,0,.7-1.69V52a2.06,2.06,0,0,0-.89-1.83,1.14,1.14,0,0,1-.6-.94V48.13q0-.45.57-.45h12.09c.22,0,.64,0,1.25-.07s.89-.07,1-.07q.78,0,.78.42v6.9a1.17,1.17,0,0,1-.1.65,1.07,1.07,0,0,1-.6.1h-.88c-.37,0-.58-.21-.63-.65a9.75,9.75,0,0,0-.93-3.14,2.74,2.74,0,0,0-2.69-1.3h-3V63.78h1.09a1.87,1.87,0,0,0,1.37-.38A7.25,7.25,0,0,0,224.4,61a3.77,3.77,0,0,1,.26-.72s.19-.07.42-.07h1c.41,0,.61.19.61.58v8.81a.49.49,0,0,1-.56.56h-1.08a.59.59,0,0,1-.49-.18,3.73,3.73,0,0,1-.37-1.07,3.9,3.9,0,0,0-.92-2,2.26,2.26,0,0,0-1.36-.36H221V81.38h3.18a3,3,0,0,0,2.44-.84,15.68,15.68,0,0,0,1.7-4.56c.15-.57.44-.85.84-.85h1a.51.51,0,0,1,.58.58v8.46Zm18.63-9a12.42,12.42,0,0,1-2.15,6.9,6,6,0,0,1-5,2.53c-2.91,0-5.25-1.59-7-4.75s-2.65-7.82-2.65-13.92.86-10.67,2.57-13.93,3.93-4.9,6.62-4.9a7.65,7.65,0,0,1,3.69,1.14,1,1,0,0,0,.43.14.82.82,0,0,0,.46-.29.61.61,0,0,1,.4-.27h1.34c.3,0,.45.23.45.68v7.7q0,.66-.45.66h-1a.77.77,0,0,1-.67-.26,5.78,5.78,0,0,1-.48-1.4c-.95-3.6-2.22-5.41-3.78-5.41A2.37,2.37,0,0,0,240,51.25a16.54,16.54,0,0,0-1.14,5.33,77.46,77.46,0,0,0-.4,7.94q0,8.79,1,12.89c.67,2.74,1.81,4.11,3.46,4.11,2,0,3.27-2.19,3.89-6.58l2.58.28ZM268.6,52V79.8a2,2,0,0,0,.9,1.83,1.15,1.15,0,0,1,.59.94v1.06c0,.36-.2.54-.61.54h-7.29a.44.44,0,0,1-.51-.49V82.57a1.18,1.18,0,0,1,.58-.94,2.1,2.1,0,0,0,.91-1.82V66.38h-5.43V79.81a2,2,0,0,0,.88,1.82,1.13,1.13,0,0,1,.61.94v1.06c0,.36-.2.54-.61.54h-7.29c-.35,0-.52-.17-.52-.5v-1.1a1.17,1.17,0,0,1,.61-.94,2.1,2.1,0,0,0,.88-1.83V52a2.06,2.06,0,0,0-.88-1.81,1.12,1.12,0,0,1-.61-1v-1c0-.36.2-.54.61-.54h7.29c.35,0,.52.17.52.5v1.08a1.17,1.17,0,0,1-.61,1,2.1,2.1,0,0,0-.88,1.81V63.11h5.43V52a2,2,0,0,0-.9-1.81,1.14,1.14,0,0,1-.59-1v-1c0-.36.2-.54.61-.54h7.29c.34,0,.51.16.51.49v1.08a1.17,1.17,0,0,1-.59,1,2.09,2.09,0,0,0-.9,1.81Zm10,10,4.84-10a2.35,2.35,0,0,0,.28-1.08c0-.23-.2-.49-.58-.77a1.18,1.18,0,0,1-.6-.92v-.94c0-.42.2-.63.61-.63H290c.49,0,.73.21.73.63v.94a.88.88,0,0,1-.18.63,4.14,4.14,0,0,1-.83.5,7.34,7.34,0,0,0-3.61,3.49l-3.68,7.42,5.88,17.11a6.13,6.13,0,0,0,2.29,3.11,1.62,1.62,0,0,1,.8,1.21v.76c0,.46-.24.69-.73.69h-7.79c-.51,0-.76-.24-.76-.71v-.73a1.25,1.25,0,0,1,.49-1c.59-.45.89-.84.89-1.17a2.39,2.39,0,0,0-.14-.73l-4.84-14v14a2.1,2.1,0,0,0,.88,1.83,1.17,1.17,0,0,1,.61.94v1.06c0,.36-.2.54-.61.54h-7.29a.44.44,0,0,1-.51-.5v-1.1a1.14,1.14,0,0,1,.6-.94,2.06,2.06,0,0,0,.89-1.83V52a2.06,2.06,0,0,0-.89-1.81,1.18,1.18,0,0,1-.6-1v-1q0-.54.6-.54h7.29c.35,0,.52.16.52.49v1.08a1.17,1.17,0,0,1-.61,1,2.06,2.06,0,0,0-.88,1.81V62Zm20.75-9.71-.23-1.6c-.08-.51-.11-.8-.11-.86s.11-.29.35-.4l4-1.85a.36.36,0,0,1,.21-.05c.21,0,.36.14.42.42l6.43,31.82a3.28,3.28,0,0,0,.41,1.24,2.87,2.87,0,0,0,.95.8.91.91,0,0,1,.54.75v1c0,.38-.15.57-.44.57H304c-.43,0-.64-.19-.64-.57v-1c0-.36.25-.66.75-.92a1.49,1.49,0,0,0,.9-1.33,3.62,3.62,0,0,0,0-.54l-1-4.89h-6.13l-1,4.7a2.24,2.24,0,0,0-.08.45c0,.46.37,1,1.08,1.55.45.37.69.7.69,1v1c0,.38-.23.57-.68.57h-4.94c-.55,0-.82-.19-.82-.57V82.38a.88.88,0,0,1,.52-.79,3,3,0,0,0,1.26-2l5.43-27.29Zm1.61,7.53,2.42,12h-4.9l2.48-12Zm-152.68,42c1.9,1,2.95-1.43,4.9-1.64-1-1.2-2.42-1.41-4.18-.71,1.54-2.77,0-3.5-.72-5-.69,1.48-2.27,2.21-.73,5-1.76-.7-3.17-.49-4.18.71,2,.21,3,2.69,4.91,1.64Zm0-26.35a2.6,2.6,0,0,0-2.42,3.28c-1.83-1.68-5.74.52-3.13,3.86a2.46,2.46,0,0,0-2.08.49,2.43,2.43,0,0,0-.69,1.65c-.12,2.47,2.12,2.86,4.06,3.12a7.75,7.75,0,0,1,2.72.67,1.9,1.9,0,0,1,.84,1,8.65,8.65,0,0,1-.61,1.63c-1.82,3.61-6.2,5.76-9.2.64a3.2,3.2,0,0,0,.56,4,4.93,4.93,0,0,1-3.74-1.16c-1.26-1.13-2.34-3.21-1.39-4.84.74-1.28,2.52-1.84,4.69-.56-.37,2.38,3.15,1.82,4.55,4.53a1.24,1.24,0,0,0-.15-1.34,1.66,1.66,0,0,0,1.23.43,2,2,0,0,0-.76-1.39c.92,0,1.2-.53,1-1.3-1.95,1-2.25-3.28-5.27-1.78a3.29,3.29,0,0,0-1-1.1,1.9,1.9,0,0,0,0-2c-.6,1.35-2,1.69-3.36,2.19a1,1,0,0,0,.09-.42,1,1,0,1,0-1.27,1c-2,1.28-1.86,4.88-.61,6.63,3.62,5,13.61,2.33,15.87-3.15,2.26,5.48,12.24,8.18,15.86,3.15,1.25-1.75,1.42-5.35-.61-6.63a1,1,0,1,0-1.27-1,1,1,0,0,0,.09.42c-1.32-.5-2.76-.84-3.35-2.19a1.91,1.91,0,0,0,0,2,3.29,3.29,0,0,0-1,1.1c-3-1.5-3.32,2.75-5.27,1.78-.16.77.12,1.25,1,1.3a2,2,0,0,0-.77,1.39,1.65,1.65,0,0,0,1.23-.43,1.26,1.26,0,0,0-.15,1.34c1.4-2.71,4.93-2.15,4.55-4.53,2.17-1.28,3.95-.72,4.69.56.95,1.63-.12,3.71-1.39,4.84a4.9,4.9,0,0,1-3.74,1.16,3.21,3.21,0,0,0,.57-4c-3.43,5.85-8.66,2.2-9.81-2.27.45-1.21,2-1.41,3.55-1.62,1.39-.18,2.94-.44,3.66-1.49a2.58,2.58,0,0,0-2.27-4.18c2.38-2.85-1.38-4.8-3.22-3.45a2.61,2.61,0,0,0-2.42-3.28Zm0,11.7c1.9,1,2.95-1.42,4.9-1.63-1-1.21-2.42-1.41-4.18-.72,1.54-2.77,0-3.49-.72-5-.69,1.49-2.27,2.21-.73,5-1.76-.69-3.17-.49-4.18.72,2,.21,3,2.68,4.91,1.63Zm13-18.84c-7.19-7.29-8.77-7.43-9.44-17.13V31.5A7.2,7.2,0,0,0,158,33.83c3.72-.69,3.05-4.91,1-5.3-1.32-.25-4.4-.09-3.38-3.31,1.54-4.82,13.31-3.4,16.82-2.54,3.09.75,5.15,2.28,4,5.22l-1,2.6L161.21,68.31Z"/></g></g></svg>