<svg xmlns="http://www.w3.org/2000/svg" viewBox="0 0 82.81 83.02"><title>pattern1</title><g id="Layer_2" data-name="Layer 2"><g id="_1" data-name="???? 1"><path d="M69.24,75.08c2.22-.11,4.31,0,5.68,2a5.52,5.52,0,0,1,.43,4.33c-.35-.54-.66-1.11-1.06-1.61a4.87,4.87,0,0,0-4.9-1.89,1.71,1.71,0,0,0-.82.4,18.51,18.51,0,0,1-10.75,4.65,16,16,0,0,1-9.38-1.81A14.64,14.64,0,0,1,41.64,73a1.58,1.58,0,0,1-.09-.57q0-10.92,0-21.84a1.51,1.51,0,0,1,0-.28A8.25,8.25,0,0,1,44.48,55a12.08,12.08,0,0,1,.11,5.55c2.72-.27,5.25-.06,7.54,1.57-.52.24-1,.44-1.43.66a8.93,8.93,0,0,0-4.64,4.55c-1.36,3.22-.63,6.12,1.53,8.74a12.1,12.1,0,0,0,3.66,2.8,11.31,11.31,0,0,0,7,1.28c3.53-.46,5.72-2.64,7.18-5.68a6.39,6.39,0,0,0,.25-5,5.67,5.67,0,0,0-5.2-3.72,7.17,7.17,0,0,0-3.79.92,3.53,3.53,0,0,0-1.59,4.65,3.79,3.79,0,0,0,3.24,2,25.28,25.28,0,0,0,2.62,0c-.33.28-.66.59-1,.86a6.19,6.19,0,0,1-2.9,1.31,4.74,4.74,0,0,1-5.31-3.63,7.15,7.15,0,0,1,2-7.18,11.4,11.4,0,0,1,3.64-2.49l.75-.35a15.84,15.84,0,0,1-8.88-12l.15-.12,1.77,1.75,17.31,17A1.38,1.38,0,0,1,69,69.43C69.08,71.29,69.17,73.15,69.24,75.08Z"/><path d="M13.53,8C8.46,8,6.37,5.75,7.46,1.56c.22.38.4.72.61,1a5,5,0,0,0,5.26,2.53,1.77,1.77,0,0,0,.92-.42A18.44,18.44,0,0,1,25,.09,15.75,15.75,0,0,1,35.37,2.51a14.7,14.7,0,0,1,5.76,7.41,1.85,1.85,0,0,1,.11.67l0,21.79a.31.31,0,0,1-.1.22c-3.08-2.71-3.54-6.22-3-10-1.28-.06-2.57-.05-3.85-.2a7.71,7.71,0,0,1-3.65-1.52l.54-.22a10.45,10.45,0,0,0,4.57-3.29,8,8,0,0,0-.18-10A11.06,11.06,0,0,0,32.3,4.58a13,13,0,0,0-6.67-1.81c-5,0-8.71,4.72-8.91,8.3a5.83,5.83,0,0,0,6.85,6.19,5.42,5.42,0,0,0,3.77-2,3.28,3.28,0,0,0-1.29-5,6.76,6.76,0,0,0-3.77-.42l-.43,0a6.08,6.08,0,0,1,5.74-2.19,5.31,5.31,0,0,1,3.67,4.52,7.49,7.49,0,0,1-3.13,7A26.08,26.08,0,0,1,25,21l-.42.21a16.12,16.12,0,0,1,9.06,12.08l-.13.11c-.75-.73-1.5-1.46-2.24-2.2L15.57,15.71a14.67,14.67,0,0,0-1.14-1.09,1.61,1.61,0,0,1-.56-1.29c-.06-1.51-.16-3-.25-4.53C13.61,8.52,13.57,8.25,13.53,8Z"/><path d="M21.26,58.24a15.83,15.83,0,0,1,11.92-9l.11.13c-.12.14-.24.29-.37.42-5.76,5.8-11.53,11.59-17.25,17.43A4.55,4.55,0,0,1,12,69a30.4,30.4,0,0,0-3.42.24c-.7,0-.66,0-.66.74a9.86,9.86,0,0,1-.16,2.3A4.23,4.23,0,0,1,3,75.61a6.12,6.12,0,0,1-1.39-.28L2.26,75A5.1,5.1,0,0,0,5.1,69.23a1.38,1.38,0,0,0-.3-.59A18.45,18.45,0,0,1,.05,54.86,14.83,14.83,0,0,1,9.94,41.7a1.58,1.58,0,0,1,.56-.1l21.85,0,.32,0a8.14,8.14,0,0,1-4.62,2.88,12.54,12.54,0,0,1-5.45.14c0,.9.06,1.76,0,2.6a16.39,16.39,0,0,1-.48,2.59A6,6,0,0,1,21,52.1c-.45-.87-.82-1.72-1.31-2.51A8.11,8.11,0,0,0,7.41,47.26a12.3,12.3,0,0,0-3.62,4.85,10.75,10.75,0,0,0-.42,8.16,9.32,9.32,0,0,0,8.27,5.82,5.73,5.73,0,0,0,5.67-6.54,5.86,5.86,0,0,0-1.8-3.88,3.27,3.27,0,0,0-5.11.81,6,6,0,0,0-.64,3.62c0,.29.07.58.11.91-2-1.74-3-4.54-1.82-6.75a5.88,5.88,0,0,1,5.71-2.72,8.41,8.41,0,0,1,6.08,4c.47.7.81,1.48,1.21,2.22C21.12,57.92,21.18,58.06,21.26,58.24Z"/><path d="M73,21.85c2.17,2,3.11,5,1.55,7.16a5.4,5.4,0,0,1-4.16,2.29,7.45,7.45,0,0,1-6.62-3A22.75,22.75,0,0,1,62,25.52a7.8,7.8,0,0,1-.43-.91,15.8,15.8,0,0,1-11.93,9l-.12-.13c.13-.14.24-.28.37-.4q9.25-9.33,18.51-18.64a1.4,1.4,0,0,1,.85-.41c1.71-.16,3.43-.28,5.15-.38.39,0,.51-.14.48-.53a7.34,7.34,0,0,1,.31-3A4,4,0,0,1,78.8,7.29c.78,0,1.56,0,2.35.07l0,.18-.88.5a5.1,5.1,0,0,0-2.59,5.57,1.35,1.35,0,0,0,.31.59,18,18,0,0,1,4.71,14.09c-.6,6.25-3.93,10.57-9.83,12.85a1.84,1.84,0,0,1-.62.11l-21.58,0c-.15,0-.3,0-.55-.05a8.3,8.3,0,0,1,4.63-2.87,12.9,12.9,0,0,1,5.54-.12,10.47,10.47,0,0,1,1.58-7.55c.26.59.47,1.11.72,1.6a8.69,8.69,0,0,0,5.83,4.95,8.15,8.15,0,0,0,7.43-2,12.52,12.52,0,0,0,2.86-3.82A11.37,11.37,0,0,0,79.85,24a8.64,8.64,0,0,0-3.21-5.17,8,8,0,0,0-5.48-2.11,5.75,5.75,0,0,0-5.67,6.31,5.88,5.88,0,0,0,1.86,4.18,3.29,3.29,0,0,0,5.15-1,6.37,6.37,0,0,0,.53-3.7C73,22.33,73,22.14,73,21.85Z"/><path d="M30.77,62c2.21-1.57,4.73-1.79,7.43-1.51A12.82,12.82,0,0,1,38.32,55a8.45,8.45,0,0,1,2.91-4.69c0,.27,0,.43,0,.6V72.39a2.24,2.24,0,0,1-.15.77c-2.3,5.83-6.57,9.13-12.79,9.76A18.17,18.17,0,0,1,15.06,79l-.12-.11a3,3,0,0,0-2.08-1.08,5.49,5.49,0,0,0-3,.73A6.24,6.24,0,0,0,7.75,81l-.3.57c-.4-1.94-.42-3.7,1-5.12s3.2-1.44,5.11-1.31c.11-.82.21-1.63.31-2.44.12-1,.22-2.09.38-3.14a1.58,1.58,0,0,1,.41-.85Q21.16,62,27.71,55.46c1.86-1.89,3.73-3.77,5.6-5.66l.33-.3a14.3,14.3,0,0,1-3,7.26,15.54,15.54,0,0,1-6.13,5c.31.15.51.26.72.35a10.33,10.33,0,0,1,5.26,4.66,6.45,6.45,0,0,1,.21,5.85,4.65,4.65,0,0,1-6.57,2.33,25.84,25.84,0,0,1-2.39-1.57l.09-.1c.84,0,1.69.06,2.53,0a4,4,0,0,0,2.91-1.42,3.34,3.34,0,0,0-.47-4.64,6.41,6.41,0,0,0-4-1.49A5.73,5.73,0,0,0,16.75,72a9.19,9.19,0,0,0,3.8,6.49,8.87,8.87,0,0,0,5.89,1.73c3.81,0,8.86-3,10.34-6.65a8,8,0,0,0-2.88-9.75C32.92,63.17,31.84,62.65,30.77,62Z"/><path d="M52.07,21a10.39,10.39,0,0,1-7.44,1.52c.56,3.84.11,7.35-3,10.21a2.84,2.84,0,0,1-.09-.45q0-10.9,0-21.79a1.6,1.6,0,0,1,.11-.57C44,4.07,48.23.73,54.46.11a18.05,18.05,0,0,1,14.19,4.7,1.59,1.59,0,0,0,.75.33,5,5,0,0,0,5.16-2.25c.27-.4.5-.83.76-1.26a5,5,0,0,1-.95,5C72.94,8,71.15,8.06,69.26,7.93c-.11.85-.22,1.68-.31,2.51-.12,1-.21,2-.35,3a1.45,1.45,0,0,1-.41.69Q61.93,20.5,55.67,26.8c-2,2-4.05,4.1-6.08,6.15-.08.08-.18.15-.28.24-.17-.86.49-3.14,1.43-4.88a16.49,16.49,0,0,1,3.16-4.13,15.49,15.49,0,0,1,4.37-2.9L57.61,21a10.24,10.24,0,0,1-5.46-5A6.47,6.47,0,0,1,52,10.49a4.68,4.68,0,0,1,6.77-2.31,10.62,10.62,0,0,1,2.11,1.59c-.84,0-1.69,0-2.54,0a4,4,0,0,0-2.83,1.34,3.32,3.32,0,0,0,.33,4.62C58.25,18,64,18.37,65.75,13.47a6.22,6.22,0,0,0-.3-4.93c-1.44-3-3.6-5.13-7.05-5.63a11.54,11.54,0,0,0-7.6,1.5,10.79,10.79,0,0,0-4.45,4.38A8,8,0,0,0,49.1,19.32C50,19.93,51.05,20.41,52.07,21Z"/><path d="M60.31,44.66c-3.87.54-7.38.09-10.24-3,.28,0,.41-.05.54-.05,7.11,0,14.21,0,21.32,0a3.53,3.53,0,0,1,1.32.26c6,2.48,9.14,7,9.51,13.41A18.11,18.11,0,0,1,78,68.68,2.77,2.77,0,0,0,77.64,71a5.16,5.16,0,0,0,2.9,4l.56.31s0,0,.06.07a4.5,4.5,0,0,1-6.28-4,11.77,11.77,0,0,1,0-1.68c0-.32-.1-.43-.41-.46-1.62-.18-3.25-.35-4.87-.56a1.32,1.32,0,0,1-.73-.35q-7.08-7-14.15-14-2.23-2.21-4.48-4.4a4.16,4.16,0,0,0-.66-.43l.24-.26c5.43.92,9.22,4,11.73,9,.11-.23.21-.42.3-.62a10.65,10.65,0,0,1,4-5,6.64,6.64,0,0,1,6.2-.69,4.7,4.7,0,0,1,2.58,6.79A7.49,7.49,0,0,1,73,61c0-.3,0-.47.07-.63a7.29,7.29,0,0,0-.25-3.18,3.34,3.34,0,0,0-5.85-1.18c-1.81,2-2.43,6.52.86,8.92a5.89,5.89,0,0,0,5.53.83,9.07,9.07,0,0,0,6.51-6.9,11.38,11.38,0,0,0-1.77-8.66,10,10,0,0,0-5.18-4.36,7.87,7.87,0,0,0-9.22,3,28,28,0,0,0-1.57,2.85,4.46,4.46,0,0,0-.19.41A10.44,10.44,0,0,1,60.31,44.66Z"/><path d="M32.56,41.24l-.5,0q-10.73,0-21.43,0a2.2,2.2,0,0,1-.72-.1c-5.28-2-8.61-5.78-9.6-11.35A17.94,17.94,0,0,1,4.75,14.27a1.69,1.69,0,0,0,.37-.73A5.06,5.06,0,0,0,2.51,8c-.28-.17-.58-.32-1-.55a6.46,6.46,0,0,1,3.6,0A3.86,3.86,0,0,1,7.6,10a7.8,7.8,0,0,1,.32,3.61l2.57.33c1,.12,1.92.22,2.88.37a1.26,1.26,0,0,1,.66.37l8.64,8.51,9.8,9.66c.28.27.57.52.9.82-1.5.26-5-1.19-7.2-2.92A15.9,15.9,0,0,1,21.3,24.6c-.37.72-.66,1.37-1,2a8.87,8.87,0,0,1-5.55,4.54,6,6,0,0,1-5.14-.86,4.38,4.38,0,0,1-1.95-4.72,7.73,7.73,0,0,1,2.17-3.74,25.19,25.19,0,0,0,0,2.89,3.71,3.71,0,0,0,1.86,3,3.31,3.31,0,0,0,4.23-.9c2.17-2.56,2.23-7.68-2-9.53a6.3,6.3,0,0,0-5.32.14A9.25,9.25,0,0,0,3,23.74c-1.21,5.07,1.9,10.65,5.56,12.63a8,8,0,0,0,10.64-2.49,27.86,27.86,0,0,0,1.42-2.58c.08-.16.15-.33.27-.59a7.25,7.25,0,0,1,1.48,3.57c.16,1.26.17,2.55.25,3.9,3.67-.52,7.2-.11,9.94,2.89Z"/></g></g></svg>