<svg xmlns="http://www.w3.org/2000/svg" viewBox="0 0 375 637"><defs><style>.cls-1{fill:#fff;}</style></defs><title>patterns</title><g id="Layer_2" data-name="Layer 2"><g id="Layer_1-2" data-name="Layer 1"><path class="cls-1" d="M0,151.87a35.76,35.76,0,0,0,6.7-.27,35.4,35.4,0,0,0,15.44-7,60,60,0,0,0,19.33-24.2A30,30,0,0,0,43.7,113c0-.11,0-.21.08-.34l.34,0A36.62,36.62,0,0,0,67.55,104,25.6,25.6,0,0,0,75.32,93.6a20.57,20.57,0,0,0,1.49-9.3,2.28,2.28,0,0,1,0-.27l6.8,1.09c0,.84,0,1.78-.14,2.7a35.24,35.24,0,0,1-7.33,18.11,35.26,35.26,0,0,1-15.2,11.75,29.13,29.13,0,0,1-8.27,2c-.94.09-1.88.13-2.83.17-.22,0-.35.05-.42.3a47.15,47.15,0,0,1-7.13,14.2,72.18,72.18,0,0,1-17.12,17.27,48.34,48.34,0,0,1-12.78,6.71,30.25,30.25,0,0,1-7,1.51,1.57,1.57,0,0,0-.31.08H0Z"/><path class="cls-1" d="M13.73,64c-2.93-1.89-4.29-4.72-5.09-7.9a21.83,21.83,0,0,1,.09-11.29,14.31,14.31,0,0,1,5.4-7.8,1.65,1.65,0,0,0,.43-.4,14.49,14.49,0,0,0,2.33-6.52,5,5,0,0,0-2-4.43,3.57,3.57,0,0,0-4.42,0,4.67,4.67,0,0,0-2.26,3.5A1.14,1.14,0,0,0,9,30.47a3.1,3.1,0,0,0,1.12.22.79.79,0,0,0,.77-1.17.9.9,0,0,1,.52-1.3,3.56,3.56,0,0,1,2.09-.15A2,2,0,0,1,14.79,30a4.06,4.06,0,0,1-.58,2.29,6.86,6.86,0,0,1-7,3.15A4.1,4.1,0,0,1,4,32a10.88,10.88,0,0,1,1.41-8.84A.81.81,0,0,0,5.21,22a4.37,4.37,0,0,0-1.13-.7c-.31-.15-.67-.19-1-.31a1.16,1.16,0,0,1-.92-1.42A1.65,1.65,0,0,1,4.51,18l.52.18a2.88,2.88,0,0,0-.47-1.72c-.43-.64-.95-1.22-1.42-1.83a10,10,0,0,1-.78-1.06,2.25,2.25,0,0,1,.75-3,4.07,4.07,0,0,1,2.38-.57c-.17.47-.33.9-.47,1.34a1.26,1.26,0,0,0,.42,1.51c.59.44,1.19.88,1.81,1.29s1.12.62,1.65,1c1.31.86,1.62,1.89,1.21,3.55,0,.11-.08.22-.13.38a2.33,2.33,0,0,0,.37-.08,7,7,0,0,1,3.86-.16,10,10,0,0,1,6.84,4.22,10.34,10.34,0,0,1,1.79,6.86,22.76,22.76,0,0,1-.91,3.66c0,.14-.08.28-.14.47h2.47A13.41,13.41,0,0,1,29.5,35a9.31,9.31,0,0,1,5,5.39,20.92,20.92,0,0,1,1.36,6c.07.71.09,1.43.17,2.15a1.91,1.91,0,0,0,2.79,1.35,1,1,0,0,0,.3-1.41c-.2-.3-.45-.57-.68-.85s-.42-.48-.61-.73a1.07,1.07,0,0,1,.16-1.7,4.08,4.08,0,0,1,2.43-.9,4.41,4.41,0,0,1,4.4,6,5,5,0,0,1-1.54,2.06,13,13,0,0,1-7.2,3,6.12,6.12,0,0,1-3.77-1,.05.05,0,0,0,0,0,4.22,4.22,0,0,1-5.28,2c-.69-.21-1.36-.46-2.08-.71-.22.21-.49.47-.78.7a1.74,1.74,0,0,1-3-.72,7.83,7.83,0,0,1-.64-2.82c0-.38-.06-.63-.54-.7a1.36,1.36,0,0,1-1-1,5.9,5.9,0,0,1-.39-1.58A8.72,8.72,0,0,1,19,46.06a4.15,4.15,0,0,1,3-2.89,5.91,5.91,0,0,1,4,0,3.4,3.4,0,0,1,2.19,2.36c.21.89-.09,1.35-1,1.49-.52.08-1.06.08-1.59.15a1.29,1.29,0,0,0-1,2.14,4.36,4.36,0,0,0,2.23,1.61,4.67,4.67,0,0,0,3.5-.24,1.17,1.17,0,0,0,.83-1.16,18.6,18.6,0,0,0-1.05-5.42,5.52,5.52,0,0,0-4.87-3.76,9.72,9.72,0,0,0-4.82.82,11.78,11.78,0,0,0-5.19,4.17,8.21,8.21,0,0,0-1,7.48A12.06,12.06,0,0,0,20.32,60a17.61,17.61,0,0,0,10.08,2,1.74,1.74,0,0,0,1.22-.59,16.05,16.05,0,0,1,3.7-2.63A37.1,37.1,0,0,1,46.8,54.47a26.88,26.88,0,0,1,7.44-.2,35.57,35.57,0,0,1,9.11,2.09,32.07,32.07,0,0,1,12.76,8.47A27.31,27.31,0,0,1,82,75.1c0,.07,0,.15.07.3-.58-.06-1.12-.09-1.65-.17a20.56,20.56,0,0,1-6.61-2.13,1,1,0,0,1-.38-.37A19.93,19.93,0,0,0,64.2,64a27.61,27.61,0,0,0-8.91-2.5,30.72,30.72,0,0,0-9.23.26,16.32,16.32,0,0,0-9.53,5A16.75,16.75,0,0,0,32.84,74a26.28,26.28,0,0,0-.81,9.7,11.6,11.6,0,0,0,5.79,8.92,14.8,14.8,0,0,0,9.65,2.08,7.72,7.72,0,0,0,6.15-4.2A12.59,12.59,0,0,0,55,83.35a5.08,5.08,0,0,0-2.77-4.19,8.94,8.94,0,0,0-9.59.56c-2.25,1.6-1.9,4.61.63,5.91a4.52,4.52,0,0,0,2.16.51.74.74,0,0,0,.73-.45.73.73,0,0,0-.08-.84,9.22,9.22,0,0,1-1-1.55,1.67,1.67,0,0,1,1.25-2.57,4,4,0,0,1,2.79.33A3.14,3.14,0,0,1,51,83.85a9.22,9.22,0,0,1-.35,3.09,4.85,4.85,0,0,1-4.11,3.7,8.79,8.79,0,0,1-8.42-2.76,8.24,8.24,0,0,1-2.28-6.4,8.32,8.32,0,0,1,2.46-5.08,13.42,13.42,0,0,1,4.27-3c.29-.14.42-.27.33-.6-.22-.8-.4-1.62-.63-2.43a4,4,0,0,1,1.85-4.91A7.91,7.91,0,0,1,49,64.31a7.69,7.69,0,0,1,2.83.61,3,3,0,0,1,1.54,3.46,1.48,1.48,0,0,1-1.8,1.13,12.25,12.25,0,0,1-2.34-.64c-.93-.39-1.73.63-1.65,1.36a2.32,2.32,0,0,0,1.83,1.9c4.15.66,7.61,2.47,9.83,6.18a11.5,11.5,0,0,1,1.19,8.94,14.32,14.32,0,0,1-1.81,4.42c.66.07,1.29.12,1.91.21a3.82,3.82,0,0,1,1.11.31,3,3,0,0,0,3.91-1.82,2,2,0,0,0,0-.24c0-.6-.2-.81-.81-.72-1.32.19-1.59-.1-1.29-1.39a5.36,5.36,0,0,1,1.94-3.08c1.55-1.22,4-.68,5.33.56a4.2,4.2,0,0,1,.53,5.35,7.71,7.71,0,0,1-4,3.1l-.43.16a8.47,8.47,0,0,1,1.52,3.35,3.45,3.45,0,0,1-.37,2.77,4.68,4.68,0,0,1-2.93,2.47c-.63.15-.68.09-.74-.54a6.87,6.87,0,0,0-.57-2.6,2.58,2.58,0,0,0-1.2-1.22c-.16.8-.26,1.6-.49,2.37a10.69,10.69,0,0,1-3.25,5.43,4.05,4.05,0,0,1-3,1.09c-.73,0-1.46,0-2.18-.17-1.9-.29-2.55-1.55-2.39-3.33a4.25,4.25,0,0,1,.79-2.11,1.53,1.53,0,0,1,1.93-.71c.49.12,1,.3,1.45.41a2.76,2.76,0,0,0,3.1-1.27,5.9,5.9,0,0,0,.76-3,.28.28,0,0,0-.14-.24,7.81,7.81,0,0,0-2.72-.87.67.67,0,0,0-.6.28,12.63,12.63,0,0,1-6.63,4.41,11,11,0,0,1-4.6.17c-1.53-.23-3-.58-4.54-.87a1.7,1.7,0,0,0-.26,0c0,.27,0,.52,0,.77a19.76,19.76,0,0,1-6.09,15.18,12.65,12.65,0,0,1-7.88,3.75,25.28,25.28,0,0,1-3.79-.08c-1,0-2-.22-3-.26a13.93,13.93,0,0,0-4.43.76,10.28,10.28,0,0,0-3.59,1.76,5.4,5.4,0,0,0-1.46,6.92,10.76,10.76,0,0,0,6,5c2.24.77,3.64-.12,4.56-2.09a3.06,3.06,0,0,0,.24-2.44,3.14,3.14,0,0,0-.56-1,1.27,1.27,0,0,0-1.71-.11c-.28.2-.25.47-.19.75.1.52,0,.77-.5.92a5.72,5.72,0,0,1-2.57.16,2,2,0,0,1-.72-.32,4.68,4.68,0,0,1-1.82-4.35,2.92,2.92,0,0,1,1.1-1.75,6.91,6.91,0,0,1,6.08-1.41c1.43.36,2.82.85,4.23,1.3a.51.51,0,0,0,.62-.14,8,8,0,0,1,4.36-2.34,5.16,5.16,0,0,1,6.16,4.16,6.79,6.79,0,0,1,0,3.17,2.65,2.65,0,0,1-3.36,1.9A1.6,1.6,0,0,1,30.32,129c-.16-.48-.26-1-.4-1.46a1.16,1.16,0,0,0-1.79-.87,2.6,2.6,0,0,0-1.25,1.13,10.13,10.13,0,0,0-1.14,3.43,29.49,29.49,0,0,1-.91,3.62,5.13,5.13,0,0,1-4.54,3.57,13.16,13.16,0,0,1-5.23-.07.47.47,0,0,0-.15,0,5.57,5.57,0,0,1,.62,4.29,2.91,2.91,0,0,1-3,2.56c-1,0-1.94,0-2.92-.06a2.16,2.16,0,0,1,.07.73,4.93,4.93,0,0,1-.5,1.36c-.71,1.18-3.43,2-4.64,1.57a3.49,3.49,0,0,1-1.86-1.24c-.43-.67-.29-1.05.51-1.15s1.43-.1,2.15-.15a4.5,4.5,0,0,0,.51-.08c.52-.11.73-.31.75-.69a.92.92,0,0,0-.68-1c-.46-.15-.94-.27-1.41-.41a1.06,1.06,0,0,1-.81-.85,7.68,7.68,0,0,1-.11-1.51,1.18,1.18,0,0,1,.82-1.05c.87-.32,1.77-.56,2.66-.82.56-.16,1.14-.26,1.7-.42a2.33,2.33,0,0,0,.72-.32,1.16,1.16,0,0,0,.42-.51A2.07,2.07,0,0,0,9,136.69a8.15,8.15,0,0,1-3.22-2.8,12.09,12.09,0,0,1-2.31-8.48A11,11,0,0,1,7.6,118a11.06,11.06,0,0,1,4.67-2.42c-.52-.29-1-.55-1.49-.84a13.13,13.13,0,0,1-4.95-5c-1.66-3.18-1.19-6.23.8-9.1a15.84,15.84,0,0,1,4.51-4.08l.64-.41a5.11,5.11,0,0,0,2.16-4.18.62.62,0,0,0-.21-.49c-1.18-1-2.47-1.73-4.11-1.23a7.78,7.78,0,0,0-1,.47,2.83,2.83,0,0,1,1.59,1.86,2,2,0,0,1-.05,1A4,4,0,0,1,9,95.46,1.6,1.6,0,0,1,7.53,96,5.91,5.91,0,0,1,4.3,94.32a3.53,3.53,0,0,1-.17-5A11,11,0,0,1,8.4,86.44a11.05,11.05,0,0,1,3.68-1,7.82,7.82,0,0,1,6.22,2.26,3.45,3.45,0,0,1,.93,3.1c-.16,1-.38,2-.57,3,.43,0,.88-.11,1.34-.1A7.39,7.39,0,0,1,24.13,95a4.61,4.61,0,0,1,1.14,1.15,1.53,1.53,0,0,1,0,1.87c-.21.31-.43.61-.65.91s-.34.45-.5.68c-.66.95-.39,1.51.79,1.62a11.16,11.16,0,0,1,1.14.16,2,2,0,0,1,1.81,2.74,7.16,7.16,0,0,1-2.59,4,8.21,8.21,0,0,1-5.69,2,21.6,21.6,0,0,1-2.67-.13,2.37,2.37,0,0,1-2.22-2.16,5.55,5.55,0,0,1,0-2.5A1.57,1.57,0,0,1,17,104.18c.61.21,1.18.49,1.79.69a1.47,1.47,0,0,0,2.13-1.39c.19-1.58-.45-2.42-2.15-2.7a7.47,7.47,0,0,0-4.85.68,4.61,4.61,0,0,0-2.72,3.78,4.94,4.94,0,0,0,1.16,3.63,10.64,10.64,0,0,0,4.89,3.26,16,16,0,0,0,10.31.28,8.19,8.19,0,0,0,5.75-5.81A20.89,20.89,0,0,0,34,99.52c0-.4,0-.8-.08-1.2a.44.44,0,0,0-.17-.31,10.69,10.69,0,0,1-3.68-3.55,28.69,28.69,0,0,1-4.62-10.61,14.26,14.26,0,0,1-.1-4,45.64,45.64,0,0,1,2.15-10.66c.08-.26.17-.51.26-.78a23,23,0,0,1-9.74-1.88.86.86,0,0,0-.75,0,7.61,7.61,0,0,0-3.62,4.3,2.41,2.41,0,0,0,.37,2.27,4.27,4.27,0,0,0,3.68,1.83,2.34,2.34,0,0,0-.18-.5,7.48,7.48,0,0,0-.54-.69,1.22,1.22,0,0,1,.27-2,4.63,4.63,0,0,1,1.52-.55,5.7,5.7,0,0,1,2.69.1,2.82,2.82,0,0,1,2.22,2.86,6.73,6.73,0,0,1-2.58,5.44,4.73,4.73,0,0,1-5.56.3l-.34-.21A2.14,2.14,0,0,1,15,80c-.47.42-.93.87-1.44,1.25a2.16,2.16,0,0,1-1.51.41,11.3,11.3,0,0,1-3.11-.45,2.74,2.74,0,0,1-2-3.6,24,24,0,0,1,1-2.68c.06-.13.14-.25.25-.46-.39.07-.7.13-1,.17A3.74,3.74,0,0,1,3.48,73.1a7.52,7.52,0,0,1-1.37-6,2.88,2.88,0,0,1,1.65-2.17,5.43,5.43,0,0,1,3.69-.45.9.9,0,0,1,.79,1.23,14.66,14.66,0,0,1-.61,1.55c-.16.4-.34.78-.47,1.18a1,1,0,0,0,0,.51c.13.54.37.7.86.49a3.49,3.49,0,0,0,1.16-.74c.66-.7,1.25-1.46,1.85-2.21A8.26,8.26,0,0,1,13.73,64Z"/><path class="cls-1" d="M64.11,13.77a8,8,0,0,1,2.39-2.64C67.25,10.54,68,10,68.72,9.3a3.75,3.75,0,0,0,.77-1.1c.1-.2.13-.62,0-.72a1.17,1.17,0,0,0-.86-.27,4,4,0,0,0-1.11.41c-.52.22-1,.5-1.57.67a1,1,0,0,1-1.42-.82,5.1,5.1,0,0,1,.67-4A3.34,3.34,0,0,1,68.12,2a7.88,7.88,0,0,1,5,1.38,3.87,3.87,0,0,1,1.72,2.85,12.13,12.13,0,0,1-.13,1.88c.29-.14.58-.31.89-.45a7.62,7.62,0,0,1,2.8-.87,2.6,2.6,0,0,1,2.71,1.5,8,8,0,0,1,.69,4.37,4.14,4.14,0,0,1-.87,1.58A13.36,13.36,0,0,1,80,15.41a14,14,0,0,1,.68,1.8,4.37,4.37,0,0,1-.94,4,6.79,6.79,0,0,1-5.5,2.53,2.84,2.84,0,0,1-2.86-2.38,5.8,5.8,0,0,1,.15-3.3,2.7,2.7,0,0,1,.55-1,1.15,1.15,0,0,1,1.7-.12c.27.22.53.44.82.64a.45.45,0,0,0,.36.08c.08,0,.11-.23.1-.35a4.19,4.19,0,0,0-1.69-3.17,2.64,2.64,0,0,0-2.72-.38,7.94,7.94,0,0,0-4,3.45,1,1,0,0,0,0,.9A23.53,23.53,0,0,1,68.54,27c0,.27,0,.53,0,.79,1.13-.33,2.24-.69,3.36-1a43.55,43.55,0,0,1,9.57-1.48,15.53,15.53,0,0,1,5.88,1.09,28.51,28.51,0,0,1,8,4.27,10.26,10.26,0,0,1,2.8,3.1.48.48,0,0,0,.34.2,21.39,21.39,0,0,0,8.27-.66,8.41,8.41,0,0,0,6-6.69,15.94,15.94,0,0,0-1.47-11.45,9.32,9.32,0,0,0-2.1-2.65,4.79,4.79,0,0,0-7.95,2,7.49,7.49,0,0,0-.33,4.51,3.51,3.51,0,0,0,.66,1.34c.74.93,2.64.6,3.19,0a1.4,1.4,0,0,0,.25-1.46c-.22-.68-.53-1.34-.76-2a1.56,1.56,0,0,1,1-2.13,2.58,2.58,0,0,1,.42-.12,6.17,6.17,0,0,1,2.53.11,2.48,2.48,0,0,1,1.91,2.34,11.15,11.15,0,0,1-2.07,8.31A5.84,5.84,0,0,1,103.7,28a1.72,1.72,0,0,1-1.92-1.11,11.69,11.69,0,0,1-.42-1.77c-.06-.25-.07-.51-.15-.74a.63.63,0,0,0-1-.42,7.11,7.11,0,0,0-.74.47c-.38.27-.75.56-1.14.81A1.77,1.77,0,0,1,96,25.1a5.8,5.8,0,0,1-1.71-2.83A6.49,6.49,0,0,1,94,18.72c-.8.16-1.57.34-2.35.48A4.11,4.11,0,0,1,86.76,17,9.68,9.68,0,0,1,86,15.26a7.76,7.76,0,0,1-.09-4.79A14.57,14.57,0,0,1,88.66,5a9.63,9.63,0,0,1,.85-.84,3.56,3.56,0,0,1,5.09.34,5.65,5.65,0,0,1,1.51,3.36,1.3,1.3,0,0,1-.18.79,3.75,3.75,0,0,1-2.58,1.72A2.67,2.67,0,0,1,91,9l-.1-.22a2,2,0,0,0-.63,1.35,4.21,4.21,0,0,0,1.29,3.58,1,1,0,0,0,.67.25A10.35,10.35,0,0,0,94,13.73a3.11,3.11,0,0,0,2-1.45,23.07,23.07,0,0,1,3.9-4.85,9,9,0,0,1,7-2.49,8.21,8.21,0,0,1,4.39,1.85A15.16,15.16,0,0,1,115.45,12c0,.11.12.23.21.41.09-.3.14-.52.22-.74,1.59-4.27,4.47-7.23,9-8a11.46,11.46,0,0,1,11.18,4.24,6.22,6.22,0,0,1,.73,1.19,2,2,0,0,0,2,.87,1.24,1.24,0,0,0,.59-.65c.27-.8.44-1.62.66-2.42a20.17,20.17,0,0,1,.63-2.18,1.47,1.47,0,0,1,1.74-1.07l.44,0a1.34,1.34,0,0,1,1.46,1.16c.12.42.24.84.38,1.25a.88.88,0,0,0,.92.55A.65.65,0,0,0,146.3,6a12.42,12.42,0,0,0,.16-1.35c.06-.57.06-1.14.16-1.7s.41-.7.86-.4a3.69,3.69,0,0,1,1,.92c1.17,1.64.41,4.06-.53,5.21a2.51,2.51,0,0,1-1.74,1,7.57,7.57,0,0,1-.93,0c0,.42.12.85.12,1.28a15.48,15.48,0,0,1-.15,2.46,2.79,2.79,0,0,1-2.5,2.25,5.4,5.4,0,0,1-4.29-.75,10.9,10.9,0,0,1,.26,3.92,16,16,0,0,1-.42,2.67A4.83,4.83,0,0,1,134.8,25c-1.27.39-2.58.62-3.88.89a8.6,8.6,0,0,0-3,1.11,2.29,2.29,0,0,0-1.21,1.9.86.86,0,0,0,.64,1c.39.13.8.22,1.19.32,1.27.33,1.78.83,1.85,1.83a2.57,2.57,0,0,1-1.51,2.74c-1.75.73-5.3.4-6.87-1.78a5.5,5.5,0,0,1-.82-4.9,8.12,8.12,0,0,1,2.13-3.6.65.65,0,0,0,.19-.76c-.48-1.49-1-3-1.35-4.5a6.59,6.59,0,0,1,1.6-5.83c1-1.19,2.35-1.39,4-.72a6.07,6.07,0,0,1,1.24.7,2.58,2.58,0,0,1,1.17,2.4,11.07,11.07,0,0,1-.23,1.73c-.13.55-.42.66-1,.51a.6.6,0,0,0-.84.42,1.38,1.38,0,0,0,.7,1.85,2.79,2.79,0,0,0,1.86.26A4.72,4.72,0,0,0,133.44,19a2.91,2.91,0,0,0,.5-2.87,10.24,10.24,0,0,0-5.58-6.59,5.28,5.28,0,0,0-6.59,1.82,12.52,12.52,0,0,0-2,4.82,9.78,9.78,0,0,0-.4,3c.1,1.13.19,2.25.34,3.38a13.12,13.12,0,0,1-4,11.58,20,20,0,0,1-11.29,5.59,15.64,15.64,0,0,1-4.38.09c.16.75.36,1.46.47,2.18a42.4,42.4,0,0,1,.57,4.31,9.93,9.93,0,0,1-2.69,7.3c-.65.75-1.44,1.38-2.15,2.09a.73.73,0,0,0-.21.45,5.1,5.1,0,0,0,.62,2.21c.36.79.35.81,1.21.72a5,5,0,0,0,2.33-.75,2.83,2.83,0,0,0,1.22-3.2c-.15-.53-.32-1-.46-1.57a1.34,1.34,0,0,1,.38-1.35,4.38,4.38,0,0,1,4.43-.86,2.22,2.22,0,0,1,1.2,1.33,8.07,8.07,0,0,1,.27,4A5.44,5.44,0,0,1,104.76,60a12.47,12.47,0,0,1-6.35,2.32,2.34,2.34,0,0,0,.83,1,4.45,4.45,0,0,0,2.2.74l1,.1c.27,0,.38.15.34.45a3.76,3.76,0,0,1-1.23,2.27,4.81,4.81,0,0,1-2.75,1.43,4.09,4.09,0,0,1-1.3-.14,7.66,7.66,0,0,1-3.3-1.49c-.19.44-.35.87-.56,1.29a6.9,6.9,0,0,1-3.14,3.39,4.19,4.19,0,0,1-6.17-3.58,3.69,3.69,0,0,1,1.42-3.27,5.05,5.05,0,0,1,3-1.24c.5,0,.68.15.7.65,0,.32,0,.64,0,1s.13.56.58.55a2.36,2.36,0,0,0,2.3-2.19,3.23,3.23,0,0,0-.14-1.79,12.27,12.27,0,0,1-.42-2c0-.28,0-.58,0-.92l-.31.16a14.56,14.56,0,0,1-6.88,2.21,10.94,10.94,0,0,1-7.78-2.69,13.28,13.28,0,0,1-4.41-7.89c-.07-.36-.11-.73-.17-1.1a2.15,2.15,0,0,0-2.51-1.44A1.18,1.18,0,0,0,69,49.19c.21.74.43,1.48.61,2.23a1.64,1.64,0,0,1-1.69,2.14,2.84,2.84,0,0,1-3.07-2.12,8.53,8.53,0,0,1,.5-6.85,4.61,4.61,0,0,1,2.84-2.41,3.62,3.62,0,0,1,2,.07c.84.25,1.68.49,2.53.7.62.16.63.14.9-.43a13.74,13.74,0,0,1,3.18-4.41,8,8,0,0,1,11.55.42,8.73,8.73,0,0,1,2.38,8.24,5,5,0,0,1-4.37,4.13,12.33,12.33,0,0,1-2.1.19,3.35,3.35,0,0,1-3.48-3,3.91,3.91,0,0,1,.14-2,1.57,1.57,0,0,1,2.2-1,14.81,14.81,0,0,1,1.91,1.14.76.76,0,0,0,1.18-.51,4.06,4.06,0,0,0-3.82-4.48,2.82,2.82,0,0,0-2.25,1.12,8.23,8.23,0,0,0-1.81,4,8.26,8.26,0,0,0,1.62,7,5,5,0,0,0,3.91,1.87,13.17,13.17,0,0,0,6.28-1.25,7.81,7.81,0,0,0,4.63-6.5,14.33,14.33,0,0,0-4.14-12.11A11.14,11.14,0,0,0,83.37,32a25.85,25.85,0,0,0-12.23,1.89,15.06,15.06,0,0,0-8.82,10.41A26,26,0,0,0,61.57,54a2.06,2.06,0,0,1,0,.34l-7.24-1.4c0-.43-.09-1-.1-1.51a28.14,28.14,0,0,1,1.87-10.11,32.8,32.8,0,0,1,4.49-8.65c.37-.48.83-.9,1.24-1.35A.59.59,0,0,0,62,31a17.92,17.92,0,0,0-2.25-11.19,12,12,0,0,0-7.11-5.65,8.37,8.37,0,0,0-8.82,2.45,11.58,11.58,0,0,0-3.31,6.64,6.27,6.27,0,0,0,1.26,5.19,6.15,6.15,0,0,0,3.35,2c1.4.32,2.83.5,4.24.73a1.3,1.3,0,0,0,1.44-.84,4.68,4.68,0,0,0,.45-2.72,4.38,4.38,0,0,0-1.66-2.87,1.88,1.88,0,0,0-1.09-.39c-.77,0-1.15.49-1.23,1.43,0,.42-.05.85-.09,1.27-.1,1-.61,1.33-1.56,1.1a3.17,3.17,0,0,1-1.86-1.3A4.49,4.49,0,0,1,43,23.47,9.75,9.75,0,0,1,43.3,22,4.06,4.06,0,0,1,46,19.12a8.59,8.59,0,0,1,4.84-.26,1.82,1.82,0,0,1,1.61,1.65c.73.11,1.46.18,2.17.35a6.64,6.64,0,0,1,1.62.63,1.55,1.55,0,0,1,.59,2.38,13.91,13.91,0,0,1-1,1.2c.24.71.51,1.44.72,2.19a4.21,4.21,0,0,1-2.1,5.15,6.37,6.37,0,0,1,1,2.7,6.69,6.69,0,0,1-.32,3.11A12.23,12.23,0,0,1,52,44a4.59,4.59,0,0,1-6.38-.15,4.68,4.68,0,0,1-.37-5.53c.5-.68,1.14-1,1.95-.28.41.37.85.73,1.28,1.09a1.11,1.11,0,0,0,1.23.16,1.13,1.13,0,0,0,.59-1,2,2,0,0,0-1.88-2.15,22.71,22.71,0,0,1-7.85-1.47,9.3,9.3,0,0,1-6.2-8.35c-.11-1.31-.09-2.64-.14-4,0-.13,0-.26,0-.44L33,22.24a11.87,11.87,0,0,1-4.27.68A10.09,10.09,0,0,1,19,14.28a9.87,9.87,0,0,1-.18-1.87,11.83,11.83,0,0,1,.29-1.75c0-.19.1-.37.16-.56L18,10.3a2.53,2.53,0,0,1-2.59-1.22c-.38-.57-.68-1.2-1.07-1.78S13.41,6,12.92,5.41a1.17,1.17,0,0,0-1.34-.35l-1.35.47A2.91,2.91,0,0,1,12,2.26a2.37,2.37,0,0,1,2.21.49c.56.45,1.09.93,1.65,1.38a3.79,3.79,0,0,0,2.39,1A10.24,10.24,0,0,1,18.07,4a1.73,1.73,0,0,1,2.35-1.67,1.18,1.18,0,0,1,.71.8c.18.52.34,1,.54,1.54a1.46,1.46,0,0,0,1.09.92.72.72,0,0,0,.48-.08A10,10,0,0,1,29.9,3.71,11,11,0,0,1,32.19,4a4.37,4.37,0,0,1,3.46,5,6.77,6.77,0,0,1-2.93,5.06,3.81,3.81,0,0,1-3.1.7,1.76,1.76,0,0,1-1.46-1.88,5.57,5.57,0,0,1,.19-1.41.89.89,0,0,1,1.25-.57A.86.86,0,0,0,30.86,10a3.51,3.51,0,0,0-.35-1.17,1,1,0,0,0-1.09-.58A5,5,0,0,0,25,12.58a3.54,3.54,0,0,0,1.29,2.93,5.27,5.27,0,0,0,4.88,1.36,17.15,17.15,0,0,0,5.33-2.06,2.05,2.05,0,0,0,.63-.58,14.7,14.7,0,0,1,10.07-6,22.33,22.33,0,0,1,10.64.89,12.14,12.14,0,0,1,5.49,3.51C63.58,13,63.82,13.38,64.11,13.77Z"/><path class="cls-1" d="M56.07,63c.89.16,1.71.29,2.53.45a23.45,23.45,0,0,1,6,1.86,1.4,1.4,0,0,1,.57.51A23.74,23.74,0,0,0,72,73.26a21.06,21.06,0,0,0,8.46,3.26,28.56,28.56,0,0,0,7.33.3,22.11,22.11,0,0,0,9.71-3.38,30.62,30.62,0,0,0,9.93-10.5,38,38,0,0,0,4.78-12.83,28.89,28.89,0,0,0,.49-5.72c0-.4.07-.56.51-.64a36.19,36.19,0,0,0,11.26-4.1A60.75,60.75,0,0,0,146,20.38a35.71,35.71,0,0,0,5.29-11.46,25.34,25.34,0,0,0,.75-6.13c0-.92,0-1.84,0-2.79H160V.42c0,1.24,0,2.48,0,3.71a20.4,20.4,0,0,1-.77,5.92,43.38,43.38,0,0,1-5.61,12.47,69.31,69.31,0,0,1-12.83,14.87,64.74,64.74,0,0,1-13,9.08,38.48,38.48,0,0,1-7.39,3,.38.38,0,0,0-.33.43,32.21,32.21,0,0,1-8,20.63A37.73,37.73,0,0,1,94.32,82.22a29.26,29.26,0,0,1-10,1.4A30.56,30.56,0,0,1,61.69,73.06a27.37,27.37,0,0,1-5.48-9.66Z"/><path class="cls-1" d="M375,151.87a35.76,35.76,0,0,1-6.7-.27,35.4,35.4,0,0,1-15.44-7,60,60,0,0,1-19.33-24.2A30,30,0,0,1,331.3,113c0-.11-.05-.21-.08-.34l-.34,0A36.62,36.62,0,0,1,307.45,104a25.6,25.6,0,0,1-7.77-10.39,20.57,20.57,0,0,1-1.49-9.3,2.28,2.28,0,0,0,0-.27l-6.8,1.09c0,.84,0,1.78.14,2.7a37.12,37.12,0,0,0,22.53,29.86,29.13,29.13,0,0,0,8.27,2c.94.09,1.88.13,2.83.17.22,0,.35.05.42.3a47.15,47.15,0,0,0,7.13,14.2,72.18,72.18,0,0,0,17.12,17.27,48.34,48.34,0,0,0,12.78,6.71,30.25,30.25,0,0,0,7,1.51,1.57,1.57,0,0,1,.31.08H375Z"/><path class="cls-1" d="M361.27,64c2.93-1.89,4.29-4.72,5.09-7.9a21.83,21.83,0,0,0-.09-11.29,14.31,14.31,0,0,0-5.4-7.8,1.65,1.65,0,0,1-.43-.4,14.49,14.49,0,0,1-2.33-6.52,5,5,0,0,1,2-4.43,3.57,3.57,0,0,1,4.42,0,4.67,4.67,0,0,1,2.26,3.5,1.14,1.14,0,0,1-.76,1.37,3.1,3.1,0,0,1-1.12.22.79.79,0,0,1-.77-1.17.9.9,0,0,0-.52-1.3,3.56,3.56,0,0,0-2.09-.15A2,2,0,0,0,360.21,30a4.06,4.06,0,0,0,.58,2.29,6.86,6.86,0,0,0,6.95,3.15A4.1,4.1,0,0,0,371,32a10.88,10.88,0,0,0-1.41-8.84.81.81,0,0,1,.16-1.11,4.37,4.37,0,0,1,1.13-.7c.31-.15.67-.19,1-.31a1.16,1.16,0,0,0,.92-1.42A1.65,1.65,0,0,0,370.49,18l-.52.18a2.88,2.88,0,0,1,.47-1.72c.43-.64.95-1.22,1.42-1.83a10,10,0,0,0,.78-1.06,2.25,2.25,0,0,0-.75-3,4.07,4.07,0,0,0-2.38-.57c.17.47.33.9.47,1.34a1.26,1.26,0,0,1-.42,1.51c-.59.44-1.19.88-1.81,1.29s-1.12.62-1.65,1c-1.31.86-1.62,1.89-1.21,3.55,0,.11.08.22.13.38a2.33,2.33,0,0,1-.37-.08,7,7,0,0,0-3.86-.16A10,10,0,0,0,354,23.07a10.34,10.34,0,0,0-1.79,6.86,22.76,22.76,0,0,0,.91,3.66c0,.14.08.28.14.47h-2.47a13.41,13.41,0,0,0-5.24.91,9.31,9.31,0,0,0-5.05,5.39,20.92,20.92,0,0,0-1.36,6c-.07.71-.09,1.43-.17,2.15a1.91,1.91,0,0,1-2.79,1.35,1,1,0,0,1-.3-1.41c.2-.3.45-.57.68-.85s.42-.48.61-.73a1.07,1.07,0,0,0-.16-1.7,4.08,4.08,0,0,0-2.43-.9,4.41,4.41,0,0,0-4.4,6,5,5,0,0,0,1.54,2.06,13,13,0,0,0,7.2,3,6.12,6.12,0,0,0,3.77-1,.05.05,0,0,1,0,0,4.22,4.22,0,0,0,5.28,2c.69-.21,1.36-.46,2.08-.71.22.21.49.47.78.7a1.74,1.74,0,0,0,3-.72,7.83,7.83,0,0,0,.64-2.82c0-.38.06-.63.54-.7a1.36,1.36,0,0,0,1-1,5.9,5.9,0,0,0,.39-1.58,8.72,8.72,0,0,0-.35-3.55,4.15,4.15,0,0,0-3-2.89,5.91,5.91,0,0,0-4,0,3.4,3.4,0,0,0-2.19,2.36c-.21.89.09,1.35,1,1.49.52.08,1.06.08,1.59.15a1.29,1.29,0,0,1,.95,2.14,4.36,4.36,0,0,1-2.23,1.61,4.67,4.67,0,0,1-3.5-.24,1.17,1.17,0,0,1-.83-1.16,18.6,18.6,0,0,1,1.05-5.42,5.52,5.52,0,0,1,4.87-3.76,9.72,9.72,0,0,1,4.82.82,11.78,11.78,0,0,1,5.19,4.17,8.21,8.21,0,0,1,1,7.48A12.06,12.06,0,0,1,354.68,60a17.61,17.61,0,0,1-10.08,2,1.74,1.74,0,0,1-1.22-.59,16.05,16.05,0,0,0-3.7-2.63,37.1,37.1,0,0,0-11.48-4.23,26.88,26.88,0,0,0-7.44-.2,35.57,35.57,0,0,0-9.11,2.09,32.07,32.07,0,0,0-12.76,8.47A27.31,27.31,0,0,0,293,75.1c0,.07,0,.15-.07.3.58-.06,1.12-.09,1.65-.17a20.56,20.56,0,0,0,6.61-2.13,1,1,0,0,0,.38-.37A19.93,19.93,0,0,1,310.8,64a27.61,27.61,0,0,1,8.91-2.5,30.72,30.72,0,0,1,9.23.26,16.32,16.32,0,0,1,9.53,5A16.75,16.75,0,0,1,342.16,74a26.28,26.28,0,0,1,.81,9.7,11.6,11.6,0,0,1-5.79,8.92,14.8,14.8,0,0,1-9.65,2.08,7.72,7.72,0,0,1-6.15-4.2,12.59,12.59,0,0,1-1.42-7.1,5.08,5.08,0,0,1,2.77-4.19,8.94,8.94,0,0,1,9.59.56c2.25,1.6,1.9,4.61-.63,5.91a4.52,4.52,0,0,1-2.16.51.74.74,0,0,1-.73-.45.73.73,0,0,1,.08-.84,9.22,9.22,0,0,0,1-1.55,1.67,1.67,0,0,0-1.25-2.57,4,4,0,0,0-2.79.33A3.14,3.14,0,0,0,324,83.85a9.22,9.22,0,0,0,.35,3.09,4.85,4.85,0,0,0,4.11,3.7,8.79,8.79,0,0,0,8.42-2.76,8.24,8.24,0,0,0,2.28-6.4,8.32,8.32,0,0,0-2.46-5.08,13.42,13.42,0,0,0-4.27-3c-.29-.14-.42-.27-.33-.6.22-.8.4-1.62.63-2.43a4,4,0,0,0-1.85-4.91A7.91,7.91,0,0,0,326,64.31a7.69,7.69,0,0,0-2.83.61,3,3,0,0,0-1.54,3.46,1.48,1.48,0,0,0,1.8,1.13,12.25,12.25,0,0,0,2.34-.64c.93-.39,1.73.63,1.65,1.36a2.32,2.32,0,0,1-1.83,1.9c-4.15.66-7.61,2.47-9.83,6.18a11.5,11.5,0,0,0-1.19,8.94,14.32,14.32,0,0,0,1.81,4.42c-.66.07-1.29.12-1.91.21a3.82,3.82,0,0,0-1.11.31,3,3,0,0,1-3.91-1.82,2,2,0,0,1,0-.24c0-.6.2-.81.81-.72,1.32.19,1.59-.1,1.29-1.39a5.36,5.36,0,0,0-1.94-3.08c-1.55-1.22-4-.68-5.33.56a4.2,4.2,0,0,0-.53,5.35,7.71,7.71,0,0,0,4,3.1l.43.16a8.47,8.47,0,0,0-1.52,3.35,3.45,3.45,0,0,0,.37,2.77A4.68,4.68,0,0,0,310,102.7c.63.15.68.09.74-.54a6.87,6.87,0,0,1,.57-2.6,2.58,2.58,0,0,1,1.2-1.22c.16.8.26,1.6.49,2.37a10.69,10.69,0,0,0,3.25,5.43,4.05,4.05,0,0,0,3,1.09c.73,0,1.46,0,2.18-.17,1.9-.29,2.55-1.55,2.39-3.33a4.25,4.25,0,0,0-.79-2.11,1.53,1.53,0,0,0-1.93-.71c-.49.12-1,.3-1.45.41a2.76,2.76,0,0,1-3.1-1.27,5.9,5.9,0,0,1-.76-3,.28.28,0,0,1,.14-.24,7.81,7.81,0,0,1,2.72-.87.67.67,0,0,1,.6.28,12.63,12.63,0,0,0,6.63,4.41,11,11,0,0,0,4.6.17c1.53-.23,3-.58,4.54-.87a1.7,1.7,0,0,1,.26,0c0,.27,0,.52-.05.77a19.76,19.76,0,0,0,6.09,15.18,12.65,12.65,0,0,0,7.88,3.75,25.28,25.28,0,0,0,3.79-.08c1,0,2-.22,3-.26a13.93,13.93,0,0,1,4.43.76,10.28,10.28,0,0,1,3.59,1.76,5.4,5.4,0,0,1,1.46,6.92,10.76,10.76,0,0,1-6,5c-2.24.77-3.64-.12-4.56-2.09a3.06,3.06,0,0,1-.24-2.44,3.14,3.14,0,0,1,.56-1,1.27,1.27,0,0,1,1.71-.11c.28.2.25.47.19.75-.1.52,0,.77.5.92a5.72,5.72,0,0,0,2.57.16,2,2,0,0,0,.72-.32,4.68,4.68,0,0,0,1.82-4.35,2.92,2.92,0,0,0-1.1-1.75,6.91,6.91,0,0,0-6.08-1.41c-1.43.36-2.82.85-4.23,1.3a.51.51,0,0,1-.62-.14,8,8,0,0,0-4.36-2.34,5.16,5.16,0,0,0-6.16,4.16,6.79,6.79,0,0,0,0,3.17,2.65,2.65,0,0,0,3.36,1.9,1.6,1.6,0,0,0,1.19-1.14c.16-.48.26-1,.4-1.46a1.16,1.16,0,0,1,1.79-.87,2.6,2.6,0,0,1,1.25,1.13,10.13,10.13,0,0,1,1.14,3.43,29.49,29.49,0,0,0,.91,3.62,5.13,5.13,0,0,0,4.54,3.57,13.16,13.16,0,0,0,5.23-.07.47.47,0,0,1,.15,0,5.57,5.57,0,0,0-.62,4.29,2.91,2.91,0,0,0,3,2.56c1,0,1.94,0,2.92-.06a2.16,2.16,0,0,0-.07.73,4.93,4.93,0,0,0,.5,1.36c.71,1.18,3.43,2,4.64,1.57a3.49,3.49,0,0,0,1.86-1.24c.43-.67.29-1.05-.51-1.15s-1.43-.1-2.15-.15a4.5,4.5,0,0,1-.51-.08c-.52-.11-.73-.31-.75-.69a.92.92,0,0,1,.68-1c.46-.15.94-.27,1.41-.41a1.06,1.06,0,0,0,.81-.85,7.68,7.68,0,0,0,.11-1.51,1.18,1.18,0,0,0-.82-1.05c-.87-.32-1.77-.56-2.66-.82-.56-.16-1.14-.26-1.7-.42a2.33,2.33,0,0,1-.72-.32,1.16,1.16,0,0,1-.42-.51,2.07,2.07,0,0,1,.87-1.94,8.15,8.15,0,0,0,3.22-2.8,12.09,12.09,0,0,0,2.31-8.48,11.94,11.94,0,0,0-8.8-9.88c.52-.29,1-.55,1.49-.84a13.13,13.13,0,0,0,4.95-5c1.66-3.18,1.19-6.23-.8-9.1a15.84,15.84,0,0,0-4.51-4.08l-.64-.41a5.11,5.11,0,0,1-2.16-4.18.62.62,0,0,1,.21-.49c1.18-1,2.47-1.73,4.11-1.23a7.78,7.78,0,0,1,1,.47,2.83,2.83,0,0,0-1.59,1.86,2,2,0,0,0,.05,1A4,4,0,0,0,366,95.46a1.6,1.6,0,0,0,1.49.49,5.91,5.91,0,0,0,3.23-1.63,3.53,3.53,0,0,0,.17-5,13.62,13.62,0,0,0-7.95-3.87,7.82,7.82,0,0,0-6.22,2.26,3.45,3.45,0,0,0-.93,3.1c.16,1,.38,2,.57,3-.43,0-.88-.11-1.34-.1A7.39,7.39,0,0,0,350.87,95a4.61,4.61,0,0,0-1.14,1.15,1.53,1.53,0,0,0,0,1.87c.21.31.43.61.65.91s.34.45.5.68c.66.95.39,1.51-.79,1.62a11.16,11.16,0,0,0-1.14.16,2,2,0,0,0-1.81,2.74,7.16,7.16,0,0,0,2.59,4,8.21,8.21,0,0,0,5.69,2,21.6,21.6,0,0,0,2.67-.13,2.37,2.37,0,0,0,2.22-2.16,5.55,5.55,0,0,0,0-2.5,1.57,1.57,0,0,0-2.23-1.18c-.61.21-1.18.49-1.79.69a1.47,1.47,0,0,1-2.13-1.39c-.19-1.58.45-2.42,2.15-2.7a7.47,7.47,0,0,1,4.85.68,4.61,4.61,0,0,1,2.72,3.78,4.94,4.94,0,0,1-1.16,3.63,10.64,10.64,0,0,1-4.89,3.26,16,16,0,0,1-10.31.28,8.19,8.19,0,0,1-5.75-5.81,20.89,20.89,0,0,1-.76-7.08c0-.4,0-.8.08-1.2a.44.44,0,0,1,.17-.31,10.69,10.69,0,0,0,3.68-3.55,28.69,28.69,0,0,0,4.62-10.61,14.26,14.26,0,0,0,.1-4,45.64,45.64,0,0,0-2.15-10.66c-.08-.26-.17-.51-.26-.78A23,23,0,0,0,357,66.51a.86.86,0,0,1,.75,0,7.61,7.61,0,0,1,3.62,4.3A2.41,2.41,0,0,1,361,73.1a4.27,4.27,0,0,1-3.68,1.83,2.34,2.34,0,0,1,.18-.5,7.48,7.48,0,0,1,.54-.69,1.22,1.22,0,0,0-.27-2,4.63,4.63,0,0,0-1.52-.55,5.7,5.7,0,0,0-2.69.1,2.82,2.82,0,0,0-2.22,2.86,6.73,6.73,0,0,0,2.58,5.44,4.73,4.73,0,0,0,5.56.3l.34-.21a2.14,2.14,0,0,0,.28.32c.47.42.93.87,1.44,1.25a2.16,2.16,0,0,0,1.51.41,11.3,11.3,0,0,0,3.11-.45,2.74,2.74,0,0,0,2-3.6,24,24,0,0,0-1-2.68c-.06-.13-.14-.25-.25-.46.39.07.7.13,1,.17a3.74,3.74,0,0,0,3.63-1.57,7.52,7.52,0,0,0,1.37-6,2.88,2.88,0,0,0-1.65-2.17,5.43,5.43,0,0,0-3.69-.45.9.9,0,0,0-.79,1.23,14.66,14.66,0,0,0,.61,1.55c.16.4.34.78.47,1.18a1,1,0,0,1,0,.51c-.13.54-.37.7-.86.49a3.49,3.49,0,0,1-1.16-.74c-.66-.7-1.25-1.46-1.85-2.21A8.26,8.26,0,0,0,361.27,64Z"/><path class="cls-1" d="M310.89,13.77a8,8,0,0,0-2.39-2.64c-.75-.59-1.51-1.18-2.22-1.83a3.75,3.75,0,0,1-.77-1.1c-.1-.2-.13-.62,0-.72a1.17,1.17,0,0,1,.86-.27,4,4,0,0,1,1.11.41c.52.22,1,.5,1.57.67a1,1,0,0,0,1.42-.82,5.1,5.1,0,0,0-.67-4A3.34,3.34,0,0,0,306.88,2a7.88,7.88,0,0,0-5,1.38,3.87,3.87,0,0,0-1.72,2.85,12.13,12.13,0,0,0,.13,1.88c-.29-.14-.58-.31-.89-.45a7.62,7.62,0,0,0-2.8-.87,2.6,2.6,0,0,0-2.71,1.5,8,8,0,0,0-.69,4.37,4.14,4.14,0,0,0,.87,1.58,13.36,13.36,0,0,0,.91,1.14,14,14,0,0,0-.68,1.8,4.37,4.37,0,0,0,.94,4,6.79,6.79,0,0,0,5.5,2.53,2.84,2.84,0,0,0,2.86-2.38,5.8,5.8,0,0,0-.15-3.3,2.7,2.7,0,0,0-.55-1,1.15,1.15,0,0,0-1.7-.12c-.27.22-.53.44-.82.64a.45.45,0,0,1-.36.08c-.08,0-.11-.23-.1-.35a4.19,4.19,0,0,1,1.69-3.17,2.64,2.64,0,0,1,2.72-.38,7.94,7.94,0,0,1,4,3.45,1,1,0,0,1,.05.9,23.53,23.53,0,0,0-1.9,8.87c0,.27,0,.53,0,.79-1.13-.33-2.24-.69-3.36-1a43.55,43.55,0,0,0-9.57-1.48,15.53,15.53,0,0,0-5.88,1.09,28.51,28.51,0,0,0-8,4.27,10.26,10.26,0,0,0-2.8,3.1.48.48,0,0,1-.34.2,21.39,21.39,0,0,1-8.27-.66,8.41,8.41,0,0,1-6.05-6.69,15.94,15.94,0,0,1,1.47-11.45,9.32,9.32,0,0,1,2.1-2.65,4.79,4.79,0,0,1,7.95,2,7.49,7.49,0,0,1,.33,4.51,3.51,3.51,0,0,1-.66,1.34c-.74.93-2.64.6-3.19,0a1.4,1.4,0,0,1-.25-1.46c.22-.68.53-1.34.76-2a1.56,1.56,0,0,0-1-2.13,2.58,2.58,0,0,0-.42-.12,6.17,6.17,0,0,0-2.53.11,2.48,2.48,0,0,0-1.91,2.34,11.15,11.15,0,0,0,2.07,8.31A5.84,5.84,0,0,0,271.3,28a1.72,1.72,0,0,0,1.92-1.11,11.69,11.69,0,0,0,.42-1.77c.06-.25.07-.51.15-.74a.63.63,0,0,1,1-.42,7.11,7.11,0,0,1,.74.47c.38.27.75.56,1.14.81a1.77,1.77,0,0,0,2.38-.14,5.8,5.8,0,0,0,1.71-2.83,6.49,6.49,0,0,0,.24-3.55c.8.16,1.57.34,2.35.48A4.11,4.11,0,0,0,288.24,17a9.68,9.68,0,0,0,.76-1.71,7.76,7.76,0,0,0,.09-4.79A14.57,14.57,0,0,0,286.34,5a9.63,9.63,0,0,0-.85-.84,3.56,3.56,0,0,0-5.09.34,5.65,5.65,0,0,0-1.51,3.36,1.3,1.3,0,0,0,.18.79,3.75,3.75,0,0,0,2.58,1.72A2.67,2.67,0,0,0,284,9l.1-.22a2,2,0,0,1,.63,1.35,4.21,4.21,0,0,1-1.29,3.58,1,1,0,0,1-.67.25,10.35,10.35,0,0,1-1.77-.26,3.11,3.11,0,0,1-2-1.45,23.07,23.07,0,0,0-3.9-4.85,9,9,0,0,0-7-2.49,8.21,8.21,0,0,0-4.39,1.85A15.16,15.16,0,0,0,259.55,12c-.05.11-.12.23-.21.41-.09-.3-.14-.52-.22-.74-1.59-4.27-4.47-7.23-9-8a11.46,11.46,0,0,0-11.18,4.24,6.22,6.22,0,0,0-.73,1.19,2,2,0,0,1-2,.87,1.24,1.24,0,0,1-.59-.65c-.27-.8-.44-1.62-.66-2.42a20.17,20.17,0,0,0-.63-2.18,1.47,1.47,0,0,0-1.74-1.07l-.44,0a1.34,1.34,0,0,0-1.46,1.16c-.12.42-.24.84-.38,1.25a.88.88,0,0,1-.92.55A.65.65,0,0,1,228.7,6a12.42,12.42,0,0,1-.16-1.35c-.06-.57-.06-1.14-.16-1.7s-.41-.7-.86-.4a3.69,3.69,0,0,0-1,.92c-1.17,1.64-.41,4.06.53,5.21a2.51,2.51,0,0,0,1.74,1,7.57,7.57,0,0,0,.93,0c0,.42-.12.85-.12,1.28a15.48,15.48,0,0,0,.15,2.46,2.79,2.79,0,0,0,2.5,2.25,5.4,5.4,0,0,0,4.29-.75,10.9,10.9,0,0,0-.26,3.92,16,16,0,0,0,.42,2.67A4.83,4.83,0,0,0,240.2,25c1.27.39,2.58.62,3.88.89a8.6,8.6,0,0,1,3,1.11,2.29,2.29,0,0,1,1.21,1.9.86.86,0,0,1-.64,1c-.39.13-.8.22-1.19.32-1.27.33-1.78.83-1.85,1.83a2.57,2.57,0,0,0,1.51,2.74c1.75.73,5.3.4,6.87-1.78a5.5,5.5,0,0,0,.82-4.9,8.12,8.12,0,0,0-2.13-3.6.65.65,0,0,1-.19-.76c.48-1.49,1-3,1.35-4.5a6.59,6.59,0,0,0-1.6-5.83c-1-1.19-2.35-1.39-4-.72a6.07,6.07,0,0,0-1.24.7,2.58,2.58,0,0,0-1.17,2.4,11.07,11.07,0,0,0,.23,1.73c.13.55.42.66,1,.51a.6.6,0,0,1,.84.42,1.38,1.38,0,0,1-.7,1.85,2.79,2.79,0,0,1-1.86.26A4.72,4.72,0,0,1,241.56,19a2.91,2.91,0,0,1-.5-2.87,10.24,10.24,0,0,1,5.58-6.59,5.28,5.28,0,0,1,6.59,1.82,12.52,12.52,0,0,1,2,4.82,9.78,9.78,0,0,1,.4,3c-.1,1.13-.19,2.25-.34,3.38a13.12,13.12,0,0,0,4,11.58,20,20,0,0,0,11.29,5.59,15.64,15.64,0,0,0,4.38.09c-.16.75-.36,1.46-.47,2.18A42.4,42.4,0,0,0,274,46.3a9.93,9.93,0,0,0,2.69,7.3c.65.75,1.44,1.38,2.15,2.09a.73.73,0,0,1,.21.45,5.1,5.1,0,0,1-.62,2.21c-.36.79-.35.81-1.21.72a5,5,0,0,1-2.33-.75,2.83,2.83,0,0,1-1.22-3.2c.15-.53.32-1,.46-1.57a1.34,1.34,0,0,0-.38-1.35,4.38,4.38,0,0,0-4.43-.86,2.22,2.22,0,0,0-1.2,1.33,8.07,8.07,0,0,0-.27,4A5.44,5.44,0,0,0,270.24,60a12.47,12.47,0,0,0,6.35,2.32,2.34,2.34,0,0,1-.83,1,4.45,4.45,0,0,1-2.2.74l-1,.1c-.27,0-.38.15-.34.45a3.76,3.76,0,0,0,1.23,2.27,4.81,4.81,0,0,0,2.75,1.43,4.09,4.09,0,0,0,1.3-.14,7.66,7.66,0,0,0,3.3-1.49c.19.44.35.87.56,1.29a6.9,6.9,0,0,0,3.14,3.39,4.19,4.19,0,0,0,6.17-3.58,3.69,3.69,0,0,0-1.42-3.27,5.05,5.05,0,0,0-3-1.24c-.5,0-.68.15-.7.65,0,.32,0,.64,0,1s-.13.56-.58.55a2.36,2.36,0,0,1-2.3-2.19,3.23,3.23,0,0,1,.14-1.79,12.27,12.27,0,0,0,.42-2c0-.28,0-.58.05-.92l.31.16a14.56,14.56,0,0,0,6.88,2.21,10.94,10.94,0,0,0,7.78-2.69,13.28,13.28,0,0,0,4.41-7.89c.07-.36.11-.73.17-1.1a2.15,2.15,0,0,1,2.51-1.44,1.18,1.18,0,0,1,.71,1.45c-.21.74-.43,1.48-.61,2.23a1.64,1.64,0,0,0,1.69,2.14,2.84,2.84,0,0,0,3.07-2.12,8.53,8.53,0,0,0-.5-6.85,4.61,4.61,0,0,0-2.84-2.41,3.62,3.62,0,0,0-2,.07c-.84.25-1.68.49-2.53.7-.62.16-.63.14-.9-.43a13.74,13.74,0,0,0-3.18-4.41,8,8,0,0,0-11.55.42,8.73,8.73,0,0,0-2.38,8.24,5,5,0,0,0,4.37,4.13,12.33,12.33,0,0,0,2.1.19,3.35,3.35,0,0,0,3.48-3,3.91,3.91,0,0,0-.14-2,1.57,1.57,0,0,0-2.2-1A14.81,14.81,0,0,0,290,46.22a.76.76,0,0,1-1.18-.51,4.06,4.06,0,0,1,3.82-4.48,2.82,2.82,0,0,1,2.25,1.12,8.23,8.23,0,0,1,1.81,4,8.26,8.26,0,0,1-1.62,7,5,5,0,0,1-3.91,1.87,13.17,13.17,0,0,1-6.28-1.25,7.81,7.81,0,0,1-4.63-6.5,14.33,14.33,0,0,1,4.14-12.11A11.14,11.14,0,0,1,291.63,32a25.85,25.85,0,0,1,12.23,1.89,15.06,15.06,0,0,1,8.82,10.41,26,26,0,0,1,.75,9.66,2.06,2.06,0,0,0,0,.34l7.24-1.4c0-.43.09-1,.1-1.51a28.14,28.14,0,0,0-1.87-10.11,32.8,32.8,0,0,0-4.49-8.65c-.37-.48-.83-.9-1.24-1.35A.59.59,0,0,1,313,31a17.92,17.92,0,0,1,2.25-11.19,12,12,0,0,1,7.11-5.65,8.37,8.37,0,0,1,8.82,2.45,11.58,11.58,0,0,1,3.31,6.64,6.27,6.27,0,0,1-1.26,5.19,6.15,6.15,0,0,1-3.35,2c-1.4.32-2.83.5-4.24.73a1.3,1.3,0,0,1-1.44-.84,4.68,4.68,0,0,1-.45-2.72,4.38,4.38,0,0,1,1.66-2.87,1.88,1.88,0,0,1,1.09-.39c.77,0,1.15.49,1.23,1.43,0,.42,0,.85.09,1.27.1,1,.61,1.33,1.56,1.1a3.17,3.17,0,0,0,1.86-1.3,4.49,4.49,0,0,0,.77-3.37A9.75,9.75,0,0,0,331.7,22a4.06,4.06,0,0,0-2.65-2.83,8.59,8.59,0,0,0-4.84-.26,1.82,1.82,0,0,0-1.61,1.65c-.73.11-1.46.18-2.17.35a6.64,6.64,0,0,0-1.62.63,1.55,1.55,0,0,0-.59,2.38,13.91,13.91,0,0,0,.95,1.2c-.24.71-.51,1.44-.72,2.19a4.21,4.21,0,0,0,2.1,5.15,6.37,6.37,0,0,0-1,2.7,6.69,6.69,0,0,0,.32,3.11A12.23,12.23,0,0,0,323.05,44a4.59,4.59,0,0,0,6.38-.15,4.68,4.68,0,0,0,.37-5.53c-.5-.68-1.14-1-1.95-.28-.41.37-.85.73-1.28,1.09a1.11,1.11,0,0,1-1.23.16,1.13,1.13,0,0,1-.59-1,2,2,0,0,1,1.88-2.15,22.71,22.71,0,0,0,7.85-1.47,9.3,9.3,0,0,0,6.2-8.35c.11-1.31.09-2.64.14-4,0-.13,0-.26,0-.44l1.15.38a11.87,11.87,0,0,0,4.27.68A10.09,10.09,0,0,0,356,14.28a9.87,9.87,0,0,0,.18-1.87,11.83,11.83,0,0,0-.29-1.75c0-.19-.1-.37-.16-.56l1.26.2a2.53,2.53,0,0,0,2.59-1.22c.38-.57.68-1.2,1.07-1.78s.9-1.28,1.39-1.89a1.17,1.17,0,0,1,1.34-.35l1.35.47A2.91,2.91,0,0,0,363,2.26a2.37,2.37,0,0,0-2.21.49c-.56.45-1.09.93-1.65,1.38a3.79,3.79,0,0,1-2.39,1A10.24,10.24,0,0,0,356.93,4a1.73,1.73,0,0,0-2.35-1.67,1.18,1.18,0,0,0-.71.8c-.18.52-.34,1-.54,1.54a1.46,1.46,0,0,1-1.09.92.72.72,0,0,1-.48-.08,10,10,0,0,0-6.66-1.75,11,11,0,0,0-2.29.31,4.37,4.37,0,0,0-3.46,5,6.77,6.77,0,0,0,2.93,5.06,3.81,3.81,0,0,0,3.1.7,1.76,1.76,0,0,0,1.46-1.88,5.57,5.57,0,0,0-.19-1.41.89.89,0,0,0-1.25-.57.86.86,0,0,1-1.26-.93,3.51,3.51,0,0,1,.35-1.17,1,1,0,0,1,1.09-.58A5,5,0,0,1,350,12.58a3.54,3.54,0,0,1-1.29,2.93,5.27,5.27,0,0,1-4.88,1.36,17.15,17.15,0,0,1-5.33-2.06,2.05,2.05,0,0,1-.63-.58,14.7,14.7,0,0,0-10.07-6,22.33,22.33,0,0,0-10.64.89,12.14,12.14,0,0,0-5.49,3.51C311.42,13,311.18,13.38,310.89,13.77Z"/><path class="cls-1" d="M318.93,63c-.89.16-1.71.29-2.53.45a23.45,23.45,0,0,0-6,1.86,1.4,1.4,0,0,0-.57.51A23.74,23.74,0,0,1,303,73.26a21.06,21.06,0,0,1-8.46,3.26,28.56,28.56,0,0,1-7.33.3,22.11,22.11,0,0,1-9.71-3.38,30.62,30.62,0,0,1-9.93-10.5,38,38,0,0,1-4.78-12.83,28.89,28.89,0,0,1-.49-5.72c0-.4-.07-.56-.51-.64a36.19,36.19,0,0,1-11.26-4.1A60.75,60.75,0,0,1,229,20.38a35.71,35.71,0,0,1-5.29-11.46,25.34,25.34,0,0,1-.75-6.13c0-.92,0-1.84,0-2.79H215V.42c0,1.24,0,2.48,0,3.71a20.4,20.4,0,0,0,.77,5.92,43.38,43.38,0,0,0,5.61,12.47,69.31,69.31,0,0,0,12.83,14.87,64.74,64.74,0,0,0,13,9.08,38.48,38.48,0,0,0,7.39,3,.38.38,0,0,1,.33.43A32.21,32.21,0,0,0,263,70.51a37.73,37.73,0,0,0,17.68,11.71,29.26,29.26,0,0,0,10,1.4,30.56,30.56,0,0,0,22.59-10.56,27.37,27.37,0,0,0,5.48-9.66Z"/><path class="cls-1" d="M0,485.13a35.76,35.76,0,0,1,6.7.27,35.4,35.4,0,0,1,15.44,7,60,60,0,0,1,19.33,24.2A30,30,0,0,1,43.7,524c0,.11,0,.21.08.34l.34,0A36.62,36.62,0,0,1,67.55,533a25.6,25.6,0,0,1,7.77,10.39,20.57,20.57,0,0,1,1.49,9.3,2.28,2.28,0,0,0,0,.27l6.8-1.09c0-.84,0-1.78-.14-2.7a35.24,35.24,0,0,0-7.33-18.11,35.26,35.26,0,0,0-15.2-11.75,29.13,29.13,0,0,0-8.27-2c-.94-.09-1.88-.13-2.83-.17-.22,0-.35,0-.42-.3a47.15,47.15,0,0,0-7.13-14.2,72.18,72.18,0,0,0-17.12-17.27,48.34,48.34,0,0,0-12.78-6.71,30.25,30.25,0,0,0-7-1.51,1.57,1.57,0,0,1-.31-.08H0Z"/><path class="cls-1" d="M13.73,573c-2.93,1.89-4.29,4.72-5.09,7.9a21.83,21.83,0,0,0,.09,11.29,14.31,14.31,0,0,0,5.4,7.8,1.65,1.65,0,0,1,.43.4A14.49,14.49,0,0,1,16.89,607a5,5,0,0,1-2,4.43,3.57,3.57,0,0,1-4.42,0,4.67,4.67,0,0,1-2.26-3.5A1.14,1.14,0,0,1,9,606.53a3.1,3.1,0,0,1,1.12-.22.79.79,0,0,1,.77,1.17.9.9,0,0,0,.52,1.3,3.56,3.56,0,0,0,2.09.15A2,2,0,0,0,14.79,607a4.06,4.06,0,0,0-.58-2.29,6.86,6.86,0,0,0-7-3.15A4.1,4.1,0,0,0,4,605a10.88,10.88,0,0,0,1.41,8.84A.81.81,0,0,1,5.21,615a4.37,4.37,0,0,1-1.13.7c-.31.15-.67.19-1,.31a1.16,1.16,0,0,0-.92,1.42A1.65,1.65,0,0,0,4.51,619l.52-.18a2.88,2.88,0,0,1-.47,1.72c-.43.64-.95,1.22-1.42,1.83a10,10,0,0,0-.78,1.06,2.25,2.25,0,0,0,.75,3,4.07,4.07,0,0,0,2.38.57c-.17-.47-.33-.9-.47-1.34a1.26,1.26,0,0,1,.42-1.51c.59-.44,1.19-.88,1.81-1.29s1.12-.62,1.65-1c1.31-.86,1.62-1.89,1.21-3.55,0-.11-.08-.22-.13-.38a2.33,2.33,0,0,1,.37.08,7,7,0,0,0,3.86.16,10,10,0,0,0,6.84-4.22,10.34,10.34,0,0,0,1.79-6.86,22.76,22.76,0,0,0-.91-3.66c0-.14-.08-.28-.14-.47h2.47A13.41,13.41,0,0,0,29.5,602a9.31,9.31,0,0,0,5-5.39,20.92,20.92,0,0,0,1.36-6c.07-.71.09-1.43.17-2.15a1.91,1.91,0,0,1,2.79-1.35,1,1,0,0,1,.3,1.41c-.2.3-.45.57-.68.85s-.42.48-.61.73a1.07,1.07,0,0,0,.16,1.7,4.08,4.08,0,0,0,2.43.9,4.41,4.41,0,0,0,4.4-6,5,5,0,0,0-1.54-2.06,13,13,0,0,0-7.2-2.95,6.12,6.12,0,0,0-3.77,1,.05.05,0,0,1,0,0,4.22,4.22,0,0,0-5.28-2c-.69.21-1.36.46-2.08.71-.22-.21-.49-.47-.78-.7a1.74,1.74,0,0,0-3,.72,7.83,7.83,0,0,0-.64,2.82c0,.38-.06.63-.54.7a1.36,1.36,0,0,0-1,1,5.9,5.9,0,0,0-.39,1.58,8.72,8.72,0,0,0,.35,3.55,4.15,4.15,0,0,0,3,2.89,5.91,5.91,0,0,0,4,0,3.4,3.4,0,0,0,2.19-2.36c.21-.89-.09-1.35-1-1.49-.52-.08-1.06-.08-1.59-.15a1.29,1.29,0,0,1-1-2.14,4.36,4.36,0,0,1,2.23-1.61,4.67,4.67,0,0,1,3.5.24,1.17,1.17,0,0,1,.83,1.16,18.6,18.6,0,0,1-1.05,5.42,5.52,5.52,0,0,1-4.87,3.76,9.72,9.72,0,0,1-4.82-.82,11.78,11.78,0,0,1-5.19-4.17,8.21,8.21,0,0,1-1-7.48A12.06,12.06,0,0,1,20.32,577a17.61,17.61,0,0,1,10.08-1.95,1.74,1.74,0,0,1,1.22.59,16.05,16.05,0,0,0,3.7,2.63,37.1,37.1,0,0,0,11.48,4.23,26.88,26.88,0,0,0,7.44.2,35.57,35.57,0,0,0,9.11-2.09,32.07,32.07,0,0,0,12.76-8.47A27.31,27.31,0,0,0,82,561.9c0-.07,0-.15.07-.3-.58.06-1.12.09-1.65.17a20.56,20.56,0,0,0-6.61,2.13,1,1,0,0,0-.38.37A19.93,19.93,0,0,1,64.2,573a27.61,27.61,0,0,1-8.91,2.5,30.72,30.72,0,0,1-9.23-.26,16.32,16.32,0,0,1-9.53-5,16.75,16.75,0,0,1-3.69-7.13,26.28,26.28,0,0,1-.81-9.7,11.6,11.6,0,0,1,5.79-8.92,14.8,14.8,0,0,1,9.65-2.08,7.72,7.72,0,0,1,6.15,4.2,12.59,12.59,0,0,1,1.42,7.1,5.08,5.08,0,0,1-2.77,4.19,8.94,8.94,0,0,1-9.59-.56c-2.25-1.6-1.9-4.61.63-5.91a4.52,4.52,0,0,1,2.16-.51.74.74,0,0,1,.73.45.73.73,0,0,1-.08.84,9.22,9.22,0,0,0-1,1.55,1.67,1.67,0,0,0,1.25,2.57,4,4,0,0,0,2.79-.33A3.14,3.14,0,0,0,51,553.15a9.22,9.22,0,0,0-.35-3.09,4.85,4.85,0,0,0-4.11-3.7,8.79,8.79,0,0,0-8.42,2.76,8.24,8.24,0,0,0-2.28,6.4,8.32,8.32,0,0,0,2.46,5.08,13.42,13.42,0,0,0,4.27,3c.29.14.42.27.33.6-.22.8-.4,1.62-.63,2.43a4,4,0,0,0,1.85,4.91A7.91,7.91,0,0,0,49,572.69a7.69,7.69,0,0,0,2.83-.61,3,3,0,0,0,1.54-3.46,1.48,1.48,0,0,0-1.8-1.13,12.25,12.25,0,0,0-2.34.64c-.93.39-1.73-.63-1.65-1.36a2.32,2.32,0,0,1,1.83-1.9c4.15-.66,7.61-2.47,9.83-6.18a11.5,11.5,0,0,0,1.19-8.94,14.32,14.32,0,0,0-1.81-4.42c.66-.07,1.29-.12,1.91-.21a3.82,3.82,0,0,0,1.11-.31,3,3,0,0,1,3.91,1.82,2,2,0,0,1,0,.24c0,.6-.2.81-.81.72-1.32-.19-1.59.1-1.29,1.39a5.36,5.36,0,0,0,1.94,3.08c1.55,1.22,4,.68,5.33-.56a4.2,4.2,0,0,0,.53-5.35,7.71,7.71,0,0,0-4-3.1l-.43-.16a8.47,8.47,0,0,0,1.52-3.35,3.45,3.45,0,0,0-.37-2.77,4.68,4.68,0,0,0-2.93-2.47c-.63-.15-.68-.09-.74.54a6.87,6.87,0,0,1-.57,2.6,2.58,2.58,0,0,1-1.2,1.22c-.16-.8-.26-1.6-.49-2.37a10.69,10.69,0,0,0-3.25-5.43,4.05,4.05,0,0,0-3-1.09c-.73.05-1.46.05-2.18.17-1.9.29-2.55,1.55-2.39,3.33a4.25,4.25,0,0,0,.79,2.11,1.53,1.53,0,0,0,1.93.71c.49-.12,1-.3,1.45-.41A2.76,2.76,0,0,1,58.5,537a5.9,5.9,0,0,1,.76,3,.28.28,0,0,1-.14.24,7.81,7.81,0,0,1-2.72.87.67.67,0,0,1-.6-.28,12.63,12.63,0,0,0-6.63-4.41,11,11,0,0,0-4.6-.17c-1.53.23-3,.58-4.54.87a1.7,1.7,0,0,1-.26,0c0-.27,0-.52,0-.77a19.76,19.76,0,0,0-6.09-15.18,12.65,12.65,0,0,0-7.88-3.75,25.28,25.28,0,0,0-3.79.08c-1,0-2,.22-3,.26a13.93,13.93,0,0,1-4.43-.76,10.28,10.28,0,0,1-3.59-1.76,5.4,5.4,0,0,1-1.46-6.92,10.76,10.76,0,0,1,6-5c2.24-.77,3.64.12,4.56,2.09a3.06,3.06,0,0,1,.24,2.44,3.14,3.14,0,0,1-.56.95,1.27,1.27,0,0,1-1.71.11c-.28-.2-.25-.47-.19-.75.1-.52,0-.77-.5-.92a5.72,5.72,0,0,0-2.57-.16,2,2,0,0,0-.72.32,4.68,4.68,0,0,0-1.82,4.35,2.92,2.92,0,0,0,1.1,1.75,6.91,6.91,0,0,0,6.08,1.41c1.43-.36,2.82-.85,4.23-1.3a.51.51,0,0,1,.62.14,8,8,0,0,0,4.36,2.34,5.16,5.16,0,0,0,6.16-4.16,6.79,6.79,0,0,0,0-3.17,2.65,2.65,0,0,0-3.36-1.9A1.6,1.6,0,0,0,30.32,508c-.16.48-.26,1-.4,1.46a1.16,1.16,0,0,1-1.79.87,2.6,2.6,0,0,1-1.25-1.13,10.13,10.13,0,0,1-1.14-3.43,29.49,29.49,0,0,0-.91-3.62,5.13,5.13,0,0,0-4.54-3.57,13.16,13.16,0,0,0-5.23.07.47.47,0,0,1-.15,0,5.57,5.57,0,0,0,.62-4.29,2.91,2.91,0,0,0-3-2.56c-1,0-1.94,0-2.92.06a2.16,2.16,0,0,0,.07-.73,4.93,4.93,0,0,0-.5-1.36c-.71-1.18-3.43-2-4.64-1.57a3.49,3.49,0,0,0-1.86,1.24c-.43.67-.29,1.05.51,1.15s1.43.1,2.15.15a4.5,4.5,0,0,1,.51.08c.52.11.73.31.75.69a.92.92,0,0,1-.68,1c-.46.15-.94.27-1.41.41a1.06,1.06,0,0,0-.81.85,7.68,7.68,0,0,0-.11,1.51,1.18,1.18,0,0,0,.82,1.05c.87.32,1.77.56,2.66.82.56.16,1.14.26,1.7.42a2.33,2.33,0,0,1,.72.32,1.16,1.16,0,0,1,.42.51A2.07,2.07,0,0,1,9,500.31a8.15,8.15,0,0,0-3.22,2.8,12.09,12.09,0,0,0-2.31,8.48,11,11,0,0,0,4.13,7.46,11.06,11.06,0,0,0,4.67,2.42c-.52.29-1,.55-1.49.84a13.13,13.13,0,0,0-4.95,5c-1.66,3.18-1.19,6.23.8,9.1a15.84,15.84,0,0,0,4.51,4.08l.64.41a5.11,5.11,0,0,1,2.16,4.18.62.62,0,0,1-.21.49c-1.18,1-2.47,1.73-4.11,1.23a7.78,7.78,0,0,1-1-.47,2.83,2.83,0,0,0,1.59-1.86,2,2,0,0,0-.05-1.05A4,4,0,0,0,9,541.54a1.6,1.6,0,0,0-1.49-.49,5.91,5.91,0,0,0-3.23,1.63,3.53,3.53,0,0,0-.17,5,11,11,0,0,0,4.27,2.88,11.05,11.05,0,0,0,3.68,1,7.82,7.82,0,0,0,6.22-2.26,3.45,3.45,0,0,0,.93-3.1c-.16-1-.38-2-.57-3,.43,0,.88.11,1.34.1A7.39,7.39,0,0,0,24.13,542a4.61,4.61,0,0,0,1.14-1.15,1.53,1.53,0,0,0,0-1.87c-.21-.31-.43-.61-.65-.91s-.34-.45-.5-.68c-.66-1-.39-1.51.79-1.62a11.16,11.16,0,0,0,1.14-.16,2,2,0,0,0,1.81-2.74,7.16,7.16,0,0,0-2.59-4,8.21,8.21,0,0,0-5.69-2,21.6,21.6,0,0,0-2.67.13,2.37,2.37,0,0,0-2.22,2.16,5.55,5.55,0,0,0,0,2.5A1.57,1.57,0,0,0,17,532.82c.61-.21,1.18-.49,1.79-.69a1.47,1.47,0,0,1,2.13,1.39c.19,1.58-.45,2.42-2.15,2.7a7.47,7.47,0,0,1-4.85-.68,4.61,4.61,0,0,1-2.72-3.78,4.94,4.94,0,0,1,1.16-3.63,10.64,10.64,0,0,1,4.89-3.26,16,16,0,0,1,10.31-.28,8.19,8.19,0,0,1,5.75,5.81,20.89,20.89,0,0,1,.76,7.08c0,.4,0,.8-.08,1.2a.44.44,0,0,1-.17.31,10.69,10.69,0,0,0-3.68,3.55,28.69,28.69,0,0,0-4.62,10.61,14.26,14.26,0,0,0-.1,4,45.64,45.64,0,0,0,2.15,10.66c.08.26.17.51.26.78a23,23,0,0,0-9.74,1.88.86.86,0,0,1-.75,0,7.61,7.61,0,0,1-3.62-4.3,2.41,2.41,0,0,1,.37-2.27,4.27,4.27,0,0,1,3.68-1.83,2.34,2.34,0,0,1-.18.5,7.48,7.48,0,0,1-.54.69,1.22,1.22,0,0,0,.27,2,4.63,4.63,0,0,0,1.52.55,5.7,5.7,0,0,0,2.69-.1,2.82,2.82,0,0,0,2.22-2.86,6.73,6.73,0,0,0-2.58-5.44,4.73,4.73,0,0,0-5.56-.3l-.34.21A2.14,2.14,0,0,0,15,557c-.47-.42-.93-.87-1.44-1.25a2.16,2.16,0,0,0-1.51-.41,11.3,11.3,0,0,0-3.11.45,2.74,2.74,0,0,0-2,3.6,24,24,0,0,0,1,2.68c.06.13.14.25.25.46-.39-.07-.7-.13-1-.17a3.74,3.74,0,0,0-3.63,1.57A7.52,7.52,0,0,0,2.11,570a2.88,2.88,0,0,0,1.65,2.17,5.43,5.43,0,0,0,3.69.45.9.9,0,0,0,.79-1.23,14.66,14.66,0,0,0-.61-1.55c-.16-.4-.34-.78-.47-1.18a1,1,0,0,1,0-.51c.13-.54.37-.7.86-.49a3.49,3.49,0,0,1,1.16.74c.66.7,1.25,1.46,1.85,2.21A8.26,8.26,0,0,0,13.73,573Z"/><path class="cls-1" d="M64.11,623.23a8,8,0,0,0,2.39,2.64c.75.59,1.51,1.18,2.22,1.83a3.75,3.75,0,0,1,.77,1.1c.1.2.13.62,0,.72a1.17,1.17,0,0,1-.86.27,4,4,0,0,1-1.11-.41c-.52-.22-1-.5-1.57-.67a1,1,0,0,0-1.42.82,5.1,5.1,0,0,0,.67,4A3.34,3.34,0,0,0,68.12,635a7.88,7.88,0,0,0,5-1.38,3.87,3.87,0,0,0,1.72-2.85,12.13,12.13,0,0,0-.13-1.88c.29.14.58.31.89.45a7.62,7.62,0,0,0,2.8.87,2.6,2.6,0,0,0,2.71-1.5,8,8,0,0,0,.69-4.37,4.14,4.14,0,0,0-.87-1.58,13.36,13.36,0,0,0-.91-1.14,14,14,0,0,0,.68-1.8,4.37,4.37,0,0,0-.94-4,6.79,6.79,0,0,0-5.5-2.53,2.84,2.84,0,0,0-2.86,2.38,5.8,5.8,0,0,0,.15,3.3,2.7,2.7,0,0,0,.55,1,1.15,1.15,0,0,0,1.7.12c.27-.22.53-.44.82-.64a.45.45,0,0,1,.36-.08c.08,0,.11.23.1.35a4.19,4.19,0,0,1-1.69,3.17,2.64,2.64,0,0,1-2.72.38,7.94,7.94,0,0,1-4-3.45,1,1,0,0,1,0-.9,23.53,23.53,0,0,0,1.9-8.87c0-.27,0-.53,0-.79,1.13.33,2.24.69,3.36,1a43.55,43.55,0,0,0,9.57,1.48,15.53,15.53,0,0,0,5.88-1.09,28.51,28.51,0,0,0,8-4.27,10.26,10.26,0,0,0,2.8-3.1.48.48,0,0,1,.34-.2,21.39,21.39,0,0,1,8.27.66,8.41,8.41,0,0,1,6,6.69,15.94,15.94,0,0,1-1.47,11.45,9.32,9.32,0,0,1-2.1,2.65,4.79,4.79,0,0,1-7.95-2,7.49,7.49,0,0,1-.33-4.51,3.51,3.51,0,0,1,.66-1.34c.74-.93,2.64-.6,3.19,0a1.4,1.4,0,0,1,.25,1.46c-.22.68-.53,1.34-.76,2a1.56,1.56,0,0,0,1,2.13,2.58,2.58,0,0,0,.42.12,6.17,6.17,0,0,0,2.53-.11,2.48,2.48,0,0,0,1.91-2.34,11.15,11.15,0,0,0-2.07-8.31A5.84,5.84,0,0,0,103.7,609a1.72,1.72,0,0,0-1.92,1.11,11.69,11.69,0,0,0-.42,1.77c-.06.25-.07.51-.15.74a.63.63,0,0,1-1,.42,7.11,7.11,0,0,1-.74-.47c-.38-.27-.75-.56-1.14-.81a1.77,1.77,0,0,0-2.38.14,5.8,5.8,0,0,0-1.71,2.83,6.49,6.49,0,0,0-.24,3.55c-.8-.16-1.57-.34-2.35-.48A4.11,4.11,0,0,0,86.76,620a9.68,9.68,0,0,0-.76,1.71,7.76,7.76,0,0,0-.09,4.79A14.57,14.57,0,0,0,88.66,632a9.63,9.63,0,0,0,.85.84,3.56,3.56,0,0,0,5.09-.34,5.65,5.65,0,0,0,1.51-3.36,1.3,1.3,0,0,0-.18-.79,3.75,3.75,0,0,0-2.58-1.72A2.67,2.67,0,0,0,91,628l-.1.22a2,2,0,0,1-.63-1.35,4.21,4.21,0,0,1,1.29-3.58,1,1,0,0,1,.67-.25,10.35,10.35,0,0,1,1.77.26,3.11,3.11,0,0,1,2,1.45,23.07,23.07,0,0,0,3.9,4.85,9,9,0,0,0,7,2.49,8.21,8.21,0,0,0,4.39-1.85,15.16,15.16,0,0,0,4.21-5.16c0-.11.12-.23.21-.41.09.3.14.52.22.74,1.59,4.27,4.47,7.23,9,8a11.46,11.46,0,0,0,11.18-4.24,6.22,6.22,0,0,0,.73-1.19,2,2,0,0,1,2-.87,1.24,1.24,0,0,1,.59.65c.27.8.44,1.62.66,2.42a20.17,20.17,0,0,0,.63,2.18,1.47,1.47,0,0,0,1.74,1.07l.44,0a1.34,1.34,0,0,0,1.46-1.16c.12-.42.24-.84.38-1.25a.88.88,0,0,1,.92-.55.65.65,0,0,1,.66.57,12.42,12.42,0,0,1,.16,1.35c.06.57.06,1.14.16,1.7s.41.7.86.4a3.69,3.69,0,0,0,1-.92c1.17-1.64.41-4.06-.53-5.21a2.51,2.51,0,0,0-1.74-1,7.57,7.57,0,0,0-.93,0c0-.42.12-.85.12-1.28a15.48,15.48,0,0,0-.15-2.46,2.79,2.79,0,0,0-2.5-2.25,5.4,5.4,0,0,0-4.29.75,10.9,10.9,0,0,0,.26-3.92,16,16,0,0,0-.42-2.67,4.83,4.83,0,0,0-3.47-3.5c-1.27-.39-2.58-.62-3.88-.89a8.6,8.6,0,0,1-3-1.11,2.29,2.29,0,0,1-1.21-1.9.86.86,0,0,1,.64-1c.39-.13.8-.22,1.19-.32,1.27-.33,1.78-.83,1.85-1.83a2.57,2.57,0,0,0-1.51-2.74c-1.75-.73-5.3-.4-6.87,1.78a5.5,5.5,0,0,0-.82,4.9,8.12,8.12,0,0,0,2.13,3.6.65.65,0,0,1,.19.76c-.48,1.49-1,3-1.35,4.5a6.59,6.59,0,0,0,1.6,5.83c1,1.19,2.35,1.39,4,.72a6.07,6.07,0,0,0,1.24-.7,2.58,2.58,0,0,0,1.17-2.4,11.07,11.07,0,0,0-.23-1.73c-.13-.55-.42-.66-1-.51a.6.6,0,0,1-.84-.42,1.38,1.38,0,0,1,.7-1.85,2.79,2.79,0,0,1,1.86-.26,4.72,4.72,0,0,1,2.79,1.58,2.91,2.91,0,0,1,.5,2.87,10.24,10.24,0,0,1-5.58,6.59,5.28,5.28,0,0,1-6.59-1.82,12.52,12.52,0,0,1-2-4.82,9.78,9.78,0,0,1-.4-3c.1-1.13.19-2.25.34-3.38a13.12,13.12,0,0,0-4-11.58,20,20,0,0,0-11.29-5.59,15.64,15.64,0,0,0-4.38-.09c.16-.75.36-1.46.47-2.18a42.4,42.4,0,0,0,.57-4.31,9.93,9.93,0,0,0-2.69-7.3c-.65-.75-1.44-1.38-2.15-2.09a.73.73,0,0,1-.21-.45,5.1,5.1,0,0,1,.62-2.21c.36-.79.35-.81,1.21-.72a5,5,0,0,1,2.33.75,2.83,2.83,0,0,1,1.22,3.2c-.15.53-.32,1-.46,1.57a1.34,1.34,0,0,0,.38,1.35,4.38,4.38,0,0,0,4.43.86,2.22,2.22,0,0,0,1.2-1.33,8.07,8.07,0,0,0,.27-4,5.44,5.44,0,0,0-2.44-3.29,12.47,12.47,0,0,0-6.35-2.32,2.34,2.34,0,0,1,.83-1,4.45,4.45,0,0,1,2.2-.74l1-.1c.27,0,.38-.15.34-.45a3.76,3.76,0,0,0-1.23-2.27,4.81,4.81,0,0,0-2.75-1.43,4.09,4.09,0,0,0-1.3.14,7.66,7.66,0,0,0-3.3,1.49c-.19-.44-.35-.87-.56-1.29a6.9,6.9,0,0,0-3.14-3.39,4.19,4.19,0,0,0-6.17,3.58,3.69,3.69,0,0,0,1.42,3.27,5.05,5.05,0,0,0,3,1.24c.5,0,.68-.15.7-.65,0-.32,0-.64,0-1s.13-.56.58-.55a2.36,2.36,0,0,1,2.3,2.19,3.23,3.23,0,0,1-.14,1.79,12.27,12.27,0,0,0-.42,2c0,.28,0,.58,0,.92l-.31-.16a14.56,14.56,0,0,0-6.88-2.21,10.94,10.94,0,0,0-7.78,2.69,13.28,13.28,0,0,0-4.41,7.89c-.07.36-.11.73-.17,1.1a2.15,2.15,0,0,1-2.51,1.44,1.18,1.18,0,0,1-.71-1.45c.21-.74.43-1.48.61-2.23a1.64,1.64,0,0,0-1.69-2.14,2.84,2.84,0,0,0-3.07,2.12,8.53,8.53,0,0,0,.5,6.85,4.61,4.61,0,0,0,2.84,2.41,3.62,3.62,0,0,0,2-.07c.84-.25,1.68-.49,2.53-.7.62-.16.63-.14.9.43a13.74,13.74,0,0,0,3.18,4.41,8,8,0,0,0,11.55-.42,8.73,8.73,0,0,0,2.38-8.24,5,5,0,0,0-4.37-4.13,12.33,12.33,0,0,0-2.1-.19,3.35,3.35,0,0,0-3.48,3,3.91,3.91,0,0,0,.14,2,1.57,1.57,0,0,0,2.2,1,14.81,14.81,0,0,0,1.91-1.14.76.76,0,0,1,1.18.51,4.06,4.06,0,0,1-3.82,4.48,2.82,2.82,0,0,1-2.25-1.12A9,9,0,0,1,80,583.7a5,5,0,0,1,3.91-1.87,13.17,13.17,0,0,1,6.28,1.25,7.81,7.81,0,0,1,4.63,6.5,14.33,14.33,0,0,1-4.14,12.11A11.14,11.14,0,0,1,83.37,605a25.85,25.85,0,0,1-12.23-1.89,15.06,15.06,0,0,1-8.82-10.41,26,26,0,0,1-.75-9.66,2.06,2.06,0,0,0,0-.34l-7.24,1.4c0,.43-.09,1-.1,1.51a28.14,28.14,0,0,0,1.87,10.11,32.8,32.8,0,0,0,4.49,8.65c.37.48.83.9,1.24,1.35a.59.59,0,0,1,.16.3,17.92,17.92,0,0,1-2.25,11.19,12,12,0,0,1-7.11,5.65,8.37,8.37,0,0,1-8.82-2.45,11.58,11.58,0,0,1-3.31-6.64,6.27,6.27,0,0,1,1.26-5.19,6.15,6.15,0,0,1,3.35-2c1.4-.32,2.83-.5,4.24-.73a1.3,1.3,0,0,1,1.44.84,4.68,4.68,0,0,1,.45,2.72,4.38,4.38,0,0,1-1.66,2.87,1.88,1.88,0,0,1-1.09.39c-.77,0-1.15-.49-1.23-1.43,0-.42-.05-.85-.09-1.27-.1-1-.61-1.33-1.56-1.1a3.17,3.17,0,0,0-1.86,1.3,4.49,4.49,0,0,0-.77,3.37,9.75,9.75,0,0,0,.31,1.52A4.06,4.06,0,0,0,46,617.88a8.59,8.59,0,0,0,4.84.26,1.82,1.82,0,0,0,1.61-1.65c.73-.11,1.46-.18,2.17-.35a6.64,6.64,0,0,0,1.62-.63,1.55,1.55,0,0,0,.59-2.38,13.91,13.91,0,0,0-1-1.2c.24-.71.51-1.44.72-2.19a4.21,4.21,0,0,0-2.1-5.15,6.37,6.37,0,0,0,1-2.7,6.69,6.69,0,0,0-.32-3.11A12.23,12.23,0,0,0,52,593a4.59,4.59,0,0,0-6.38.15,4.68,4.68,0,0,0-.37,5.53c.5.68,1.14,1,1.95.28.41-.37.85-.73,1.28-1.09a1.11,1.11,0,0,1,1.23-.16,1.13,1.13,0,0,1,.59,1,2,2,0,0,1-1.88,2.15,22.71,22.71,0,0,0-7.85,1.47,9.3,9.3,0,0,0-6.2,8.35c-.11,1.31-.09,2.64-.14,4,0,.13,0,.26,0,.44L33,614.76a11.87,11.87,0,0,0-4.27-.68A10.09,10.09,0,0,0,19,622.72a9.87,9.87,0,0,0-.18,1.87,11.83,11.83,0,0,0,.29,1.75c0,.19.1.37.16.56L18,626.7a2.53,2.53,0,0,0-2.59,1.22c-.38.57-.68,1.2-1.07,1.78s-.9,1.28-1.39,1.89a1.17,1.17,0,0,1-1.34.35l-1.35-.47a2.91,2.91,0,0,0,1.8,3.27,2.37,2.37,0,0,0,2.21-.49c.56-.45,1.09-.93,1.65-1.38a3.79,3.79,0,0,1,2.39-1,10.24,10.24,0,0,0-.21,1.14,1.73,1.73,0,0,0,2.35,1.67,1.18,1.18,0,0,0,.71-.8c.18-.52.34-1,.54-1.54a1.46,1.46,0,0,1,1.09-.92.72.72,0,0,1,.48.08,10,10,0,0,0,6.66,1.75,11,11,0,0,0,2.29-.31,4.37,4.37,0,0,0,3.46-5,6.77,6.77,0,0,0-2.93-5.06,3.81,3.81,0,0,0-3.1-.7,1.76,1.76,0,0,0-1.46,1.88,5.57,5.57,0,0,0,.19,1.41.89.89,0,0,0,1.25.57.86.86,0,0,1,1.26.93,3.51,3.51,0,0,1-.35,1.17,1,1,0,0,1-1.09.58A5,5,0,0,1,25,624.42a3.54,3.54,0,0,1,1.29-2.93,5.27,5.27,0,0,1,4.88-1.36,17.15,17.15,0,0,1,5.33,2.06,2.05,2.05,0,0,1,.63.58,14.7,14.7,0,0,0,10.07,6,22.33,22.33,0,0,0,10.64-.89,12.14,12.14,0,0,0,5.49-3.51C63.58,624,63.82,623.62,64.11,623.23Z"/><path class="cls-1" d="M56.07,574c.89-.16,1.71-.29,2.53-.45a23.45,23.45,0,0,0,6-1.86,1.4,1.4,0,0,0,.57-.51A23.74,23.74,0,0,1,72,563.74a21.06,21.06,0,0,1,8.46-3.26,28.56,28.56,0,0,1,7.33-.3,22.11,22.11,0,0,1,9.71,3.38,30.62,30.62,0,0,1,9.93,10.5,38,38,0,0,1,4.78,12.83,28.89,28.89,0,0,1,.49,5.72c0,.4.07.56.51.64a36.19,36.19,0,0,1,11.26,4.1A60.75,60.75,0,0,1,146,616.62a35.71,35.71,0,0,1,5.29,11.46,25.34,25.34,0,0,1,.75,6.13c0,.92,0,1.84,0,2.79H160v-.42c0-1.24,0-2.48,0-3.71a20.4,20.4,0,0,0-.77-5.92,43.38,43.38,0,0,0-5.61-12.47,69.31,69.31,0,0,0-12.83-14.87,64.74,64.74,0,0,0-13-9.08,38.48,38.48,0,0,0-7.39-3,.38.38,0,0,1-.33-.43,32.21,32.21,0,0,0-8-20.63,37.73,37.73,0,0,0-17.68-11.71,29.26,29.26,0,0,0-10-1.4,30.56,30.56,0,0,0-22.59,10.56,27.37,27.37,0,0,0-5.48,9.66Z"/><path class="cls-1" d="M375,485.13a35.76,35.76,0,0,0-6.7.27,35.4,35.4,0,0,0-15.44,7,60,60,0,0,0-19.33,24.2A30,30,0,0,0,331.3,524c0,.11-.05.21-.08.34l-.34,0A36.62,36.62,0,0,0,307.45,533a25.6,25.6,0,0,0-7.77,10.39,20.57,20.57,0,0,0-1.49,9.3,2.28,2.28,0,0,1,0,.27l-6.8-1.09c0-.84,0-1.78.14-2.7a37.12,37.12,0,0,1,22.53-29.86,29.13,29.13,0,0,1,8.27-2c.94-.09,1.88-.13,2.83-.17.22,0,.35,0,.42-.3a47.15,47.15,0,0,1,7.13-14.2,72.18,72.18,0,0,1,17.12-17.27,48.34,48.34,0,0,1,12.78-6.71,30.25,30.25,0,0,1,7-1.51,1.57,1.57,0,0,0,.31-.08H375Z"/><path class="cls-1" d="M361.27,573c2.93,1.89,4.29,4.72,5.09,7.9a21.83,21.83,0,0,1-.09,11.29,14.31,14.31,0,0,1-5.4,7.8,1.65,1.65,0,0,0-.43.4,14.49,14.49,0,0,0-2.33,6.52,5,5,0,0,0,2,4.43,3.57,3.57,0,0,0,4.42,0,4.67,4.67,0,0,0,2.26-3.5,1.14,1.14,0,0,0-.76-1.37,3.1,3.1,0,0,0-1.12-.22.79.79,0,0,0-.77,1.17.9.9,0,0,1-.52,1.3,3.56,3.56,0,0,1-2.09.15,2,2,0,0,1-1.34-1.89,4.06,4.06,0,0,1,.58-2.29,6.86,6.86,0,0,1,6.95-3.15A4.1,4.1,0,0,1,371,605a10.88,10.88,0,0,1-1.41,8.84.81.81,0,0,0,.16,1.11,4.37,4.37,0,0,0,1.13.7c.31.15.67.19,1,.31a1.16,1.16,0,0,1,.92,1.42,1.65,1.65,0,0,1-2.34,1.57l-.52-.18a2.88,2.88,0,0,0,.47,1.72c.43.64.95,1.22,1.42,1.83a10,10,0,0,1,.78,1.06,2.25,2.25,0,0,1-.75,3,4.07,4.07,0,0,1-2.38.57c.17-.47.33-.9.47-1.34a1.26,1.26,0,0,0-.42-1.51c-.59-.44-1.19-.88-1.81-1.29s-1.12-.62-1.65-1c-1.31-.86-1.62-1.89-1.21-3.55,0-.11.08-.22.13-.38a2.33,2.33,0,0,0-.37.08,7,7,0,0,1-3.86.16,10,10,0,0,1-6.84-4.22,10.34,10.34,0,0,1-1.79-6.86,22.76,22.76,0,0,1,.91-3.66c0-.14.08-.28.14-.47h-2.47a13.41,13.41,0,0,1-5.24-.91,9.31,9.31,0,0,1-5.05-5.39,20.92,20.92,0,0,1-1.36-6c-.07-.71-.09-1.43-.17-2.15a1.91,1.91,0,0,0-2.79-1.35,1,1,0,0,0-.3,1.41c.2.3.45.57.68.85s.42.48.61.73a1.07,1.07,0,0,1-.16,1.7,4.08,4.08,0,0,1-2.43.9,4.41,4.41,0,0,1-4.4-6,5,5,0,0,1,1.54-2.06,13,13,0,0,1,7.2-2.95,6.12,6.12,0,0,1,3.77,1,.05.05,0,0,0,0,0,4.22,4.22,0,0,1,5.28-2c.69.21,1.36.46,2.08.71.22-.21.49-.47.78-.7a1.74,1.74,0,0,1,3,.72,7.83,7.83,0,0,1,.64,2.82c0,.38.06.63.54.7a1.36,1.36,0,0,1,1,1,5.9,5.9,0,0,1,.39,1.58,8.72,8.72,0,0,1-.35,3.55,4.15,4.15,0,0,1-3,2.89,5.91,5.91,0,0,1-4,0,3.4,3.4,0,0,1-2.19-2.36c-.21-.89.09-1.35,1-1.49.52-.08,1.06-.08,1.59-.15a1.29,1.29,0,0,0,.95-2.14,4.36,4.36,0,0,0-2.23-1.61,4.67,4.67,0,0,0-3.5.24,1.17,1.17,0,0,0-.83,1.16,18.6,18.6,0,0,0,1.05,5.42,5.52,5.52,0,0,0,4.87,3.76,9.72,9.72,0,0,0,4.82-.82,11.78,11.78,0,0,0,5.19-4.17,8.21,8.21,0,0,0,1-7.48,12.06,12.06,0,0,0-6.11-7.17,17.61,17.61,0,0,0-10.08-1.95,1.74,1.74,0,0,0-1.22.59,16.05,16.05,0,0,1-3.7,2.63,37.1,37.1,0,0,1-11.48,4.23,26.88,26.88,0,0,1-7.44.2,35.57,35.57,0,0,1-9.11-2.09,32.07,32.07,0,0,1-12.76-8.47A27.31,27.31,0,0,1,293,561.9c0-.07,0-.15-.07-.3.58.06,1.12.09,1.65.17a20.56,20.56,0,0,1,6.61,2.13,1,1,0,0,1,.38.37A19.93,19.93,0,0,0,310.8,573a27.61,27.61,0,0,0,8.91,2.5,30.72,30.72,0,0,0,9.23-.26,16.32,16.32,0,0,0,9.53-5,16.75,16.75,0,0,0,3.69-7.13,26.28,26.28,0,0,0,.81-9.7,11.6,11.6,0,0,0-5.79-8.92,14.8,14.8,0,0,0-9.65-2.08,7.72,7.72,0,0,0-6.15,4.2,12.59,12.59,0,0,0-1.42,7.1,5.08,5.08,0,0,0,2.77,4.19,8.94,8.94,0,0,0,9.59-.56c2.25-1.6,1.9-4.61-.63-5.91a4.52,4.52,0,0,0-2.16-.51.74.74,0,0,0-.73.45.73.73,0,0,0,.08.84,9.22,9.22,0,0,1,1,1.55,1.67,1.67,0,0,1-1.25,2.57,4,4,0,0,1-2.79-.33,3.14,3.14,0,0,1-1.83-2.79,9.22,9.22,0,0,1,.35-3.09,4.85,4.85,0,0,1,4.11-3.7,8.79,8.79,0,0,1,8.42,2.76,8.24,8.24,0,0,1,2.28,6.4,8.32,8.32,0,0,1-2.46,5.08,13.42,13.42,0,0,1-4.27,3c-.29.14-.42.27-.33.6.22.8.4,1.62.63,2.43a4,4,0,0,1-1.85,4.91,7.91,7.91,0,0,1-4.88,1.19,7.69,7.69,0,0,1-2.83-.61,3,3,0,0,1-1.54-3.46,1.48,1.48,0,0,1,1.8-1.13,12.25,12.25,0,0,1,2.34.64c.93.39,1.73-.63,1.65-1.36a2.32,2.32,0,0,0-1.83-1.9c-4.15-.66-7.61-2.47-9.83-6.18a11.5,11.5,0,0,1-1.19-8.94,14.32,14.32,0,0,1,1.81-4.42c-.66-.07-1.29-.12-1.91-.21a3.82,3.82,0,0,1-1.11-.31,3,3,0,0,0-3.91,1.82,2,2,0,0,0,0,.24c0,.6.2.81.81.72,1.32-.19,1.59.1,1.29,1.39a5.36,5.36,0,0,1-1.94,3.08c-1.55,1.22-4,.68-5.33-.56a4.2,4.2,0,0,1-.53-5.35,7.71,7.71,0,0,1,4-3.1l.43-.16a8.47,8.47,0,0,1-1.52-3.35,3.45,3.45,0,0,1,.37-2.77A4.68,4.68,0,0,1,310,534.3c.63-.15.68-.09.74.54a6.87,6.87,0,0,0,.57,2.6,2.58,2.58,0,0,0,1.2,1.22c.16-.8.26-1.6.49-2.37a10.69,10.69,0,0,1,3.25-5.43,4.05,4.05,0,0,1,3-1.09c.73.05,1.46.05,2.18.17,1.9.29,2.55,1.55,2.39,3.33a4.25,4.25,0,0,1-.79,2.11,1.53,1.53,0,0,1-1.93.71c-.49-.12-1-.3-1.45-.41a2.76,2.76,0,0,0-3.1,1.27,5.9,5.9,0,0,0-.76,3,.28.28,0,0,0,.14.24,7.81,7.81,0,0,0,2.72.87.67.67,0,0,0,.6-.28,12.63,12.63,0,0,1,6.63-4.41,11,11,0,0,1,4.6-.17c1.53.23,3,.58,4.54.87a1.7,1.7,0,0,0,.26,0c0-.27,0-.52-.05-.77a19.76,19.76,0,0,1,6.09-15.18,12.65,12.65,0,0,1,7.88-3.75,25.28,25.28,0,0,1,3.79.08c1,0,2,.22,3,.26a13.93,13.93,0,0,0,4.43-.76,10.28,10.28,0,0,0,3.59-1.76,5.4,5.4,0,0,0,1.46-6.92,10.76,10.76,0,0,0-6-5c-2.24-.77-3.64.12-4.56,2.09a3.06,3.06,0,0,0-.24,2.44,3.14,3.14,0,0,0,.56.95,1.27,1.27,0,0,0,1.71.11c.28-.2.25-.47.19-.75-.1-.52,0-.77.5-.92a5.72,5.72,0,0,1,2.57-.16,2,2,0,0,1,.72.32,4.68,4.68,0,0,1,1.82,4.35,2.92,2.92,0,0,1-1.1,1.75,6.91,6.91,0,0,1-6.08,1.41c-1.43-.36-2.82-.85-4.23-1.3a.51.51,0,0,0-.62.14,8,8,0,0,1-4.36,2.34,5.16,5.16,0,0,1-6.16-4.16,6.79,6.79,0,0,1,0-3.17,2.65,2.65,0,0,1,3.36-1.9,1.6,1.6,0,0,1,1.19,1.14c.16.48.26,1,.4,1.46a1.16,1.16,0,0,0,1.79.87,2.6,2.6,0,0,0,1.25-1.13,10.13,10.13,0,0,0,1.14-3.43,29.49,29.49,0,0,1,.91-3.62,5.13,5.13,0,0,1,4.54-3.57,13.16,13.16,0,0,1,5.23.07.47.47,0,0,0,.15,0,5.57,5.57,0,0,1-.62-4.29,2.91,2.91,0,0,1,3-2.56c1,0,1.94,0,2.92.06a2.16,2.16,0,0,1-.07-.73,4.93,4.93,0,0,1,.5-1.36c.71-1.18,3.43-2,4.64-1.57a3.49,3.49,0,0,1,1.86,1.24c.43.67.29,1.05-.51,1.15s-1.43.1-2.15.15a4.5,4.5,0,0,0-.51.08c-.52.11-.73.31-.75.69a.92.92,0,0,0,.68,1c.46.15.94.27,1.41.41a1.06,1.06,0,0,1,.81.85,7.68,7.68,0,0,1,.11,1.51,1.18,1.18,0,0,1-.82,1.05c-.87.32-1.77.56-2.66.82-.56.16-1.14.26-1.7.42a2.33,2.33,0,0,0-.72.32,1.16,1.16,0,0,0-.42.51,2.07,2.07,0,0,0,.87,1.94,8.15,8.15,0,0,1,3.22,2.8,12.09,12.09,0,0,1,2.31,8.48,11.94,11.94,0,0,1-8.8,9.88c.52.29,1,.55,1.49.84a13.13,13.13,0,0,1,4.95,5c1.66,3.18,1.19,6.23-.8,9.1a15.84,15.84,0,0,1-4.51,4.08l-.64.41a5.11,5.11,0,0,0-2.16,4.18.62.62,0,0,0,.21.49c1.18,1,2.47,1.73,4.11,1.23a7.78,7.78,0,0,0,1-.47,2.83,2.83,0,0,1-1.59-1.86,2,2,0,0,1,.05-1.05,4,4,0,0,1,1.16-1.88,1.6,1.6,0,0,1,1.49-.49,5.91,5.91,0,0,1,3.23,1.63,3.53,3.53,0,0,1,.17,5,13.62,13.62,0,0,1-7.95,3.87,7.82,7.82,0,0,1-6.22-2.26,3.45,3.45,0,0,1-.93-3.1c.16-1,.38-2,.57-3-.43,0-.88.11-1.34.1a7.39,7.39,0,0,1-4.13-1.29,4.61,4.61,0,0,1-1.14-1.15,1.53,1.53,0,0,1,0-1.87c.21-.31.43-.61.65-.91s.34-.45.5-.68c.66-1,.39-1.51-.79-1.62a11.16,11.16,0,0,1-1.14-.16,2,2,0,0,1-1.81-2.74,7.16,7.16,0,0,1,2.59-4,8.21,8.21,0,0,1,5.69-2,21.6,21.6,0,0,1,2.67.13,2.37,2.37,0,0,1,2.22,2.16,5.55,5.55,0,0,1,0,2.5,1.57,1.57,0,0,1-2.23,1.18c-.61-.21-1.18-.49-1.79-.69a1.47,1.47,0,0,0-2.13,1.39c-.19,1.58.45,2.42,2.15,2.7a7.47,7.47,0,0,0,4.85-.68,4.61,4.61,0,0,0,2.72-3.78,4.94,4.94,0,0,0-1.16-3.63,10.64,10.64,0,0,0-4.89-3.26,16,16,0,0,0-10.31-.28,8.19,8.19,0,0,0-5.75,5.81,20.89,20.89,0,0,0-.76,7.08c0,.4,0,.8.08,1.2a.44.44,0,0,0,.17.31,10.69,10.69,0,0,1,3.68,3.55,28.69,28.69,0,0,1,4.62,10.61,14.26,14.26,0,0,1,.1,4,45.64,45.64,0,0,1-2.15,10.66c-.08.26-.17.51-.26.78a23,23,0,0,1,9.74,1.88.86.86,0,0,0,.75,0,7.61,7.61,0,0,0,3.62-4.3,2.41,2.41,0,0,0-.37-2.27,4.27,4.27,0,0,0-3.68-1.83,2.34,2.34,0,0,0,.18.5,7.48,7.48,0,0,0,.54.69,1.22,1.22,0,0,1-.27,2,4.63,4.63,0,0,1-1.52.55,5.7,5.7,0,0,1-2.69-.1,2.82,2.82,0,0,1-2.22-2.86,6.73,6.73,0,0,1,2.58-5.44,4.73,4.73,0,0,1,5.56-.3l.34.21a2.14,2.14,0,0,1,.28-.32c.47-.42.93-.87,1.44-1.25a2.16,2.16,0,0,1,1.51-.41,11.3,11.3,0,0,1,3.11.45,2.74,2.74,0,0,1,2,3.6,24,24,0,0,1-1,2.68c-.06.13-.14.25-.25.46.39-.07.7-.13,1-.17a3.74,3.74,0,0,1,3.63,1.57,7.52,7.52,0,0,1,1.37,6.05,2.88,2.88,0,0,1-1.65,2.17,5.43,5.43,0,0,1-3.69.45.9.9,0,0,1-.79-1.23,14.66,14.66,0,0,1,.61-1.55c.16-.4.34-.78.47-1.18a1,1,0,0,0,0-.51c-.13-.54-.37-.7-.86-.49a3.49,3.49,0,0,0-1.16.74c-.66.7-1.25,1.46-1.85,2.21A8.26,8.26,0,0,1,361.27,573Z"/><path class="cls-1" d="M310.89,623.23a8,8,0,0,1-2.39,2.64c-.75.59-1.51,1.18-2.22,1.83a3.75,3.75,0,0,0-.77,1.1c-.1.2-.13.62,0,.72a1.17,1.17,0,0,0,.86.27,4,4,0,0,0,1.11-.41c.52-.22,1-.5,1.57-.67a1,1,0,0,1,1.42.82,5.1,5.1,0,0,1-.67,4,3.34,3.34,0,0,1-2.92,1.45,7.88,7.88,0,0,1-5-1.38,3.87,3.87,0,0,1-1.72-2.85,12.13,12.13,0,0,1,.13-1.88c-.29.14-.58.31-.89.45a7.62,7.62,0,0,1-2.8.87,2.6,2.6,0,0,1-2.71-1.5,8,8,0,0,1-.69-4.37,4.14,4.14,0,0,1,.87-1.58,13.36,13.36,0,0,1,.91-1.14,14,14,0,0,1-.68-1.8,4.37,4.37,0,0,1,.94-4,6.79,6.79,0,0,1,5.5-2.53,2.84,2.84,0,0,1,2.86,2.38,5.8,5.8,0,0,1-.15,3.3,2.7,2.7,0,0,1-.55,1,1.15,1.15,0,0,1-1.7.12c-.27-.22-.53-.44-.82-.64a.45.45,0,0,0-.36-.08c-.08,0-.11.23-.1.35a4.19,4.19,0,0,0,1.69,3.17,2.64,2.64,0,0,0,2.72.38,7.94,7.94,0,0,0,4-3.45,1,1,0,0,0,.05-.9,23.53,23.53,0,0,1-1.9-8.87c0-.27,0-.53,0-.79-1.13.33-2.24.69-3.36,1a43.55,43.55,0,0,1-9.57,1.48,15.53,15.53,0,0,1-5.88-1.09,28.51,28.51,0,0,1-8-4.27,10.26,10.26,0,0,1-2.8-3.1.48.48,0,0,0-.34-.2,21.39,21.39,0,0,0-8.27.66,8.41,8.41,0,0,0-6.05,6.69,15.94,15.94,0,0,0,1.47,11.45,9.32,9.32,0,0,0,2.1,2.65,4.79,4.79,0,0,0,7.95-2,7.49,7.49,0,0,0,.33-4.51,3.51,3.51,0,0,0-.66-1.34c-.74-.93-2.64-.6-3.19,0a1.4,1.4,0,0,0-.25,1.46c.22.68.53,1.34.76,2a1.56,1.56,0,0,1-1,2.13,2.58,2.58,0,0,1-.42.12,6.17,6.17,0,0,1-2.53-.11,2.48,2.48,0,0,1-1.91-2.34,11.15,11.15,0,0,1,2.07-8.31A5.84,5.84,0,0,1,271.3,609a1.72,1.72,0,0,1,1.92,1.11,11.69,11.69,0,0,1,.42,1.77c.06.25.07.51.15.74a.63.63,0,0,0,1,.42,7.11,7.11,0,0,0,.74-.47c.38-.27.75-.56,1.14-.81a1.77,1.77,0,0,1,2.38.14,5.8,5.8,0,0,1,1.71,2.83,6.49,6.49,0,0,1,.24,3.55c.8-.16,1.57-.34,2.35-.48a4.11,4.11,0,0,1,4.89,2.23,9.68,9.68,0,0,1,.76,1.71,7.76,7.76,0,0,1,.09,4.79,14.57,14.57,0,0,1-2.75,5.49,9.63,9.63,0,0,1-.85.84,3.56,3.56,0,0,1-5.09-.34,5.65,5.65,0,0,1-1.51-3.36,1.3,1.3,0,0,1,.18-.79,3.75,3.75,0,0,1,2.58-1.72A2.67,2.67,0,0,1,284,628l.1.22a2,2,0,0,0,.63-1.35,4.21,4.21,0,0,0-1.29-3.58,1,1,0,0,0-.67-.25,10.35,10.35,0,0,0-1.77.26,3.11,3.11,0,0,0-2,1.45,23.07,23.07,0,0,1-3.9,4.85,9,9,0,0,1-7,2.49,8.21,8.21,0,0,1-4.39-1.85,15.16,15.16,0,0,1-4.21-5.16c-.05-.11-.12-.23-.21-.41-.09.3-.14.52-.22.74-1.59,4.27-4.47,7.23-9,8a11.46,11.46,0,0,1-11.18-4.24,6.22,6.22,0,0,1-.73-1.19,2,2,0,0,0-2-.87,1.24,1.24,0,0,0-.59.65c-.27.8-.44,1.62-.66,2.42a20.17,20.17,0,0,1-.63,2.18,1.47,1.47,0,0,1-1.74,1.07l-.44,0a1.34,1.34,0,0,1-1.46-1.16c-.12-.42-.24-.84-.38-1.25a.88.88,0,0,0-.92-.55.65.65,0,0,0-.66.57,12.42,12.42,0,0,0-.16,1.35c-.06.57-.06,1.14-.16,1.7s-.41.7-.86.4a3.69,3.69,0,0,1-1-.92c-1.17-1.64-.41-4.06.53-5.21a2.51,2.51,0,0,1,1.74-1,7.57,7.57,0,0,1,.93,0c0-.42-.12-.85-.12-1.28a15.48,15.48,0,0,1,.15-2.46,2.79,2.79,0,0,1,2.5-2.25,5.4,5.4,0,0,1,4.29.75,10.9,10.9,0,0,1-.26-3.92,16,16,0,0,1,.42-2.67,4.83,4.83,0,0,1,3.47-3.5c1.27-.39,2.58-.62,3.88-.89a8.6,8.6,0,0,0,3-1.11,2.29,2.29,0,0,0,1.21-1.9.86.86,0,0,0-.64-1c-.39-.13-.8-.22-1.19-.32-1.27-.33-1.78-.83-1.85-1.83a2.57,2.57,0,0,1,1.51-2.74c1.75-.73,5.3-.4,6.87,1.78a5.5,5.5,0,0,1,.82,4.9,8.12,8.12,0,0,1-2.13,3.6.65.65,0,0,0-.19.76c.48,1.49,1,3,1.35,4.5a6.59,6.59,0,0,1-1.6,5.83c-1,1.19-2.35,1.39-4,.72a6.07,6.07,0,0,1-1.24-.7,2.58,2.58,0,0,1-1.17-2.4,11.07,11.07,0,0,1,.23-1.73c.13-.55.42-.66,1-.51a.6.6,0,0,0,.84-.42,1.38,1.38,0,0,0-.7-1.85,2.79,2.79,0,0,0-1.86-.26,4.72,4.72,0,0,0-2.79,1.58,2.91,2.91,0,0,0-.5,2.87,10.24,10.24,0,0,0,5.58,6.59,5.28,5.28,0,0,0,6.59-1.82,12.52,12.52,0,0,0,2-4.82,9.78,9.78,0,0,0,.4-3c-.1-1.13-.19-2.25-.34-3.38a13.12,13.12,0,0,1,4-11.58,20,20,0,0,1,11.29-5.59,15.64,15.64,0,0,1,4.38-.09c-.16-.75-.36-1.46-.47-2.18a42.4,42.4,0,0,1-.57-4.31,9.93,9.93,0,0,1,2.69-7.3c.65-.75,1.44-1.38,2.15-2.09a.73.73,0,0,0,.21-.45,5.1,5.1,0,0,0-.62-2.21c-.36-.79-.35-.81-1.21-.72a5,5,0,0,0-2.33.75,2.83,2.83,0,0,0-1.22,3.2c.15.53.32,1,.46,1.57a1.34,1.34,0,0,1-.38,1.35,4.38,4.38,0,0,1-4.43.86,2.22,2.22,0,0,1-1.2-1.33,8.07,8.07,0,0,1-.27-4,5.44,5.44,0,0,1,2.44-3.29,12.47,12.47,0,0,1,6.35-2.32,2.34,2.34,0,0,0-.83-1,4.45,4.45,0,0,0-2.2-.74l-1-.1c-.27,0-.38-.15-.34-.45a3.76,3.76,0,0,1,1.23-2.27,4.81,4.81,0,0,1,2.75-1.43,4.09,4.09,0,0,1,1.3.14,7.66,7.66,0,0,1,3.3,1.49c.19-.44.35-.87.56-1.29a6.9,6.9,0,0,1,3.14-3.39,4.19,4.19,0,0,1,6.17,3.58,3.69,3.69,0,0,1-1.42,3.27,5.05,5.05,0,0,1-3,1.24c-.5,0-.68-.15-.7-.65,0-.32,0-.64,0-1s-.13-.56-.58-.55a2.36,2.36,0,0,0-2.3,2.19,3.23,3.23,0,0,0,.14,1.79,12.27,12.27,0,0,1,.42,2c0,.28,0,.58.05.92l.31-.16a14.56,14.56,0,0,1,6.88-2.21,10.94,10.94,0,0,1,7.78,2.69,13.28,13.28,0,0,1,4.41,7.89c.07.36.11.73.17,1.1a2.15,2.15,0,0,0,2.51,1.44,1.18,1.18,0,0,0,.71-1.45c-.21-.74-.43-1.48-.61-2.23a1.64,1.64,0,0,1,1.69-2.14,2.84,2.84,0,0,1,3.07,2.12,8.53,8.53,0,0,1-.5,6.85,4.61,4.61,0,0,1-2.84,2.41,3.62,3.62,0,0,1-2-.07c-.84-.25-1.68-.49-2.53-.7-.62-.16-.63-.14-.9.43a13.74,13.74,0,0,1-3.18,4.41,8,8,0,0,1-11.55-.42,8.73,8.73,0,0,1-2.38-8.24,5,5,0,0,1,4.37-4.13,12.33,12.33,0,0,1,2.1-.19,3.35,3.35,0,0,1,3.48,3,3.91,3.91,0,0,1-.14,2,1.57,1.57,0,0,1-2.2,1,14.81,14.81,0,0,1-1.91-1.14.76.76,0,0,0-1.18.51,4.06,4.06,0,0,0,3.82,4.48,2.82,2.82,0,0,0,2.25-1.12A9,9,0,0,0,295,583.7a5,5,0,0,0-3.91-1.87,13.17,13.17,0,0,0-6.28,1.25,7.81,7.81,0,0,0-4.63,6.5,14.33,14.33,0,0,0,4.14,12.11,11.14,11.14,0,0,0,7.28,3.28,25.85,25.85,0,0,0,12.23-1.89,15.06,15.06,0,0,0,8.82-10.41,26,26,0,0,0,.75-9.66,2.06,2.06,0,0,1,0-.34l7.24,1.4c0,.43.09,1,.1,1.51a28.14,28.14,0,0,1-1.87,10.11,32.8,32.8,0,0,1-4.49,8.65c-.37.48-.83.9-1.24,1.35a.59.59,0,0,0-.16.3,17.92,17.92,0,0,0,2.25,11.19,12,12,0,0,0,7.11,5.65,8.37,8.37,0,0,0,8.82-2.45,11.58,11.58,0,0,0,3.31-6.64,6.27,6.27,0,0,0-1.26-5.19,6.15,6.15,0,0,0-3.35-2c-1.4-.32-2.83-.5-4.24-.73a1.3,1.3,0,0,0-1.44.84,4.68,4.68,0,0,0-.45,2.72,4.38,4.38,0,0,0,1.66,2.87,1.88,1.88,0,0,0,1.09.39c.77,0,1.15-.49,1.23-1.43,0-.42,0-.85.09-1.27.1-1,.61-1.33,1.56-1.1a3.17,3.17,0,0,1,1.86,1.3,4.49,4.49,0,0,1,.77,3.37,9.75,9.75,0,0,1-.31,1.52,4.06,4.06,0,0,1-2.65,2.83,8.59,8.59,0,0,1-4.84.26,1.82,1.82,0,0,1-1.61-1.65c-.73-.11-1.46-.18-2.17-.35a6.64,6.64,0,0,1-1.62-.63,1.55,1.55,0,0,1-.59-2.38,13.91,13.91,0,0,1,.95-1.2c-.24-.71-.51-1.44-.72-2.19a4.21,4.21,0,0,1,2.1-5.15,6.37,6.37,0,0,1-1-2.7,6.69,6.69,0,0,1,.32-3.11,12.23,12.23,0,0,1,3.15-5.74,4.59,4.59,0,0,1,6.38.15,4.68,4.68,0,0,1,.37,5.53c-.5.68-1.14,1-1.95.28-.41-.37-.85-.73-1.28-1.09a1.11,1.11,0,0,0-1.23-.16,1.13,1.13,0,0,0-.59,1,2,2,0,0,0,1.88,2.15,22.71,22.71,0,0,1,7.85,1.47,9.3,9.3,0,0,1,6.2,8.35c.11,1.31.09,2.64.14,4,0,.13,0,.26,0,.44l1.15-.38a11.87,11.87,0,0,1,4.27-.68,10.09,10.09,0,0,1,9.78,8.64,9.87,9.87,0,0,1,.18,1.87,11.83,11.83,0,0,1-.29,1.75c0,.19-.1.37-.16.56l1.26-.2a2.53,2.53,0,0,1,2.59,1.22c.38.57.68,1.2,1.07,1.78s.9,1.28,1.39,1.89a1.17,1.17,0,0,0,1.34.35l1.35-.47a2.91,2.91,0,0,1-1.8,3.27,2.37,2.37,0,0,1-2.21-.49c-.56-.45-1.09-.93-1.65-1.38a3.79,3.79,0,0,0-2.39-1,10.24,10.24,0,0,1,.21,1.14,1.73,1.73,0,0,1-2.35,1.67,1.18,1.18,0,0,1-.71-.8c-.18-.52-.34-1-.54-1.54a1.46,1.46,0,0,0-1.09-.92.72.72,0,0,0-.48.08,10,10,0,0,1-6.66,1.75,11,11,0,0,1-2.29-.31,4.37,4.37,0,0,1-3.46-5,6.77,6.77,0,0,1,2.93-5.06,3.81,3.81,0,0,1,3.1-.7,1.76,1.76,0,0,1,1.46,1.88,5.57,5.57,0,0,1-.19,1.41.89.89,0,0,1-1.25.57.86.86,0,0,0-1.26.93,3.51,3.51,0,0,0,.35,1.17,1,1,0,0,0,1.09.58,5,5,0,0,0,4.45-4.36,3.54,3.54,0,0,0-1.29-2.93,5.27,5.27,0,0,0-4.88-1.36,17.15,17.15,0,0,0-5.33,2.06,2.05,2.05,0,0,0-.63.58,14.7,14.7,0,0,1-10.07,6,22.33,22.33,0,0,1-10.64-.89,12.14,12.14,0,0,1-5.49-3.51C311.42,624,311.18,623.62,310.89,623.23Z"/><path class="cls-1" d="M318.93,574c-.89-.16-1.71-.29-2.53-.45a23.45,23.45,0,0,1-6-1.86,1.4,1.4,0,0,1-.57-.51,23.74,23.74,0,0,0-6.87-7.48,21.06,21.06,0,0,0-8.46-3.26,28.56,28.56,0,0,0-7.33-.3,22.11,22.11,0,0,0-9.71,3.38,30.62,30.62,0,0,0-9.93,10.5,38,38,0,0,0-4.78,12.83,28.89,28.89,0,0,0-.49,5.72c0,.4-.07.56-.51.64a36.19,36.19,0,0,0-11.26,4.1A60.75,60.75,0,0,0,229,616.62a35.71,35.71,0,0,0-5.29,11.46,25.34,25.34,0,0,0-.75,6.13c0,.92,0,1.84,0,2.79H215v-.42c0-1.24,0-2.48,0-3.71a20.4,20.4,0,0,1,.77-5.92,43.38,43.38,0,0,1,5.61-12.47,69.31,69.31,0,0,1,12.83-14.87,64.74,64.74,0,0,1,13-9.08,38.48,38.48,0,0,1,7.39-3,.38.38,0,0,0,.33-.43A32.21,32.21,0,0,1,263,566.49a37.73,37.73,0,0,1,17.68-11.71,29.26,29.26,0,0,1,10-1.4,30.56,30.56,0,0,1,22.59,10.56,27.37,27.37,0,0,1,5.48,9.66C318.83,573.72,318.86,573.83,318.93,574Z"/><path class="cls-1" d="M187.54,301.87c.37-1.11.57-1.72.77-2.34,2.71-8.3,8.49-13.19,17-14.65,8.29-1.43,15.56.8,21.06,7.4,7.71,9.25,3.7,23.13-7.46,26.16-7.75,2.11-14.82-2.42-15.51-9.93-.34-3.72,1.77-7.28,4.89-8.26a6.89,6.89,0,0,1,8.45,3.27,8.07,8.07,0,0,1,.77,3.52,2.25,2.25,0,0,1-1.32,1.76,2.37,2.37,0,0,1-1.85-1.21c-1.32-2.63-2.56-3.59-4.11-2.86s-2.07,3.57-.83,5.75c1.44,2.54,5,3.56,8.37,2.4,7.24-2.5,9.23-11.35,3.9-17.31-6.4-7.16-18.79-6-24.33,2.34-7.21,10.8-1.3,24.7,11.76,27.65,14.12,3.18,25.92-6.33,26.76-21.45.45-8.07-2.14-15.22-6.19-22-5.54-9.26-12.85-17.14-20-25.17-3.71-4.19-7.34-8.44-10.94-12.73-10.3-12.29-12.59-26-7.28-41.1,1.33-3.75,2.86-7.42,4.16-11.18,3.26-9.49,4.16-19.06-.37-28.37-1.64-3.37-4.22-6.29-6.3-9.31,7,2.29,12.87,6.22,15.64,13.72,2.71,7.35.69,14.31-2.37,21.1l.65.54a11.79,11.79,0,0,1,.92-1.63,5,5,0,0,1,1.45-1.45c2.25-1.22,4.45-2.7,6.86-3.37a3.61,3.61,0,0,1,4.66,2.68c.34,2.24-1.23,3.32-3,4.08a10.41,10.41,0,0,1-3.08.82c-5.48.53-9.48,3.44-12.27,7.94a45.16,45.16,0,0,0-3.93,8.92c2.14-4.12,4.82-7.71,9-9.81,7.82-3.93,15.65-3.65,22.95,1.08s10,12,9,20.3c-.68,5.82-2.45,11.5-3.56,17.28-2,10.64-1.71,21,3.55,30.85,3.13,5.81,7.26,10.67,13.63,13.07,7.9,3,15.24-.92,16.52-8.66.77-4.71-2.39-9.44-6.87-10.12a6.55,6.55,0,0,0-3.14.28,4.41,4.41,0,0,0-2.4,5.71c1.06,2.06,2.89,2.29,5.41.68.41,2.84-1.35,5.28-4.56,6.31-7,2.24-14.21-3.78-13.45-11.23.59-5.78,4.91-9.51,11-9.49.68,0,1.36.08,2.74.16-1-.63-1.56-.95-2.08-1.25-5.13-2.93-9.65-6.56-12.55-11.83-3.65-6.65-1.79-13,4.67-16.37a4.06,4.06,0,0,1,.8-.28c.38,3.16.43,6.33,1.17,9.32,1.54,6.13,5.8,10.5,10.26,14.66,2.91,2.72,6,5.25,8.76,8.13a17.88,17.88,0,0,1,5.09,16c-1.44,8.39-7.57,13.16-16.12,12.71a6.39,6.39,0,0,0-1.84.15,14.67,14.67,0,0,0,9.62,1.41c3.69-.63,7.31-1.7,11-2.3a36.7,36.7,0,0,1,9.08-.7c4.16.37,7,3,8.24,7a32.3,32.3,0,0,1,1,4.25c.57,3.18,1.15,6.34,3.45,9a22.43,22.43,0,0,1-2.91-1.55c-1.62-1.16-3.19-2.4-4.68-3.71A26.22,26.22,0,0,0,269,292a84,84,0,0,1-11-.59,27.88,27.88,0,0,1-12.7-5c.89,1,1.78,2,2.66,3,5.53,6.37,4.37,11.63-3.68,15.37.19-.8.27-1.41.47-2a17.69,17.69,0,0,0-1.53-15.48c-2.65-4.39-5.68-8.55-8.53-12.81-6.7-10-10.62-20.85-10.33-33,.07-2.74.54-5.46.87-8.59-3.33,1.83-6.35,3.72-7.75,7.34a4.43,4.43,0,0,0,.22,2.57c.06.23,1.23.47,1.36.3a11.57,11.57,0,0,0,1.17-2.3,4.87,4.87,0,0,0,.18-1c2.05.65,1.92,2.25,1.8,3.71a4.83,4.83,0,0,1-4.11,4.6,5.65,5.65,0,0,1-5.84-3.56c-1.26-3.1-.22-5.7,3.75-8.83-.84-.17-1.44-.3-2-.41-9.65-1.83-15.32-11.09-12.1-19.75,2.66-7.14,10.82-10.64,17.22-7.38,3.39,1.73,5.39,5.71,4.51,9-.41,1.54-1.24,2.67-2.94,2.77s-2.65-.83-3.25-2.37a7.44,7.44,0,0,0-1.45-1.82,8.83,8.83,0,0,0-2,1.77c-1.15,2-.43,3.86.73,5.59,1.5,2.23,3.47,3.66,6.33,3.34,4.52-.5,7.53-3.56,8.37-8.46,1.26-7.34-2.3-14.27-8.73-17-7.24-3.11-15.43-1.26-19.76,5-6.17,8.92-6.9,18.65-1.43,27.93,4.21,7.15,9.71,13.55,14.78,20.17,6.94,9.06,14.23,17.85,20.95,27.06a35,35,0,0,1,7.09,22.39c-.09,2.2-.49,4.39-.79,7,.73-.67,1.29-1.2,1.87-1.71,11.58-10.18,24.57-13.68,39.35-8.07a34.08,34.08,0,0,1,15.66,12.36c1.74,2.42,3.44,4.88,5.17,7.32,3.63,5.16,7.78,9.52,14.85,9.41l.07.74c-2,.67-4,1.51-6,2-7.48,1.67-12.58-1-15.39-8.06-1.09-2.77-1.7-5.73-2.86-8.47-1-2.47-2.53-4.75-3.82-7.12l-.61.33c.56,1.3,1.2,2.58,1.66,3.91,3.5,10-2.22,18.38-12.81,18.89a45.15,45.15,0,0,1-17.56-3,23.39,23.39,0,0,0-17.22.4c-3.77,1.49-7.68,2.67-12.29,1.34a14.07,14.07,0,0,0,2-.67c3.06-1.68,6.16-3.31,9.14-5.15,1.88-1.16,3.51-2.73,5.36-3.95,4.55-3,8.19-2.7,12.35.88,1.4,1.19,2.68,2.53,4.14,3.64a8.52,8.52,0,0,0,3.86,1.66,43.24,43.24,0,0,1-3.66-3.36c-3.9-4.45-4-9.88-.3-13.68,3.53-3.64,10.9-4.21,14.85-1.15a8.87,8.87,0,0,1,2.92,9.51,5.78,5.78,0,0,1-5.31,3.74,4.49,4.49,0,0,1-4.7-3l.91.09c2.25.27,3.57-.54,3.76-2.3a3.47,3.47,0,0,0-3.49-3.73,5.7,5.7,0,0,0-5.78,4.89,7.41,7.41,0,0,0,5.53,8.61,17.43,17.43,0,0,0,6.35.39c3.89-.52,7.29-2.18,8.58-6.29,1.55-4.95-.13-9.27-3.42-12.91s-7.93-5.22-12.79-5.46c-11.67-.56-21.12,4.2-28.84,12.68-2.38,2.6-4.53,5.4-6.8,8.1-6.6,7.88-15.21,10.37-25.12,9.36-7.7-.79-14.57-3.34-19.09-10-1.9-2.8-3.09-6.08-4.6-9.12a4.79,4.79,0,0,0-.34.82C184.1,325,177,330.88,166.34,332.35a48.91,48.91,0,0,1-12.56-.09c-5.68-.69-10.29-3.78-14.06-8-2.65-3-5.05-6.18-7.74-9.11-7.69-8.39-17.1-13.16-28.68-12.52-6.1.34-11.56,2.45-14.84,8.17-2.77,4.85-2.58,10.11.39,13.3s10,4.43,14.39,2.37a7.6,7.6,0,0,0,4.13-8.83c-.67-2.34-2.2-4-4.69-4.06A5.61,5.61,0,0,0,98.92,315a3.27,3.27,0,0,0-.13,3.24c.78.78,2.37.75,3.61,1.07l.54.15c-.81,2.26-2.65,2.8-4.69,2.83a5.5,5.5,0,0,1-5.39-3.9,8.41,8.41,0,0,1,1.64-8c3.07-3.61,7.22-3.84,11.4-2.86a9,9,0,0,1,7.33,7.91c.62,4.39-1.61,7.64-4.8,10.35-.57.48-1.18.91-1.78,1.36l.38.59c1.48-.94,3-1.79,4.43-2.84s2.58-2.42,4-3.51c3.65-2.9,7.06-3.11,11-.7a36.24,36.24,0,0,1,3.75,2.65c3.9,3.1,7.75,6.26,12.88,7.21l-.13.81a60.57,60.57,0,0,1-7.14-.48,39,39,0,0,1-6.34-2,20.75,20.75,0,0,0-14.16-.19c-6.09,2.06-12.31,3.71-18.87,3.37-7.06-.37-12.43-4.42-13.61-10.52a16.49,16.49,0,0,1,1.55-10.28c.31-.66.63-1.31.94-2l-.77-.39c-1.41,2.81-3,5.55-4.18,8.44-1,2.45-1.54,5.14-2.56,7.6-2.68,6.51-7.63,9.17-14.54,7.81a66.29,66.29,0,0,1-6.78-2.08c.29-.52.36-.75.43-.75,5.92-.1,10-3.28,13.34-7.82,2-2.78,4-5.64,6-8.41,13.37-18.16,36.92-20.79,54-6.06,1,.89,2,1.81,2.7,2.4,0-3.86-.33-7.95.08-12a34.71,34.71,0,0,1,7-17.29c6.84-9.13,14.06-18,21-27,5-6.5,10.25-12.85,14.51-19.8,5-8.08,4.55-16.86.3-25.26-2.87-5.67-7.54-9-14.12-9.06-6.07,0-11.15,2.07-14.27,7.57a14.87,14.87,0,0,0-.38,14.93c1.61,3.07,4.47,4.39,7.81,4.39,3.16,0,4.93-2.18,6.2-4.77a4.41,4.41,0,0,0-.52-5c-1.14-1.44-2.15-1.29-2.87.38-.09.21,0,.53-.19.65-.95.76-2,2.11-2.89,2.05a4.35,4.35,0,0,1-3-2.24c-1.41-3.08.67-7.43,4.09-9.27,5.37-2.88,12.31-.95,15.94,4.44,5.83,8.66.44,20.38-10.39,22.56-.64.13-1.3.22-2.47.41,3,2,4.79,4.19,4.31,7.57a5.69,5.69,0,0,1-6.22,4.85,5.11,5.11,0,0,1-4-6.42,3,3,0,0,1,1.65-1.8c.09.55,0,1.22.3,1.63a11.88,11.88,0,0,0,1.75,1.72c.38-.79,1.16-1.64,1.05-2.35a5.64,5.64,0,0,0-1.5-3c-1.88-1.83-4-3.43-6.45-5.52.39,3.52.87,6.23,1,8.94.33,12.23-3.58,23.18-10.34,33.21-2.4,3.56-4.94,7-7.31,10.6-3.83,5.77-5,11.95-2.48,18.58.09.26.13.55.22.9-7.26-2.39-9.13-8.61-4.43-14.32,1.1-1.33,2.26-2.6,3.29-4-6.84,5.25-14.78,6-22.9,5.72a27,27,0,0,0-19.71,7.3A37.42,37.42,0,0,1,80.26,304c2.87-3.39,3-7.57,3.87-11.51,1.44-6.54,6.21-9.92,13.09-8.89,5.13.77,10.18,2.12,15.29,3.08a15,15,0,0,0,10-1.46,6.53,6.53,0,0,0-1.16-.08c-12.73,1.39-19.78-10.38-16.11-21.05a29.13,29.13,0,0,1,5.26-8.46c1.86-2.3,4.33-4.1,6.57-6.08,7.54-6.72,13.88-14,12.27-25.25A10.51,10.51,0,0,1,136.58,238c-1.87,5.78-6.08,9.64-10.86,13-1.42,1-3,1.8-4.56,2.78a47.24,47.24,0,0,1,5.29.51c6,1.26,9.09,6.49,7.74,12.76a10.6,10.6,0,0,1-12.3,7.81c-3.55-.76-5.56-3.09-5.58-6.69,1.61,1.2,3.24,2,4.9.34a3.44,3.44,0,0,0,.59-4.23,4.4,4.4,0,0,0-4.8-2.77,8.3,8.3,0,0,0-2.84.83,8.94,8.94,0,0,0-4.69,9.43c1.25,7.43,8,11.33,15.66,8.9,6.88-2.19,11.21-7.27,14.49-13.35,4.8-8.86,5.61-18.39,4-28.13-1.11-6.63-3.11-13.12-4-19.77-1.07-8.33,1.59-15.61,8.81-20.39s15.07-5.15,22.94-1.3a17.51,17.51,0,0,1,7.7,7.67,19.88,19.88,0,0,0,1.34,2.27,24.16,24.16,0,0,0-7.34-13.14,16,16,0,0,0-8.25-3.72,13.1,13.1,0,0,1-4.89-1.72,3.77,3.77,0,0,1-1.48-3.19c.29-1.06,1.75-2.52,2.74-2.54a12.69,12.69,0,0,1,6.07,1.33c2,1.09,3.63,3,5.66,4.72-3-7-5.19-14-2.44-21.42s8.67-11.37,16.37-14c-.56.69-.77,1-1.05,1.29-7.88,7.54-10.17,17-8.53,27.34.82,5.22,2.82,10.29,4.57,15.32,2.58,7.42,5,14.83,4.48,22.83a36.55,36.55,0,0,1-8.4,21.24c-7.18,8.77-14.77,17.21-22.08,25.87-5.85,6.92-11.43,14.09-14.51,22.74-3.8,10.69-3.16,20.92,4.82,29.64,5.89,6.42,13.5,7.19,21.43,4.8,7.56-2.28,12-7.56,13.3-15.44,1-6.26-3.37-14.31-9.29-17.16-6.17-3-13.71-1.73-18,3-5.49,6-3.53,15,3.81,17.47,4.62,1.57,9-.89,9-5.09,0-1.49-.34-2.88-2-3.21s-2.7.74-3.38,2.17c-.09.2,0,.53-.18.65-.64.52-1.32,1-2,1.49-.45-.71-1.23-1.39-1.3-2.14a6.56,6.56,0,0,1,3.92-6.22,6.94,6.94,0,0,1,7.71,1.11,8.11,8.11,0,0,1,2.48,7.11c-.82,7.42-7.84,11.77-15.5,9.66-11.07-3-15.11-16.74-7.56-26,5.44-6.65,12.7-8.95,21-7.59,8.48,1.4,14.33,6.21,17.1,14.5C186.93,300,187.16,300.71,187.54,301.87Z"/><path class="cls-1" d="M187.78,366c-1.53,2.89-2.68,6-4.56,8.47-8.25,11-26.27,11-34.7.2a16.54,16.54,0,0,1-2.34-17.34c2.3-5.6,6.94-8.33,12.85-9.06,7.45-.91,14.22,6.45,12.4,13.52a7.14,7.14,0,0,1-7.44,5.56,6.68,6.68,0,0,1-6.38-6.37c0-.87.76-1.76,1.18-2.65.71.61,1.67,1.09,2.08,1.86.79,1.46,1.69,2.75,3.46,2.44s2.14-2,2-3.59c-.25-4-4.49-6.26-8.9-4.74-3.84,1.33-6.49,3.82-6.87,8.07a11.69,11.69,0,0,0,5.35,11.45c9,6,21,1.08,24.24-9.57s-4.61-21.73-16.76-23.05c-12-1.3-21.46,6.05-23.7,18.37-1.56,8.59.58,16.39,4.74,23.81,4.79,8.56,11.21,15.87,17.64,23.19,4.81,5.46,9.61,10.93,14.29,16.51C186.64,435.33,188.9,449,183.65,464c-1.13,3.24-2.75,6.32-3.72,9.6a76,76,0,0,0-2.88,12.48c-1.25,10.37,1.68,19.45,9.6,26.73-6.24-.64-13.87-7-16.14-13.45-2.6-7.41-.7-14.42,2-21.47-1.15,1.18-2.26,2.39-3.44,3.53a8.09,8.09,0,0,1-7.6,2.25,4.69,4.69,0,0,1-3-2.3c-.28-.71.76-2.46,1.66-3a14.61,14.61,0,0,1,5.13-1.76,15.19,15.19,0,0,0,10-6,27.08,27.08,0,0,0,5.25-11.29c-.32.57-.57.93-.75,1.32-6.41,14.06-25.69,14.45-34.62,4.79-5.58-6-6.55-13.29-5.09-21,1.27-6.68,3.19-13.27,4-20,1.39-11.74-1.29-22.54-9.37-31.59A20.07,20.07,0,0,0,122.45,386c-8-1.21-14.86,6.15-12.69,13.62a8.57,8.57,0,0,0,7,6.16,4.5,4.5,0,0,0,4.94-2.55c.83-1.66.86-3.29-.67-4.59s-3.12-.88-4.53.49c-.48-2.92,1.29-5.4,4.49-6.43,7-2.26,14.23,3.75,13.49,11.2-.58,5.78-4.9,9.52-11,9.51h-1.72c3.16,2.52,6.7,5,9.85,7.95a16.44,16.44,0,0,1,5.5,10.59,10.43,10.43,0,0,1-7.46,11,63.21,63.21,0,0,0-.37-7c-1-6.36-4.81-11.16-9.31-15.45-3.21-3.07-6.66-5.9-9.79-9.05-4.65-4.68-6.73-10.33-5.51-17A14.52,14.52,0,0,1,120,382.07a12,12,0,0,0,2.53-.07,14.37,14.37,0,0,0-9.57-1.44c-3.62.6-7.18,1.55-10.78,2.26a42.06,42.06,0,0,1-6.57,1c-6.08.22-10-2.88-11.45-8.78-.25-1-.28-2.15-.61-3.16-.91-2.85-1.92-5.68-2.83-8.33a16.49,16.49,0,0,1,2.38,1.26,46,46,0,0,1,4.32,3.42,26.67,26.67,0,0,0,19.12,7,73,73,0,0,1,10.76.62,27.75,27.75,0,0,1,12.48,4.9c-.89-1-1.78-2-2.66-3-5.52-6.38-4.35-11.65,3.68-15.34a19.54,19.54,0,0,1-.47,2A17.9,17.9,0,0,0,132,380.11c2.58,4.25,5.51,8.29,8.3,12.41,6.78,10,10.73,21,10.45,33.18-.07,2.74-.54,5.46-.87,8.56,3.2-1.73,6.1-3.57,7.59-6.91a5.83,5.83,0,0,0-.07-3c0-.17-1.26-.43-1.36-.27a17.68,17.68,0,0,0-1.17,2.53c-.09.2-.14.42-.25.76-2-.64-1.84-2.25-1.71-3.7a4.81,4.81,0,0,1,4.1-4.59,5.66,5.66,0,0,1,5.75,3.35c1.4,3.12.37,5.84-3.66,9,.84.17,1.44.3,2,.41,9.55,1.82,15.2,10.9,12.15,19.54-2.62,7.38-11,11-17.5,7.49-3.25-1.75-5.16-5.71-4.29-8.87.42-1.53,1.23-2.67,2.95-2.76s2.63.85,3.24,2.38c.27.69,1,1.72,1.45,1.69a3.12,3.12,0,0,0,1.85-1.46c1.25-1.94.63-3.82-.51-5.59C159,442,157,440.43,154,440.77c-5.59.63-9.14,5.62-8.63,12.11.54,7.08,4.53,12.17,11,14,7,2,13.81.1,17.8-5.68,6.17-8.92,6.88-18.65,1.42-27.93-4.16-7.08-9.61-13.43-14.64-20-6.85-8.93-14.05-17.59-20.72-26.66-4.94-6.73-7.8-14.41-7.45-23,.09-2.2.49-4.39.79-7-.73.67-1.29,1.2-1.87,1.71-11.58,10.18-24.58,13.68-39.36,8.07a34.13,34.13,0,0,1-15.65-12.36c-1.75-2.43-3.45-4.88-5.17-7.33-3.64-5.15-7.78-9.52-14.86-9.4l-.07-.75c2-.66,4-1.51,6-2,7.57-1.68,12.66,1,15.46,8.28,1,2.71,1.65,5.59,2.78,8.26,1,2.46,2.53,4.75,3.82,7.11l.59-.32c-.57-1.38-1.23-2.73-1.71-4.15-3.33-9.81,2.28-18,12.65-18.65a44.78,44.78,0,0,1,17.79,3,23.29,23.29,0,0,0,17.22-.39c3.77-1.49,7.68-2.67,12.29-1.34a14.46,14.46,0,0,0-1.95.67c-3.07,1.69-6.17,3.32-9.15,5.15-1.75,1.07-3.26,2.54-5,3.7-4.9,3.32-8.64,3-13.08-.92-1.49-1.32-2.95-2.69-4.53-3.89a6.14,6.14,0,0,0-3.11-1.12,41.76,41.76,0,0,1,3.66,3.36c3.85,4.42,4,9.71.45,13.5s-10.77,4.43-14.82,1.47a8.91,8.91,0,0,1-3.1-9.66A5.61,5.61,0,0,1,98.21,345c2.06,0,3.9.57,4.8,3l-1-.1c-2.24-.27-3.58.55-3.76,2.31a3.49,3.49,0,0,0,3.51,3.73,5.72,5.72,0,0,0,5.77-4.91,7.4,7.4,0,0,0-5.54-8.6,17.42,17.42,0,0,0-6.35-.39c-3.89.52-7.29,2.18-8.57,6.29-1.54,4.95.12,9.28,3.42,12.91s8.08,5.27,13,5.47c11.58.47,21-4.27,28.62-12.69,2.37-2.61,4.53-5.4,6.79-8.11,6.54-7.8,15.07-10.33,24.9-9.37,7.68.75,14.6,3.2,19.17,9.83,2,2.84,3.21,6.18,4.76,9.26.08-.22.29-.72.44-1.24,3.08-10.41,10.27-16.12,20.8-17.48a48.93,48.93,0,0,1,12.33.11c5.68.7,10.29,3.79,14.07,8,2.59,2.92,4.95,6.05,7.57,8.94,7.46,8.25,16.63,12.92,27.92,12.78a19.45,19.45,0,0,0,11.84-3.83c4.25-3.25,6.4-7.62,5.7-13-.61-4.7-3.88-7.14-8.24-7.69a19.48,19.48,0,0,0-8.28.72c-3.7,1.2-5.36,5.81-3.94,9.35a5.52,5.52,0,0,0,6,3.52A3.3,3.3,0,0,0,276.8,350c-.43-2-1.84-2.45-3.67-2.13L272,348c1-2.53,2.9-3.07,5-3a5.47,5.47,0,0,1,5.23,4.1,8.61,8.61,0,0,1-5.83,10.53c-6.87,2.15-13.74-1.44-14.61-7.79-.6-4.39,1.62-7.64,4.8-10.36.52-.44,1.08-.83,1.62-1.26a6.31,6.31,0,0,0,.29-1c-2,1.3-3.64,2.2-5.08,3.3s-2.82,2.6-4.33,3.76a8.32,8.32,0,0,1-9.88.65c-1.72-1-3.29-2.24-4.91-3.4-1.93-1.39-3.74-3-5.78-4.15s-4.27-1.95-6.46-3.45a55.7,55.7,0,0,1,7.1.46,46.1,46.1,0,0,1,7,2.16,19.67,19.67,0,0,0,13,.16c6.12-2,12.3-3.87,18.86-3.49a20.9,20.9,0,0,1,4.53.66c7.89,2.22,11.57,9.21,9.1,17.28-.51,1.65-1.28,3.22-2.16,5.38a20.2,20.2,0,0,0,5.11-8.53c.84-2.46,1.45-5,2.42-7.42,2.79-6.92,7.9-9.57,15.26-7.94A25.38,25.38,0,0,1,318.5,337c-7.94.27-12.05,5.59-15.94,11.24-3.61,5.24-7.15,10.53-12.5,14.25-14,9.75-31.94,8.64-45.23-2.81-1.07-.93-2.13-1.87-3.56-3.13,2.91,11.77-.3,21.84-6.89,30.8-7.16,9.75-15,19-22.39,28.57a198.69,198.69,0,0,0-12.07,16.48c-5.23,8.38-5.18,17.33-.79,26.09,4,7.91,12,11,20.4,8.19,8.65-2.9,12.85-13.56,8.46-21.49a8.44,8.44,0,0,0-7.78-4.46c-3.15,0-5,2.1-6.24,4.7a4.43,4.43,0,0,0,.57,5.15c1.1,1.31,2.21,1.19,2.72-.42.65-2,1.69-3.29,4-2.79,1.7.37,2.71,2.28,2.56,4.62-.33,5.29-6.09,9.28-11.76,8.14a13.43,13.43,0,0,1-11-12,14.68,14.68,0,0,1,8.66-14.87,58.38,58.38,0,0,1,6.06-1.93c-.59-.49-1.22-1-1.8-1.49a6.29,6.29,0,0,1-1.92-6.69,5.39,5.39,0,0,1,4.33-4,4.44,4.44,0,0,1,4.83,1.88,5.18,5.18,0,0,1,.53,5.44c-.18.39-.71.63-1.32,1.14-.13-.93,0-1.63-.32-2a10.62,10.62,0,0,0-1.84-1.61c-.35.74-1.17,1.66-1,2.2a11.45,11.45,0,0,0,2.36,4.09,19.08,19.08,0,0,0,5.66,3.76c-.19-1.07-.4-2.13-.54-3.2-1.9-14.09,2.23-26.63,10-38.22,1.74-2.61,3.6-5.14,5.43-7.7,4.82-6.73,7.63-13.84,3.89-22.2,6.61,1.48,9.18,7.78,5.49,13-1.27,1.81-2.82,3.41-4.16,5.26a24.86,24.86,0,0,1,12-5,82.5,82.5,0,0,1,11.21-.69,27,27,0,0,0,18.93-6.95c2.2-1.93,4.67-3.54,6.86-5.17-1,3.14-2.47,6-2.9,9.07-1.51,10.67-8.23,12.84-16.51,11.1-4.27-.89-8.5-2-12.79-2.74a13,13,0,0,0-9.7,1.72,36.25,36.25,0,0,1,6.08.05c8.1,1.37,13.35,9.38,12,17.88a21,21,0,0,1-7.06,12.55c-2.61,2.37-5.28,4.68-7.85,7.09-6.65,6.21-11.42,13.26-10,23-5.67-1.14-9-7.4-7.31-13.3,1.33-4.52,4.23-8,7.79-10.86,2.36-1.91,5-3.51,7.52-5.29a41.12,41.12,0,0,1-4.49-.33c-6-1.07-9.36-5.8-8.46-11.85a10.44,10.44,0,0,1,11.66-8.95c4,.45,6.52,3.15,6.29,6.87-1.41-1.29-3.08-2.09-4.49-.57a5.06,5.06,0,0,0-1.12,3.63,4.06,4.06,0,0,0,3.74,3.51c5,.75,9.65-4.6,8.8-10.11-1.15-7.43-7.91-11.39-15.56-9.08a22.26,22.26,0,0,0-11.15,8.12c-6.81,8.76-9.12,18.85-7.82,29.64.8,6.65,2.77,13.16,3.86,19.79a38.78,38.78,0,0,1,.34,10.26c-.92,8.62-7.31,15.07-16.51,17.22-8.31,1.95-17.25-1.32-21.74-8-.85-1.26-1.52-2.64-2.37-3.92,1.3,5.85,4.05,10.91,8.91,14.48,1.74,1.28,4.21,1.59,6.37,2.28,1.65.54,3.54.68,4.93,1.6a3.91,3.91,0,0,1,1.38,3.4,4.69,4.69,0,0,1-2.94,2.64,5.5,5.5,0,0,1-3.89-.77c-2.46-1.5-4.71-3.35-7.18-5.16.67,2,1.28,4.07,2,6.06,5.24,13.72-3.33,25.63-16,28.81,1.1-1.15,2.07-2.09,2.95-3.11,6.29-7.31,8.06-16,6.55-25.16-.86-5.22-2.79-10.3-4.55-15.33-2.58-7.41-5-14.82-4.52-22.82A34.2,34.2,0,0,1,195.9,427c6.51-8.22,13.48-16.09,20.29-24.06,6.08-7.12,12.09-14.29,16.1-22.85,4.48-9.54,5.29-19.17,0-28.65-3.85-6.9-9.83-10.57-17.9-10.37S200,344.34,196,351.63c-3.75,6.92-1.46,15,3,19.81a15.94,15.94,0,0,0,17.76,3.72,12.17,12.17,0,0,0,7.68-13.24A9.68,9.68,0,0,0,213.5,354c-3.09.5-5.2,3-4.72,6a3.53,3.53,0,0,0,1.81,2.51c.83.22,2-.62,2.94-1.17.37-.23.36-1,.69-1.4a18.22,18.22,0,0,1,1.88-1.62c.5.75,1.35,1.48,1.41,2.26a6.49,6.49,0,0,1-4,6.16,6.92,6.92,0,0,1-7.69-1.24,8.14,8.14,0,0,1-2.37-7.15c.92-7.33,7.78-11.6,15.37-9.58,11.17,2.95,15.26,16.85,7.59,26.12-5.54,6.69-12.87,8.93-21.25,7.44S191,376,188.35,367.81C188.14,367.18,187.94,366.54,187.78,366Z"/><path class="cls-1" d="M187.08,234.59c1,7,4.54,12.95,7.87,18.94.37.67.7,1.36,1.07,2,3.19,5.7,2.69,10.94-1.83,15.78a15,15,0,0,0-2.37,3.61c-.3.59,0,1.45.28,2.56,4.7-7,10.51-10.61,18.79-7.06,4.64,2,9.55,8.18,10.67,13.42-5.53-4.69-11.8-5.53-18.42-4.17s-12.37,4-15.94,10.5c-3.51-6.29-9.27-9.14-15.88-10.47s-13.12-.67-18.51,4.21c.48-5.24,7-12.58,12.58-14.22,7.71-2.27,12.64,1.76,16.59,8l.69-.62a5.46,5.46,0,0,0-.19-2.17,25.64,25.64,0,0,0-2.92-4.35c-3.69-4.23-4.32-8.81-1.81-13.8,1.54-3.07,3.44-6,4.76-9.15,1.63-3.93,2.84-8,4.23-12.06C186.85,235.26,187,234.92,187.08,234.59Z"/><path class="cls-1" d="M181.87,389.55c-4.11,6.88-9.58,10.59-17.5,7.62-6.3-2.36-9.36-7.75-11.77-13.7,5.5,4.6,11.8,5.44,18.47,4.11s12.52-4,16.08-10.55c3.48,6.38,9.24,9.12,15.77,10.48s13,.68,18.73-4.25a6.31,6.31,0,0,1-.43,1.73c-2.09,3.08-3.84,6.52-6.43,9.12-6.1,6.12-16.37,5.24-20.43-2a15.61,15.61,0,0,0-1.89-2.2l-.69.14c0,.77-.26,1.67.05,2.28a17.26,17.26,0,0,0,2.54,3.78c4.27,4.66,4.77,9.72,1.83,15.21-1.22,2.3-2.44,4.6-3.71,6.87a39.05,39.05,0,0,0-5.15,15,7,7,0,0,1-.47-1c-.76-6.24-3.63-11.64-6.66-17q-1.41-2.49-2.63-5.09a11.43,11.43,0,0,1,1.78-13.24,31.17,31.17,0,0,0,3.1-4.52,5.75,5.75,0,0,0,.25-2.2Z"/><path class="cls-1" d="M187.21,160.94c7.65,13.53,7.66,24.62.12,35.24C179.57,189.62,179.46,172.74,187.21,160.94Z"/><path class="cls-1" d="M187.2,471.06c7.33,9.24,7.32,24.21,0,35.1C179.35,493.28,179.46,481.46,187.2,471.06Z"/></g></g></svg>